<svg width="431" height="345" viewBox="0 0 431 345" fill="none" xmlns="http://www.w3.org/2000/svg">
<g id="Scene/Wireframe">
<path id="Twisted Leaf" fill-rule="evenodd" clip-rule="evenodd" d="M424.297 88.2963C423.968 88.0573 423.189 87.9726 422.827 87.901C421.32 87.6038 419.768 87.4744 418.232 87.4744C413.496 87.4815 408.683 87.9467 404.026 88.7519C401.069 89.263 397.494 90.9831 394.553 90.0489C389.428 88.4213 384.249 88.5012 379.387 90.8249C374.942 92.9497 371.567 96.9851 369.598 101.345C369.301 102.004 368.095 104.426 367.754 106.059C367.608 106.393 367.468 106.73 367.342 107.071C366.983 108.04 366.662 109.025 366.363 110.013C366.235 110.435 365.914 111.365 366.295 111.545C365.686 112.67 365.146 113.83 364.696 115.027C363.388 118.508 361.958 122.327 361.498 126.017C361.328 127.384 361.321 128.758 361.479 130.127C361.558 130.804 361.525 132.164 361.984 132.679C362.957 133.77 363.456 132.242 363.346 131.514C362.509 125.966 364.126 120.756 366.043 115.541C367.282 112.168 369.319 109.083 371.6 106.289C373.447 104.027 375.427 102.246 377.958 100.747C381.053 98.9133 384.362 97.4309 387.641 95.9439C389.797 94.9655 391.956 94.0134 394.172 93.1705C394.665 92.9829 395.441 92.502 395.987 92.5001C397.143 92.496 398.78 93.3493 399.897 93.6668C403.568 94.7113 407.287 96.0487 411.081 96.5821C413.515 96.9246 415.795 96.5391 418.072 95.7277C418.304 95.645 418.694 95.432 419.172 95.1277C420.862 94.4772 422.461 93.6584 423.852 92.4774C424.654 91.7968 425.382 90.9173 426.046 90.1124C426.244 89.8718 426.332 89.5959 426.335 89.3337C426.486 89.2551 426.585 89.1632 426.608 89.056C426.773 88.2637 425.264 88.2491 424.297 88.2963Z" fill="#89C5CC"/>
<path id="Fill 16" fill-rule="evenodd" clip-rule="evenodd" d="M39.5676 154.337C38.6384 155.09 37.7272 155.859 36.8381 156.659C36.1605 157.269 34.9614 157.999 34.7181 158.923C34.4653 159.883 35.2636 160.782 35.8942 161.363C39.229 164.433 42.9841 166.508 47.605 166.853C54.7201 167.385 60.9124 165.567 67.0857 161.989C71.4221 159.476 74.2945 155.759 74.9219 150.74C80.0862 152.888 85.081 155.848 89.3255 159.481C91.4198 161.274 93.2236 163.26 94.8921 165.462C95.9606 166.872 96.9943 168.305 97.9535 169.793C98.3705 170.44 98.7943 171.586 99.4827 171.959C100.291 172.396 101.268 171.711 101.228 170.812C101.194 170.063 100.387 169.195 100.009 168.584C99.382 167.568 98.7455 166.558 98.0752 165.57C96.9905 163.971 95.8695 162.394 94.6468 160.897C91.8992 157.534 88.403 154.756 84.7788 152.387C77.8261 147.842 70.1956 144.979 61.7357 144.736C56.5338 144.587 52.1578 146.366 47.7093 149.021C44.9398 150.675 42.0808 152.301 39.5676 154.337Z" fill="#DDE3E9"/>
<path id="Leaf" fill-rule="evenodd" clip-rule="evenodd" d="M107.045 132.355C101.624 126.768 96.1843 121.252 90.1279 116.333C86.5586 113.434 82.7969 110.798 79.1129 108.05C79.5381 108.423 79.9549 108.806 80.3618 109.199C79.2119 108.418 77.7065 107.976 76.4873 107.253C75.1274 106.447 73.8276 105.524 72.5525 104.594C70.0636 102.779 67.6122 100.93 65.0539 99.2102C62.2035 97.2939 59.2495 95.5232 56.3506 93.6792C53.8904 92.1142 51.4 90.4012 48.768 89.1219C47.3335 88.4246 45.8956 87.598 44.4552 86.8707C43.9732 86.6274 39.0817 83.5366 39.094 83.5273C39.3644 83.3235 41.8259 84.4808 42.2065 84.6365C43.3185 85.091 44.3819 85.6346 45.451 86.1765C44.8642 85.0183 44.3997 83.8015 44.1469 82.5206C44.0688 82.1252 43.443 79.2471 43.7632 79.0056C43.9231 78.885 45.4837 84.0345 45.5636 84.5296C45.6286 84.9317 45.619 85.5108 45.7506 85.8916C45.963 86.5066 45.9523 86.3209 46.4201 86.6673C47.2777 87.3024 48.4161 87.6992 49.3442 88.23C49.8447 88.5096 51.3943 89.6183 52.3277 89.9343C55.1518 91.3069 58.0144 93.4186 60.6977 95.1717C59.9935 93.8473 59.4575 92.4624 59.0667 91.0112C58.9737 90.6667 57.9708 87.5758 58.2141 87.3923C58.488 87.1859 60.3989 91.9064 60.5121 92.3534C60.7224 93.1834 60.766 94.1074 61.0293 94.9151C61.3183 95.8016 62.22 96.1158 63.0328 96.6326C66.023 98.5337 68.9106 100.554 71.7501 102.667C74.8482 97.1529 71.2759 90.4946 68.2651 85.8684C66.095 82.5342 63.1734 79.6757 60.0887 77.1802C55.9718 73.8496 51.2615 71.1888 46.5571 68.7551C41.0754 65.9192 35.1508 64.1621 28.9913 63.3504C25.7698 62.9258 22.474 62.9377 19.22 63.0738C17.6304 63.1402 16.1046 63.3509 14.5812 63.8697C13.8946 64.1038 13.2311 64.3988 12.5844 64.7291C12.0931 64.9801 10.9046 65.2451 10.6221 65.619C8.29676 68.6476 7.10711 71.6655 7.28878 75.4713C7.46057 79.0738 8.59761 82.6783 10.1407 85.8918C11.8592 89.47 14.0694 92.7177 16.96 95.4434C19.1653 97.5231 21.6309 99.333 24.0803 101.119C32.7919 107.472 43.8367 112.998 55.1198 111.578C58.7721 111.119 62.246 109.841 65.4923 108.104C66.2572 107.695 67.0176 107.281 67.7396 106.797C68.2265 106.472 69.528 105.004 70.0176 104.951C70.6888 104.877 72.1348 106.244 72.7645 106.659C77.5501 109.821 82.2103 113.153 86.7729 116.62C91.6271 120.309 96.2433 124.249 100.724 128.374C102.629 130.128 104.522 131.887 106.373 133.7C106.803 134.122 107.857 135.676 108.638 135.746C109.132 135.791 109.465 135.369 109.394 134.912C109.272 134.116 107.6 132.927 107.045 132.355Z" fill="#C1DEE2"/>
<path id="Fill 10" fill-rule="evenodd" clip-rule="evenodd" d="M418.606 110.673C416.506 110.214 414.187 110.25 412.048 110.287C400.577 110.444 389.313 115.878 381.982 124.562C375.741 131.954 374.024 141.145 372.792 150.436C372.669 151.358 372.617 152.275 372.548 153.199C372.533 153.397 372.511 153.574 372.487 153.741C372.002 154.175 371.748 154.68 372.035 155.236C370.967 157.575 370.063 159.974 369.288 162.447C367.006 169.729 364.685 177.148 366.115 184.805C366.449 180.592 367.151 176.283 367.992 172.139C368.04 171.901 368.092 171.665 368.147 171.43C368.152 171.405 368.157 171.38 368.163 171.355C368.461 170.086 368.847 168.855 369.318 167.643C369.322 167.63 369.327 167.617 369.332 167.604C369.394 167.444 369.46 167.286 369.526 167.127C369.66 166.799 369.799 166.471 369.945 166.145C369.995 166.034 370.043 165.922 370.088 165.809C370.773 164.13 371.062 162.238 371.676 160.5C371.822 160.105 371.976 159.711 372.136 159.32C372.146 159.297 372.156 159.274 372.165 159.251C372.6 158.198 373.08 157.157 373.587 156.127C373.863 155.92 374.01 155.405 374.248 154.938C374.297 154.845 374.682 154.231 374.796 153.877C375.095 153.298 375.393 152.72 375.694 152.142C375.685 152.146 375.676 152.149 375.667 152.152C375.968 151.598 376.27 151.045 376.57 150.496C376.636 150.375 376.702 150.254 376.769 150.133C376.876 149.94 376.984 149.747 377.091 149.555C378.096 147.755 379.162 145.992 380.268 144.251C380.663 143.629 381.606 142.738 381.787 142.04C381.794 142.014 381.795 141.99 381.799 141.965C384.2 138.591 386.964 135.479 390.279 133.013C389.878 133.446 389.026 134.917 388.801 135.208C388.112 136.1 387.364 136.93 386.613 137.77C385.269 139.274 383.956 140.827 382.789 142.469C380.656 145.471 378.815 148.631 377.076 151.854C377.059 151.873 377.041 151.891 377.025 151.91C376.151 152.989 375.601 154.619 374.971 155.853C377.462 154.698 380.217 153.946 382.773 152.921C385.323 151.899 387.803 150.761 390.197 149.425C393.379 147.648 396.681 145.643 399.688 143.373C403.133 141.235 406.029 138.291 408.585 135.201C411.609 131.546 414.38 127.859 416.094 123.421C416.936 121.24 417.599 118.966 417.991 116.665C418.008 116.565 418.03 116.456 418.054 116.343C418.456 115.549 418.815 114.736 419.117 113.905C419.595 112.587 420.726 111.137 418.606 110.673Z" fill="#69A1AC"/>
<path id="Leave the Leaf!" fill-rule="evenodd" clip-rule="evenodd" d="M62.7979 126.116C62.1401 125.404 61.4012 124.761 60.5338 124.302C60.3145 124.186 58.6809 123.409 58.5745 123.58C58.3266 123.977 62.6003 125.889 62.7979 126.116ZM70.5431 121.355C70.5377 121.385 71.1042 122.347 71.2584 122.643C71.5866 123.272 71.8897 123.913 72.1748 124.555C71.7527 123.421 71.319 122.369 70.5431 121.355ZM30.9316 129.184C30.3861 129.36 29.7302 128.667 30.4378 128.496C31.0104 128.359 30.9823 128.327 31.2394 127.866C31.4481 127.491 31.5768 127.034 31.7599 126.641C32.1485 125.806 32.5893 125.011 33.1304 124.266C34.2899 122.668 35.7027 121.291 37.2873 120.13C40.0527 118.106 43.1533 116.255 46.4424 115.325C51.6722 113.847 57.6244 113.756 62.8623 114.781C66.1063 115.415 69.0709 116.519 71.225 119.133C72.3016 120.439 73.1467 121.969 73.5161 123.654C73.6125 124.094 73.5945 124.584 73.7152 125.015C73.9007 125.678 73.8189 125.502 74.5938 125.631C75.4399 125.772 76.2854 125.915 77.1306 126.062C79.3436 126.445 81.5696 126.851 83.7259 127.473C84.4356 127.677 85.1297 127.927 85.8078 128.218C86.3206 128.437 88.3626 129.126 88.6107 129.793C89.0238 130.902 87.6399 130.399 87.2098 130.158C86.8332 129.946 86.4464 129.749 86.054 129.567C85.0661 129.11 84.0367 128.756 82.9841 128.474C81.8467 128.17 80.6859 127.942 79.5296 127.715C78.4513 127.503 77.369 127.31 76.2852 127.125C75.6832 127.023 75.0806 126.923 74.4781 126.824C74.2722 126.789 73.9092 126.611 73.9367 126.879C72.6699 126.635 71.2999 126.67 70.0095 126.602C68.429 126.52 66.8427 126.452 65.2569 126.502C64.1132 126.538 62.9684 126.613 61.8305 126.766C61.1656 126.856 60.5113 126.988 59.8589 127.154C59.5006 127.246 58.0875 127.44 57.8923 127.752C57.9762 127.618 59.5357 127.748 59.7342 127.741C60.5282 127.711 61.3159 127.632 62.107 127.544C63.5749 127.38 65.0435 127.294 66.5159 127.306C66.5103 127.565 65.5045 128.026 65.259 128.197C64.7085 128.582 64.1812 129.001 63.6893 129.461C62.8227 130.271 61.7851 131.275 61.1856 132.235C61.3623 131.952 62.2337 131.584 62.543 131.367C63.0385 131.021 63.5238 130.652 63.983 130.257C64.407 129.892 64.8026 129.498 65.1916 129.096C65.5807 128.693 66.1086 127.856 66.6198 127.588C66.6506 127.572 66.8735 127.748 67 127.688C67.1276 127.628 67.2866 127.326 67.319 127.314C67.7948 127.13 68.6985 127.358 69.1987 127.382C70.496 127.441 71.792 127.52 73.0884 127.591C73.4901 127.613 73.8313 127.522 73.983 127.818C74.1446 128.134 73.8485 128.965 73.7642 129.31C73.4517 130.589 72.8965 131.736 72.0226 132.726C70.386 134.582 68.368 135.82 66.0882 136.647C57.356 139.817 48.0662 141.087 39.3366 137.789C35.7227 136.424 30.2799 133.984 30.9316 129.184Z" fill="#89C5CC"/>
<g id="Background Shape 2" opacity="0.6">
<path id="Background Shape" opacity="0.6" fill-rule="evenodd" clip-rule="evenodd" d="M430.752 278.534C436.693 318.774 292.624 345.022 168.621 326.704C44.6186 308.387 -12.268 236.855 46.9041 198.739C106.076 160.624 424.811 238.293 430.752 278.534Z" fill="#DDE3E9"/>
</g>
<g id="Mobile3">
<path id="Container" d="M177.297 14.7844H89.264C86.5441 14.7844 84.3391 16.9908 84.3391 19.7125V195.893C84.3391 198.615 86.5441 200.822 89.264 200.822H177.297C180.017 200.822 182.222 198.615 182.222 195.893V19.7125C182.222 16.9908 180.017 14.7844 177.297 14.7844Z" fill="#F2F2F2"/>
<path id="Touch" d="M132.973 189.117C138.073 189.117 142.207 184.98 142.207 179.877C142.207 174.774 138.073 170.637 132.973 170.637C127.873 170.637 123.738 174.774 123.738 179.877C123.738 184.98 127.873 189.117 132.973 189.117Z" fill="white"/>
<g id="Camera">
<path id="Lens" d="M124.97 27.1047C125.65 27.1047 126.201 26.5531 126.201 25.8727C126.201 25.1923 125.65 24.6407 124.97 24.6407C124.29 24.6407 123.738 25.1923 123.738 25.8727C123.738 26.5531 124.29 27.1047 124.97 27.1047Z" fill="white"/>
<path id="Sensor" d="M140.976 24.6407H130.51C129.83 24.6407 129.279 25.1923 129.279 25.8727C129.279 26.5531 129.83 27.1047 130.51 27.1047H140.976C141.656 27.1047 142.207 26.5531 142.207 25.8727C142.207 25.1923 141.656 24.6407 140.976 24.6407Z" fill="white"/>
</g>
<g id="Rows">
<g id="Row">
<path id="Background" d="M171.141 32.0329H95.4202C94.0602 32.0329 92.9577 33.1361 92.9577 34.497V62.8337C92.9577 64.1946 94.0602 65.2978 95.4202 65.2978H171.141C172.501 65.2978 173.603 64.1946 173.603 62.8337V34.497C173.603 33.1361 172.501 32.0329 171.141 32.0329Z" fill="white"/>
<g id="Text">
<path id="Name" d="M160.06 42.0124H118.813C117.794 42.0124 116.967 42.8398 116.967 43.8604V45.1541C116.967 46.1747 117.794 47.0021 118.813 47.0021H160.06C161.08 47.0021 161.906 46.1747 161.906 45.1541V43.8604C161.906 42.8398 161.08 42.0124 160.06 42.0124Z" fill="#DDE3E9"/>
<path id="Name_2" d="M145.285 50.3286H118.813C117.793 50.3286 116.967 51.156 116.967 52.1766V53.4703C116.967 54.4909 117.793 55.3183 118.813 55.3183H145.285C146.305 55.3183 147.132 54.4909 147.132 53.4703V52.1766C147.132 51.156 146.305 50.3286 145.285 50.3286Z" fill="#DDE3E9"/>
</g>
<path id="Avatar" d="M105.886 56.0575C109.966 56.0575 113.273 52.7479 113.273 48.6653C113.273 44.5827 109.966 41.2731 105.886 41.2731C101.806 41.2731 98.4982 44.5827 98.4982 48.6653C98.4982 52.7479 101.806 56.0575 105.886 56.0575Z" fill="#C5CFD6"/>
</g>
<g id="Row_2">
<path id="Background_2" d="M171.141 70.2259H95.4202C94.0602 70.2259 92.9577 71.3291 92.9577 72.69V93.6346C92.9577 94.9955 94.0602 96.0987 95.4202 96.0987H171.141C172.501 96.0987 173.603 94.9955 173.603 93.6346V72.69C173.603 71.3291 172.501 70.2259 171.141 70.2259Z" fill="white"/>
<g id="Text_2">
<path id="Name_3" d="M160.06 77.9878H118.813C117.794 77.9878 116.967 78.8152 116.967 79.8358V80.0206C116.967 81.0412 117.794 81.8686 118.813 81.8686H160.06C161.08 81.8686 161.906 81.0412 161.906 80.0206V79.8358C161.906 78.8152 161.08 77.9878 160.06 77.9878Z" fill="#DDE3E9"/>
<path id="Name_4" d="M145.285 84.4559H118.813C117.793 84.4559 116.967 85.2833 116.967 86.304V86.4888C116.967 87.5094 117.793 88.3368 118.813 88.3368H145.285C146.305 88.3368 147.132 87.5094 147.132 86.4888V86.304C147.132 85.2833 146.305 84.4559 145.285 84.4559Z" fill="#DDE3E9"/>
</g>
<path id="Avatar_2" d="M105.886 90.5545C109.966 90.5545 113.273 87.2449 113.273 83.1623C113.273 79.0797 109.966 75.7701 105.886 75.7701C101.806 75.7701 98.4982 79.0797 98.4982 83.1623C98.4982 87.2449 101.806 90.5545 105.886 90.5545Z" fill="#C5CFD6"/>
</g>
<g id="Row_3">
<path id="Background_3" d="M171.141 101.027H95.4202C94.0602 101.027 92.9577 102.13 92.9577 103.491V124.435C92.9577 125.796 94.0602 126.899 95.4202 126.899H171.141C172.501 126.899 173.603 125.796 173.603 124.435V103.491C173.603 102.13 172.501 101.027 171.141 101.027Z" fill="white"/>
<g id="Text_3">
<path id="Name_5" d="M160.06 108.789H118.813C117.794 108.789 116.967 109.616 116.967 110.637V110.821C116.967 111.842 117.794 112.67 118.813 112.67H160.06C161.08 112.67 161.906 111.842 161.906 110.821V110.637C161.906 109.616 161.08 108.789 160.06 108.789Z" fill="#DDE3E9"/>
<path id="Name_6" d="M145.285 115.257H118.813C117.793 115.257 116.967 116.084 116.967 117.105V117.29C116.967 118.31 117.793 119.138 118.813 119.138H145.285C146.305 119.138 147.132 118.31 147.132 117.29V117.105C147.132 116.084 146.305 115.257 145.285 115.257Z" fill="#DDE3E9"/>
</g>
<path id="Avatar_3" d="M105.886 121.355C109.966 121.355 113.273 118.046 113.273 113.963C113.273 109.881 109.966 106.571 105.886 106.571C101.806 106.571 98.4982 109.881 98.4982 113.963C98.4982 118.046 101.806 121.355 105.886 121.355Z" fill="#AFB9C5"/>
</g>
<g id="Row_4">
<path id="Background_4" d="M171.141 131.828H95.4202C94.0602 131.828 92.9577 132.931 92.9577 134.292V155.236C92.9577 156.597 94.0602 157.7 95.4202 157.7H171.141C172.501 157.7 173.603 156.597 173.603 155.236V134.292C173.603 132.931 172.501 131.828 171.141 131.828Z" fill="white"/>
<g id="Text_4">
<path id="Name_7" d="M160.06 139.589H118.813C117.794 139.589 116.967 140.417 116.967 141.438V141.622C116.967 142.643 117.794 143.47 118.813 143.47H160.06C161.08 143.47 161.906 142.643 161.906 141.622V141.438C161.906 140.417 161.08 139.589 160.06 139.589Z" fill="#DDE3E9"/>
<path id="Name_8" d="M145.285 146.058H118.813C117.793 146.058 116.967 146.885 116.967 147.906V148.091C116.967 149.111 117.793 149.939 118.813 149.939H145.285C146.305 149.939 147.132 149.111 147.132 148.091V147.906C147.132 146.885 146.305 146.058 145.285 146.058Z" fill="#DDE3E9"/>
</g>
<path id="Avatar_4" d="M105.886 152.156C109.966 152.156 113.273 148.847 113.273 144.764C113.273 140.681 109.966 137.372 105.886 137.372C101.806 137.372 98.4982 140.681 98.4982 144.764C98.4982 148.847 101.806 152.156 105.886 152.156Z" fill="#C5CFD6"/>
</g>
</g>
</g>
<g id="Mobile3_2">
<g id="Group">
<path id="Fill 16_2" fill-rule="evenodd" clip-rule="evenodd" d="M102.894 165.093C102.078 165.093 101.265 165.109 100.45 165.151C99.8295 165.184 98.8807 165.055 98.3553 165.442C97.8094 165.845 97.847 166.668 97.9323 167.249C98.3831 170.324 99.4833 173.051 101.785 175.229C105.329 178.584 109.392 180.288 114.199 181.047C117.576 181.581 120.694 180.84 123.179 178.437C124.996 181.811 126.374 185.544 127.065 189.311C127.406 191.17 127.51 193.007 127.45 194.9C127.412 196.113 127.345 197.322 127.215 198.529C127.159 199.054 126.892 199.847 127.097 200.343C127.338 200.925 128.149 200.981 128.514 200.485C128.817 200.072 128.762 199.261 128.824 198.772C128.927 197.96 129.023 197.148 129.091 196.332C129.202 195.012 129.285 193.688 129.279 192.363C129.265 189.385 128.603 186.396 127.698 183.57C125.962 178.147 123.145 173.328 118.765 169.547C116.071 167.222 112.988 166.281 109.49 165.775C107.313 165.461 105.1 165.093 102.894 165.093Z" fill="#89C5CC"/>
<path id="Fill 18" fill-rule="evenodd" clip-rule="evenodd" d="M115.471 186.653C106.669 186.653 100.74 193.752 97.9372 201.131C96.8806 203.912 96.6329 206.966 96.2257 209.886C96.0949 210.823 96.1433 212.251 95.7632 213.086C95.6252 213.389 95.309 213.498 95.4602 213.91C95.5517 214.16 95.7313 214.313 96.0011 214.362C96.5548 214.464 97.3377 213.861 97.8124 213.623C101.75 211.647 104.337 208.591 106.447 204.853C107.756 202.536 109.083 200.131 109.86 197.587C110.335 196.034 110.611 194.397 110.773 192.785C110.837 192.15 110.899 191.5 110.895 190.862C110.892 190.228 110.597 189.893 110.385 189.341C113.322 188.229 116.638 187.926 119.613 189.078C122.365 190.145 124.651 192.205 125.931 194.794C126.263 195.467 126.52 196.177 126.706 196.901C126.829 197.375 126.835 197.991 127.061 198.419C127.611 199.459 128.767 198.764 128.656 197.796C128.346 195.097 126.803 192.388 124.831 190.511C122.344 188.144 118.972 186.653 115.471 186.653Z" fill="#89C5CC"/>
</g>
<path id="Container_2" d="M217.927 30.8009H129.895C127.175 30.8009 124.97 33.0073 124.97 35.729V211.91C124.97 214.632 127.175 216.838 129.895 216.838H217.927C220.647 216.838 222.852 214.632 222.852 211.91V35.729C222.852 33.0073 220.647 30.8009 217.927 30.8009Z" fill="#DDE3E9"/>
<path id="Touch_2" d="M173.603 205.134C178.703 205.134 182.837 200.997 182.837 195.893C182.837 190.79 178.703 186.653 173.603 186.653C168.503 186.653 164.369 190.79 164.369 195.893C164.369 200.997 168.503 205.134 173.603 205.134Z" fill="white"/>
<g id="Camera_2">
<path id="Lens_2" d="M165.6 43.1212C166.28 43.1212 166.831 42.5696 166.831 41.8892C166.831 41.2087 166.28 40.6571 165.6 40.6571C164.92 40.6571 164.369 41.2087 164.369 41.8892C164.369 42.5696 164.92 43.1212 165.6 43.1212Z" fill="white"/>
<path id="Sensor_2" d="M181.606 40.6571H171.141C170.461 40.6571 169.909 41.2087 169.909 41.8892C169.909 42.5696 170.461 43.1212 171.141 43.1212H181.606C182.286 43.1212 182.837 42.5696 182.837 41.8892C182.837 41.2087 182.286 40.6571 181.606 40.6571Z" fill="white"/>
</g>
<g id="Rows_2">
<g id="Row_5">
<path id="Container_3" d="M211.771 48.0493H136.051C134.691 48.0493 133.588 49.1525 133.588 50.5134V78.8502C133.588 80.211 134.691 81.3142 136.051 81.3142H211.771C213.131 81.3142 214.234 80.211 214.234 78.8502V50.5134C214.234 49.1525 213.131 48.0493 211.771 48.0493Z" fill="white"/>
<g id="Text Stuff">
<path id="Label" d="M182.222 58.0288H140.976C139.956 58.0288 139.129 58.8562 139.129 59.8769V61.1705C139.129 62.1911 139.956 63.0185 140.976 63.0185H182.222C183.242 63.0185 184.069 62.1911 184.069 61.1705V59.8769C184.069 58.8562 183.242 58.0288 182.222 58.0288Z" fill="#DDE3E9"/>
<path id="Label_2" d="M167.447 66.345H140.976C139.956 66.345 139.129 67.1724 139.129 68.1931V69.4867C139.129 70.5074 139.956 71.3348 140.976 71.3348H167.447C168.467 71.3348 169.294 70.5074 169.294 69.4867V68.1931C169.294 67.1724 168.467 66.345 167.447 66.345Z" fill="#DDE3E9"/>
</g>
<g id="Check">
<path id="Background_5" d="M205.615 68.9939C207.995 68.9939 209.924 67.0633 209.924 64.6818C209.924 62.3003 207.995 60.3697 205.615 60.3697C203.235 60.3697 201.306 62.3003 201.306 64.6818C201.306 67.0633 203.235 68.9939 205.615 68.9939Z" fill="#DDE3E9"/>
<path id="Indicator" d="M205.615 66.5298C206.635 66.5298 207.462 65.7024 207.462 64.6818C207.462 63.6611 206.635 62.8337 205.615 62.8337C204.595 62.8337 203.768 63.6611 203.768 64.6818C203.768 65.7024 204.595 66.5298 205.615 66.5298Z" fill="#F2F2F2"/>
</g>
</g>
<g id="Row_6">
<path id="Background_6" d="M211.771 86.2424H136.051C134.691 86.2424 133.588 87.3456 133.588 88.7064V109.651C133.588 111.012 134.691 112.115 136.051 112.115H211.771C213.131 112.115 214.234 111.012 214.234 109.651V88.7064C214.234 87.3456 213.131 86.2424 211.771 86.2424Z" fill="white"/>
<g id="Text_5">
<path id="Name_9" d="M200.69 94.0042H159.444C158.424 94.0042 157.597 94.8316 157.597 95.8523V96.0371C157.597 97.0577 158.424 97.8851 159.444 97.8851H200.69C201.71 97.8851 202.537 97.0577 202.537 96.0371V95.8523C202.537 94.8316 201.71 94.0042 200.69 94.0042Z" fill="#DDE3E9"/>
<path id="Name_10" d="M185.915 100.472H159.444C158.424 100.472 157.597 101.3 157.597 102.32V102.505C157.597 103.526 158.424 104.353 159.444 104.353H185.915C186.935 104.353 187.762 103.526 187.762 102.505V102.32C187.762 101.3 186.935 100.472 185.915 100.472Z" fill="#DDE3E9"/>
</g>
<path id="Avatar_5" d="M146.516 106.571C150.596 106.571 153.904 103.261 153.904 99.1788C153.904 95.0961 150.596 91.7865 146.516 91.7865C142.436 91.7865 139.129 95.0961 139.129 99.1788C139.129 103.261 142.436 106.571 146.516 106.571Z" fill="#C5CFD6"/>
</g>
<g id="Row_7">
<path id="Container_4" d="M211.771 117.043H136.051C134.691 117.043 133.588 118.146 133.588 119.507V140.452C133.588 141.813 134.691 142.916 136.051 142.916H211.771C213.131 142.916 214.234 141.813 214.234 140.452V119.507C214.234 118.146 213.131 117.043 211.771 117.043Z" fill="white"/>
<g id="Text Stuff_2">
<path id="Label_3" d="M182.222 124.805H140.976C139.956 124.805 139.129 125.632 139.129 126.653V126.838C139.129 127.859 139.956 128.686 140.976 128.686H182.222C183.242 128.686 184.069 127.859 184.069 126.838V126.653C184.069 125.632 183.242 124.805 182.222 124.805Z" fill="#DDE3E9"/>
<path id="Label_4" d="M167.447 131.273H140.976C139.956 131.273 139.129 132.101 139.129 133.121V133.306C139.129 134.327 139.956 135.154 140.976 135.154H167.447C168.467 135.154 169.294 134.327 169.294 133.306V133.121C169.294 132.101 168.467 131.273 167.447 131.273Z" fill="#AFB9C5"/>
</g>
<g id="Check_2">
<path id="Background_7" d="M205.615 134.292C207.995 134.292 209.924 132.361 209.924 129.98C209.924 127.598 207.995 125.667 205.615 125.667C203.235 125.667 201.306 127.598 201.306 129.98C201.306 132.361 203.235 134.292 205.615 134.292Z" fill="#DDE3E9"/>
<path id="Indicator_2" d="M205.615 131.828C206.635 131.828 207.462 131 207.462 129.98C207.462 128.959 206.635 128.132 205.615 128.132C204.595 128.132 203.768 128.959 203.768 129.98C203.768 131 204.595 131.828 205.615 131.828Z" fill="#F2F2F2"/>
</g>
</g>
<g id="Row_8">
<path id="Background_8" d="M211.771 147.844H136.051C134.691 147.844 133.588 148.947 133.588 150.308V171.253C133.588 172.614 134.691 173.717 136.051 173.717H211.771C213.131 173.717 214.234 172.614 214.234 171.253V150.308C214.234 148.947 213.131 147.844 211.771 147.844Z" fill="white"/>
<g id="Text_6">
<path id="Name_11" d="M200.69 155.606H159.444C158.424 155.606 157.597 156.433 157.597 157.454V157.639C157.597 158.659 158.424 159.487 159.444 159.487H200.69C201.71 159.487 202.537 158.659 202.537 157.639V157.454C202.537 156.433 201.71 155.606 200.69 155.606Z" fill="#DDE3E9"/>
<path id="Name_12" d="M185.915 162.074H159.444C158.424 162.074 157.597 162.901 157.597 163.922V164.107C157.597 165.128 158.424 165.955 159.444 165.955H185.915C186.935 165.955 187.762 165.128 187.762 164.107V163.922C187.762 162.901 186.935 162.074 185.915 162.074Z" fill="#DDE3E9"/>
</g>
<path id="Avatar_6" d="M146.516 168.173C150.596 168.173 153.904 164.863 153.904 160.78C153.904 156.698 150.596 153.388 146.516 153.388C142.436 153.388 139.129 156.698 139.129 160.78C139.129 164.863 142.436 168.173 146.516 168.173Z" fill="#C5CFD6"/>
</g>
</g>
</g>
<g id="Web">
<path id="Container_5" d="M366.906 46.2013H170.525C167.805 46.2013 165.6 48.4077 165.6 51.1294V254.415C165.6 257.137 167.805 259.343 170.525 259.343H366.906C369.626 259.343 371.831 257.137 371.831 254.415V51.1294C371.831 48.4077 369.626 46.2013 366.906 46.2013Z" fill="#F2F2F2"/>
<path id="Background_9" d="M357.056 72.69H323.813C321.093 72.69 318.888 74.8964 318.888 77.6181V117.659C318.888 120.381 321.093 122.587 323.813 122.587H357.056C359.776 122.587 361.981 120.381 361.981 117.659V77.6181C361.981 74.8964 359.776 72.69 357.056 72.69Z" fill="white"/>
<g id="Profile Info">
<path id="Avatar_7" d="M340.435 101.643C345.874 101.643 350.284 97.23 350.284 91.7865C350.284 86.3431 345.874 81.9303 340.435 81.9303C334.995 81.9303 330.585 86.3431 330.585 91.7865C330.585 97.23 334.995 101.643 340.435 101.643Z" fill="#DDE3E9"/>
<path id="Name_13" d="M353.978 104.107H326.891C325.871 104.107 325.044 104.934 325.044 105.955C325.044 106.976 325.871 107.803 326.891 107.803H353.978C354.998 107.803 355.825 106.976 355.825 105.955C355.825 104.934 354.998 104.107 353.978 104.107Z" fill="#DDE3E9"/>
<path id="Name_14" d="M349.053 110.267H331.816C330.796 110.267 329.969 111.094 329.969 112.115C329.969 113.136 330.796 113.963 331.816 113.963H349.053C350.073 113.963 350.9 113.136 350.9 112.115C350.9 111.094 350.073 110.267 349.053 110.267Z" fill="#DDE3E9"/>
</g>
<path id="Header" fill-rule="evenodd" clip-rule="evenodd" d="M170.525 46.2013H366.906C369.626 46.2013 371.831 48.4077 371.831 51.1294V62.8337H165.6V51.1294C165.6 48.4077 167.805 46.2013 170.525 46.2013Z" fill="#C5CFD6"/>
<g id="Buttons">
<path id="buttons" d="M173.603 57.2896C174.963 57.2896 176.066 56.1864 176.066 54.8255C176.066 53.4646 174.963 52.3614 173.603 52.3614C172.243 52.3614 171.141 53.4646 171.141 54.8255C171.141 56.1864 172.243 57.2896 173.603 57.2896Z" fill="#F2F2F2"/>
<path id="buttons_2" d="M180.99 57.2896C182.35 57.2896 183.453 56.1864 183.453 54.8255C183.453 53.4646 182.35 52.3614 180.99 52.3614C179.63 52.3614 178.528 53.4646 178.528 54.8255C178.528 56.1864 179.63 57.2896 180.99 57.2896Z" fill="#F2F2F2"/>
<path id="buttons_3" d="M188.378 57.2896C189.738 57.2896 190.84 56.1864 190.84 54.8255C190.84 53.4646 189.738 52.3614 188.378 52.3614C187.018 52.3614 185.915 53.4646 185.915 54.8255C185.915 56.1864 187.018 57.2896 188.378 57.2896Z" fill="#F2F2F2"/>
</g>
<g id="Components">
<path id="Background_10" d="M357.056 127.516H323.813C321.093 127.516 318.888 129.722 318.888 132.444V242.095C318.888 244.816 321.093 247.023 323.813 247.023H357.056C359.776 247.023 361.981 244.816 361.981 242.095V132.444C361.981 129.722 359.776 127.516 357.056 127.516Z" fill="white"/>
<g id="Rows_3">
<path id="Data" d="M348.438 138.604H332.432C331.072 138.604 329.969 139.707 329.969 141.068V152.156C329.969 153.517 331.072 154.62 332.432 154.62H348.438C349.798 154.62 350.9 153.517 350.9 152.156V141.068C350.9 139.707 349.798 138.604 348.438 138.604Z" fill="#DDE3E9"/>
<path id="Data_2" d="M348.438 159.548H332.432C331.072 159.548 329.969 160.652 329.969 162.012V172.485C329.969 173.846 331.072 174.949 332.432 174.949H348.438C349.798 174.949 350.9 173.846 350.9 172.485V162.012C350.9 160.652 349.798 159.548 348.438 159.548Z" fill="#AFB9C5"/>
<path id="Data_3" d="M348.438 179.877H332.432C331.072 179.877 329.969 180.98 329.969 182.341V192.813C329.969 194.174 331.072 195.277 332.432 195.277H348.438C349.798 195.277 350.9 194.174 350.9 192.813V182.341C350.9 180.98 349.798 179.877 348.438 179.877Z" fill="#DDE3E9"/>
<path id="Data_4" d="M348.438 220.534H332.432C331.072 220.534 329.969 221.637 329.969 222.998V233.47C329.969 234.831 331.072 235.935 332.432 235.935H348.438C349.798 235.935 350.9 234.831 350.9 233.47V222.998C350.9 221.637 349.798 220.534 348.438 220.534Z" fill="#DDE3E9"/>
<path id="Data_5" d="M348.438 200.206H332.432C331.072 200.206 329.969 201.309 329.969 202.67V213.142C329.969 214.503 331.072 215.606 332.432 215.606H348.438C349.798 215.606 350.9 214.503 350.9 213.142V202.67C350.9 201.309 349.798 200.206 348.438 200.206Z" fill="#C5CFD6"/>
</g>
</g>
<g id="Rows_4">
<g id="Row_9">
<path id="Container_6" d="M311.501 73.306H177.912C176.552 73.306 175.45 74.4092 175.45 75.7701V99.7948C175.45 101.156 176.552 102.259 177.912 102.259H311.501C312.861 102.259 313.963 101.156 313.963 99.7948V75.7701C313.963 74.4092 312.861 73.306 311.501 73.306Z" fill="white"/>
<g id="Text Stuff_3">
<path id="Label_5" d="M281.951 81.9919H182.837C181.817 81.9919 180.99 82.8193 180.99 83.8399V84.4867C180.99 85.5074 181.817 86.3348 182.837 86.3348H281.951C282.971 86.3348 283.798 85.5074 283.798 84.4867V83.8399C283.798 82.8193 282.971 81.9919 281.951 81.9919Z" fill="#DDE3E9"/>
<path id="Label_6" d="M248.151 89.2301H182.837C181.817 89.2301 180.99 90.0575 180.99 91.0781V91.7249C180.99 92.7456 181.817 93.573 182.837 93.573H248.151C249.171 93.573 249.998 92.7456 249.998 91.7249V91.0781C249.998 90.0575 249.171 89.2301 248.151 89.2301Z" fill="#DDE3E9"/>
</g>
<g id="Check_3">
<path id="Background_11" d="M299.16 92.0945C301.54 92.0945 303.469 90.1639 303.469 87.7824C303.469 85.4009 301.54 83.4703 299.16 83.4703C296.78 83.4703 294.851 85.4009 294.851 87.7824C294.851 90.1639 296.78 92.0945 299.16 92.0945Z" fill="#DDE3E9"/>
<path id="Indicator_3" d="M299.16 89.6305C300.18 89.6305 301.007 88.8031 301.007 87.7824C301.007 86.7618 300.18 85.9344 299.16 85.9344C298.14 85.9344 297.313 86.7618 297.313 87.7824C297.313 88.8031 298.14 89.6305 299.16 89.6305Z" fill="#F2F2F2"/>
</g>
</g>
<g id="Row_10">
<path id="Container_7" d="M311.501 107.187H177.912C176.552 107.187 175.45 108.29 175.45 109.651V128.748C175.45 130.108 176.552 131.212 177.912 131.212H311.501C312.861 131.212 313.963 130.108 313.963 128.748V109.651C313.963 108.29 312.861 107.187 311.501 107.187Z" fill="white"/>
<g id="Text Stuff_4">
<path id="Label_7" d="M281.997 114.394H182.791C181.797 114.394 180.99 115.201 180.99 116.196C180.99 117.191 181.797 117.998 182.791 117.998H281.997C282.992 117.998 283.798 117.191 283.798 116.196C283.798 115.201 282.992 114.394 281.997 114.394Z" fill="#DDE3E9"/>
<path id="Label_8" d="M248.198 120.401H182.791C181.797 120.401 180.99 121.207 180.99 122.202C180.99 123.198 181.797 124.004 182.791 124.004H248.198C249.192 124.004 249.998 123.198 249.998 122.202C249.998 121.207 249.192 120.401 248.198 120.401Z" fill="#DDE3E9"/>
</g>
<g id="Check_4">
<path id="Background_12" d="M299.16 123.511C301.54 123.511 303.469 121.581 303.469 119.199C303.469 116.818 301.54 114.887 299.16 114.887C296.78 114.887 294.851 116.818 294.851 119.199C294.851 121.581 296.78 123.511 299.16 123.511Z" fill="#DDE3E9"/>
<path id="Indicator_4" d="M299.16 121.047C300.18 121.047 301.007 120.22 301.007 119.199C301.007 118.179 300.18 117.351 299.16 117.351C298.14 117.351 297.313 118.179 297.313 119.199C297.313 120.22 298.14 121.047 299.16 121.047Z" fill="#F2F2F2"/>
</g>
</g>
<g id="Row_11">
<path id="Container_8" d="M311.501 136.14H177.912C176.552 136.14 175.45 137.243 175.45 138.604V157.7C175.45 159.061 176.552 160.164 177.912 160.164H311.501C312.861 160.164 313.963 159.061 313.963 157.7V138.604C313.963 137.243 312.861 136.14 311.501 136.14Z" fill="white"/>
<g id="Text Stuff_5">
<path id="Label_9" d="M281.997 143.347H182.791C181.797 143.347 180.99 144.154 180.99 145.149C180.99 146.144 181.797 146.951 182.791 146.951H281.997C282.992 146.951 283.798 146.144 283.798 145.149C283.798 144.154 282.992 143.347 281.997 143.347Z" fill="#DDE3E9"/>
<path id="Label_10" d="M248.198 149.353H182.791C181.797 149.353 180.99 150.16 180.99 151.155C180.99 152.15 181.797 152.957 182.791 152.957H248.198C249.192 152.957 249.998 152.15 249.998 151.155C249.998 150.16 249.192 149.353 248.198 149.353Z" fill="#DDE3E9"/>
</g>
<g id="Check_5">
<path id="Background_13" d="M299.16 152.464C301.54 152.464 303.469 150.534 303.469 148.152C303.469 145.771 301.54 143.84 299.16 143.84C296.78 143.84 294.851 145.771 294.851 148.152C294.851 150.534 296.78 152.464 299.16 152.464Z" fill="#DDE3E9"/>
<path id="Indicator_5" d="M299.16 150C300.18 150 301.007 149.173 301.007 148.152C301.007 147.131 300.18 146.304 299.16 146.304C298.14 146.304 297.313 147.131 297.313 148.152C297.313 149.173 298.14 150 299.16 150Z" fill="#AFB9C5"/>
</g>
</g>
<g id="Row_12">
<path id="Container_9" d="M311.501 222.998H177.912C176.552 222.998 175.45 224.101 175.45 225.462V244.559C175.45 245.92 176.552 247.023 177.912 247.023H311.501C312.861 247.023 313.963 245.92 313.963 244.559V225.462C313.963 224.101 312.861 222.998 311.501 222.998Z" fill="white"/>
<g id="Text Stuff_6">
<path id="Label_11" d="M281.997 230.206H182.791C181.797 230.206 180.99 231.012 180.99 232.007C180.99 233.003 181.797 233.809 182.791 233.809H281.997C282.992 233.809 283.798 233.003 283.798 232.007C283.798 231.012 282.992 230.206 281.997 230.206Z" fill="#DDE3E9"/>
<path id="Label_12" d="M248.198 236.212H182.791C181.797 236.212 180.99 237.018 180.99 238.014C180.99 239.009 181.797 239.815 182.791 239.815H248.198C249.192 239.815 249.998 239.009 249.998 238.014C249.998 237.018 249.192 236.212 248.198 236.212Z" fill="#DDE3E9"/>
</g>
<g id="Check_6">
<path id="Background_14" d="M299.16 239.323C301.54 239.323 303.469 237.392 303.469 235.01C303.469 232.629 301.54 230.698 299.16 230.698C296.78 230.698 294.851 232.629 294.851 235.01C294.851 237.392 296.78 239.323 299.16 239.323Z" fill="#DDE3E9"/>
<path id="Indicator_6" d="M299.16 236.859C300.18 236.859 301.007 236.031 301.007 235.01C301.007 233.99 300.18 233.162 299.16 233.162C298.14 233.162 297.313 233.99 297.313 235.01C297.313 236.031 298.14 236.859 299.16 236.859Z" fill="#F2F2F2"/>
</g>
</g>
<g id="Row_13">
<path id="Container_10" d="M311.501 194.045H177.912C176.552 194.045 175.45 195.149 175.45 196.509V215.606C175.45 216.967 176.552 218.07 177.912 218.07H311.501C312.861 218.07 313.963 216.967 313.963 215.606V196.509C313.963 195.149 312.861 194.045 311.501 194.045Z" fill="white"/>
<g id="Text Stuff_7">
<path id="Label_13" d="M281.997 201.253H182.791C181.797 201.253 180.99 202.059 180.99 203.055C180.99 204.05 181.797 204.856 182.791 204.856H281.997C282.992 204.856 283.798 204.05 283.798 203.055C283.798 202.059 282.992 201.253 281.997 201.253Z" fill="#DDE3E9"/>
<path id="Label_14" d="M248.198 207.259H182.791C181.797 207.259 180.99 208.066 180.99 209.061C180.99 210.056 181.797 210.863 182.791 210.863H248.198C249.192 210.863 249.998 210.056 249.998 209.061C249.998 208.066 249.192 207.259 248.198 207.259Z" fill="#DDE3E9"/>
</g>
<g id="Check_7">
<path id="Background_15" d="M299.16 210.37C301.54 210.37 303.469 208.439 303.469 206.058C303.469 203.676 301.54 201.746 299.16 201.746C296.78 201.746 294.851 203.676 294.851 206.058C294.851 208.439 296.78 210.37 299.16 210.37Z" fill="#DDE3E9"/>
<path id="Indicator_7" d="M299.16 207.906C300.18 207.906 301.007 207.078 301.007 206.058C301.007 205.037 300.18 204.21 299.16 204.21C298.14 204.21 297.313 205.037 297.313 206.058C297.313 207.078 298.14 207.906 299.16 207.906Z" fill="#F2F2F2"/>
</g>
</g>
<g id="Row_14">
<path id="Container_11" d="M311.501 165.093H177.912C176.552 165.093 175.45 166.196 175.45 167.557V186.653C175.45 188.014 176.552 189.117 177.912 189.117H311.501C312.861 189.117 313.963 188.014 313.963 186.653V167.557C313.963 166.196 312.861 165.093 311.501 165.093Z" fill="white"/>
<g id="Text Stuff_8">
<path id="Label_15" d="M281.997 172.3H182.791C181.797 172.3 180.99 173.107 180.99 174.102C180.99 175.097 181.797 175.904 182.791 175.904H281.997C282.992 175.904 283.798 175.097 283.798 174.102C283.798 173.107 282.992 172.3 281.997 172.3Z" fill="#DDE3E9"/>
<path id="Label_16" d="M248.198 178.306H182.791C181.797 178.306 180.99 179.113 180.99 180.108C180.99 181.103 181.797 181.91 182.791 181.91H248.198C249.192 181.91 249.998 181.103 249.998 180.108C249.998 179.113 249.192 178.306 248.198 178.306Z" fill="#DDE3E9"/>
</g>
<g id="Check_8">
<path id="Background_16" d="M299.16 181.417C301.54 181.417 303.469 179.486 303.469 177.105C303.469 174.723 301.54 172.793 299.16 172.793C296.78 172.793 294.851 174.723 294.851 177.105C294.851 179.486 296.78 181.417 299.16 181.417Z" fill="#DDE3E9"/>
<path id="Indicator_8" d="M299.16 178.953C300.18 178.953 301.007 178.126 301.007 177.105C301.007 176.084 300.18 175.257 299.16 175.257C298.14 175.257 297.313 176.084 297.313 177.105C297.313 178.126 298.14 178.953 299.16 178.953Z" fill="#F2F2F2"/>
</g>
</g>
</g>
</g>
<path id="Fill 1" fill-rule="evenodd" clip-rule="evenodd" d="M422.918 151.156C420.49 149.508 417.261 149.076 414.355 149.076C403.005 149.076 392.338 153.29 383.122 159.568C378.072 163.008 373.555 167.389 369.566 171.95C367.264 174.583 365.212 177.432 363.758 180.6C362.778 182.738 362.105 184.966 361.649 187.264C361.093 190.064 360.651 192.921 360.451 195.768C360.372 196.889 359.721 202.839 361.584 202.939C361.574 203.086 361.571 203.226 361.582 203.351C357.538 209.68 355.038 217.097 352.721 224.129C350.705 230.248 348.908 236.419 347.742 242.75C346.206 251.084 345.198 259.544 344.718 267.998C344.615 269.815 344.544 271.633 344.483 273.452C344.432 275.004 344.379 276.556 344.329 278.107C344.272 279.846 343.966 281.849 344.242 283.577C344.483 285.083 345.785 284.855 345.842 283.357C345.912 281.548 345.901 279.735 345.98 277.924C346.085 275.521 346.193 273.118 346.311 270.715C347.129 254.026 350.198 237.583 355.862 221.818C358.155 215.438 360.781 209.399 364.157 203.498C367.125 198.309 370.695 193.286 374.345 188.608C377.892 184.061 381.579 179.62 385.926 175.768C389.452 172.642 393.332 169.919 397.319 167.386C402.384 164.167 407.44 161.028 412.926 158.557C415.778 157.273 418.684 156.124 421.558 154.892C422.075 154.67 422.63 154.455 423.127 154.198C424.786 153.342 424.24 152.053 422.918 151.156Z" fill="#C1DEE2"/>
<path id="Fill 20" fill-rule="evenodd" clip-rule="evenodd" d="M377.259 209.446C381.862 209.446 385.958 210.044 390.2 211.875C393.861 213.455 397.197 215.546 400.436 217.823C404.993 221.025 408.582 224.753 411.094 229.691C412.595 232.641 413.696 236.816 412.688 240.034C411.501 243.824 408.241 246.985 403.947 246.317C401.292 245.905 398.858 244.146 396.84 242.491C394.426 240.51 392.494 238.129 390.898 235.485C388.295 231.171 386.765 226.294 384.554 221.787C383.505 219.647 382.491 217.493 381.235 215.459C380.613 214.453 379.95 213.455 379.006 212.707C378.501 212.307 376.373 211.614 377.187 210.715C365.25 210.872 354.675 220.046 352.383 231.401C352.17 232.459 352.003 233.526 351.827 234.591C351.716 235.264 351.76 237.743 351.16 238.173C349.835 239.121 350.392 236.242 350.449 235.827C350.596 234.756 350.752 233.686 350.917 232.618C351.812 226.806 354.397 221.403 358.709 217.259C363.64 212.52 370.292 209.446 377.259 209.446Z" fill="#89C5CC"/>
<g id="Plant">
<path id="Fill 19" fill-rule="evenodd" clip-rule="evenodd" d="M45.5172 195.115C57.0085 214.406 70.3923 233.085 78.4297 254.176C78.1058 251.69 77.7624 249.207 77.378 246.727C75.3386 233.581 72.804 220.53 70.1405 207.496C68.7841 200.86 67.3496 194.247 65.8783 187.635C65.0869 184.084 64.3053 180.531 63.4977 176.983C63.302 176.123 63.1339 174.622 62.889 173.101C70.7001 198.75 78.2327 224.418 83.7425 250.683C84.4653 254.131 85.0808 257.571 85.585 261.006C85.7575 260.223 85.9271 259.439 86.1128 258.658C88.3422 249.29 91.6863 239.996 95.668 231.237C97.5716 227.048 99.758 222.951 102.332 219.133C103.938 216.754 107.724 213.925 109.188 211.488C101.179 226.187 98.2871 244.578 93.6627 260.559C92.5339 264.458 91.3982 268.352 90.2854 272.252C97.2592 258.257 108.079 246.759 123.123 241.776C104.913 253.816 93.9907 274.9 86.6305 296.464C86.6063 296.72 86.5774 296.976 86.5525 297.232C88.7183 293.119 91.4465 289.398 95.1441 286.793C103.058 281.215 111.837 282.84 119.513 287.624C113.489 283.792 102.6 287.282 97.5305 291.177C93.9014 293.965 90.7999 297.706 88.1066 301.355C87.4612 302.23 86.5808 303.251 85.6506 304.34C84.3465 312.811 82.2213 321.223 79.2126 329.569C79.7091 327.174 79.3501 323.342 79.4878 321.557C79.5028 321.363 79.5149 321.17 79.5298 320.977C79.0724 322.805 78.6306 324.611 78.2051 326.388C79.0508 322.997 79.5105 319.456 79.8693 315.879C79.9617 314.342 80.0518 312.804 80.1471 311.267C80.1169 308.349 79.9968 305.42 79.7937 302.487C79.0735 299.635 78.2671 296.946 77.6021 294.709C75.2025 286.639 71.6847 278.908 67.3548 271.695C63.4044 265.113 58.6756 259.151 53.2166 253.759C50.2737 250.853 47.1938 248.085 44.1573 245.279C43.0593 244.265 41.0967 241.771 39.3993 240.47C51.7611 247.29 64.4849 254.668 73.5028 265.656C72.4456 261.593 71.2972 257.588 70.0825 253.663C63.9199 233.75 56.1387 213.113 45.5172 195.115Z" fill="#DDE3E9"/>
<path id="Base" fill-rule="evenodd" clip-rule="evenodd" d="M57.8677 304.312C57.8677 326.426 59.6178 344.354 83.1079 344.354C106.598 344.354 108.348 326.426 108.348 304.312" fill="#C5CFD6"/>
</g>
<g id="Graph">
<path id="Value" d="M323.197 21.5606C323.197 20.5399 322.37 19.7125 321.351 19.7125C320.331 19.7125 319.504 20.5399 319.504 21.5606V33.2649C319.504 34.2856 320.331 35.113 321.351 35.113C322.37 35.113 323.197 34.2856 323.197 33.2649V21.5606Z" fill="#DDE3E9"/>
<path id="Value_2" d="M331.816 11.7043C331.816 10.6837 330.989 9.85628 329.969 9.85628C328.949 9.85628 328.122 10.6837 328.122 11.7043V33.2649C328.122 34.2856 328.949 35.113 329.969 35.113C330.989 35.113 331.816 34.2856 331.816 33.2649V11.7043Z" fill="#DDE3E9"/>
<path id="Value_3" d="M340.435 6.77619C340.435 5.75554 339.608 4.92814 338.588 4.92814C337.568 4.92814 336.741 5.75554 336.741 6.77619V33.2649C336.741 34.2856 337.568 35.113 338.588 35.113C339.608 35.113 340.435 34.2856 340.435 33.2649V6.77619Z" fill="#DDE3E9"/>
<path id="Value_4" d="M349.053 11.7043C349.053 10.6837 348.226 9.85628 347.206 9.85628C346.186 9.85628 345.359 10.6837 345.359 11.7043V33.2649C345.359 34.2856 346.186 35.113 347.206 35.113C348.226 35.113 349.053 34.2856 349.053 33.2649V11.7043Z" fill="#DDE3E9"/>
<path id="Value_5" d="M357.672 1.84805C357.672 0.827401 356.845 0 355.825 0C354.805 0 353.978 0.827401 353.978 1.84805V33.2649C353.978 34.2856 354.805 35.113 355.825 35.113C356.845 35.113 357.672 34.2856 357.672 33.2649V1.84805Z" fill="#C5CFD6"/>
</g>
<g id="Pie Chart">
<path id="Value_6" fill-rule="evenodd" clip-rule="evenodd" d="M16.6216 188.659C16.6216 181.797 22.1633 176.181 28.9338 176.181V188.659L20.5196 197.741C18.1261 195.521 16.6216 192.264 16.6216 188.659Z" fill="#F2F2F2"/>
<path id="Value_7" fill-rule="evenodd" clip-rule="evenodd" d="M28.6081 188.501H41.0417C41.0417 191.717 39.7306 194.731 37.6579 196.921C35.3782 199.316 32.1318 200.822 28.6081 200.822C25.3622 200.822 22.3912 199.522 20.1109 197.469L28.6081 188.501Z" fill="#AFB9C5"/>
<path id="Value_8" fill-rule="evenodd" clip-rule="evenodd" d="M41.2461 188.501C41.2461 181.726 35.7044 176.181 28.9338 176.181V188.501H41.2461ZM22.7777 176.181L27.7026 187.269L16.6216 182.341C17.7174 179.467 20.178 177.277 22.7777 176.181Z" fill="#C5CFD6"/>
</g>
<g id="Chart">
<path id="Value_9" fill-rule="evenodd" clip-rule="evenodd" d="M417.242 194.156C416.06 195.412 414.384 196.201 412.52 196.201C408.939 196.201 406.035 193.306 406.035 189.733C406.035 186.161 408.939 183.265 412.52 183.265V171.253C402.332 171.253 393.993 179.571 393.993 189.733C393.993 199.896 402.332 208.214 412.52 208.214C417.871 208.214 422.708 205.955 426.005 202.363L417.242 194.156Z" fill="#F2F2F2"/>
<path id="Value_10" fill-rule="evenodd" clip-rule="evenodd" d="M412.461 171.253V183.265C416.031 183.265 418.925 186.161 418.925 189.733H430.93C430.93 179.571 422.617 171.253 412.461 171.253Z" fill="#AFB9C5"/>
<path id="Value_11" fill-rule="evenodd" clip-rule="evenodd" d="M418.677 189.733C418.677 191.832 417.689 193.698 416.155 194.902L423.704 204.518C428.097 201.075 430.93 195.739 430.93 189.733H418.677Z" fill="#C5CFD6"/>
</g>
<g id="Chart_2">
<path id="Value_12" fill-rule="evenodd" clip-rule="evenodd" d="M299.835 24.3351C298.925 25.2985 297.636 25.9035 296.203 25.9035C293.448 25.9035 291.215 23.6833 291.215 20.9446C291.215 18.2058 293.448 15.9856 296.203 15.9856V6.77619C288.366 6.77619 281.951 13.1534 281.951 20.9446C281.951 28.7358 288.366 35.113 296.203 35.113C300.319 35.113 304.04 33.3816 306.576 30.6273L299.835 24.3351Z" fill="#F2F2F2"/>
<path id="Value_13" fill-rule="evenodd" clip-rule="evenodd" d="M296.11 6.7762V15.9856C298.847 15.9856 301.066 18.2058 301.066 20.9446H310.269C310.269 13.1534 303.896 6.7762 296.11 6.7762Z" fill="#AFB9C5"/>
<path id="Value_14" fill-rule="evenodd" clip-rule="evenodd" d="M301.08 20.9446C301.08 22.5187 300.339 23.9178 299.188 24.8212L304.85 32.0329C308.145 29.451 310.269 25.4489 310.269 20.9446H301.08Z" fill="#C5CFD6"/>
</g>
<g id="Image">
<path id="Fill 35" fill-rule="evenodd" clip-rule="evenodd" d="M75.7253 35.1047C75.7227 35.1112 75.7201 35.1177 75.7162 35.1255C75.7201 35.119 75.7253 35.093 75.7253 35.1047Z" fill="#C5CFD6"/>
<path id="Fill 37" fill-rule="evenodd" clip-rule="evenodd" d="M75.7192 35.1144C75.7192 35.1157 75.7179 35.1183 75.7179 35.1209C75.7179 35.1144 75.7296 35.0948 75.7192 35.1144Z" fill="#C5CFD6"/>
<path id="Fill 39" fill-rule="evenodd" clip-rule="evenodd" d="M75.7625 35.0097C75.7538 35.0345 75.7427 35.058 75.7327 35.0828C75.7377 35.0704 75.7427 35.0605 75.7476 35.0481C75.6186 35.3704 75.7005 35.1609 75.7625 35.0097Z" fill="#C5CFD6"/>
<path id="Fill 41" fill-rule="evenodd" clip-rule="evenodd" d="M75.7346 35.0839C75.7297 35.0951 75.7247 35.1076 75.7197 35.1188C75.6835 35.1887 75.7346 35.0839 75.7346 35.0839Z" fill="#C5CFD6"/>
<path id="Fill 45" fill-rule="evenodd" clip-rule="evenodd" d="M75.7199 35.1157C75.7199 35.1137 75.7199 35.1137 75.7219 35.1117C75.7199 35.1137 75.7199 35.1137 75.7199 35.1157Z" fill="#C5CFD6"/>
<path id="Fill 47" fill-rule="evenodd" clip-rule="evenodd" d="M75.7141 35.1243C75.7063 35.1399 75.7506 35.0644 75.7141 35.1243V35.1243Z" fill="#C5CFD6"/>
<path id="Fill 49" fill-rule="evenodd" clip-rule="evenodd" d="M75.7193 35.1157L75.7233 35.1117C75.7213 35.1137 75.7213 35.1157 75.7193 35.1157Z" fill="#C5CFD6"/>
<path id="Photo Background" d="M102.192 3.08009H48.6335C47.2735 3.08009 46.1711 4.18329 46.1711 5.54416V39.4251C46.1711 40.786 47.2735 41.8892 48.6335 41.8892H102.192C103.552 41.8892 104.654 40.786 104.654 39.4251V5.54416C104.654 4.18329 103.552 3.08009 102.192 3.08009Z" fill="#DDE3E9"/>
<g id="icons8 night landscape">
<path id="Mountains" fill-rule="evenodd" clip-rule="evenodd" d="M68.3332 14.1684L51.096 41.8892H85.5704L68.3332 14.1684Z" fill="#AFB9C5"/>
<path id="Mountains_2" fill-rule="evenodd" clip-rule="evenodd" d="M85.2625 21.5606L70.18 41.8892H100.345L85.2625 21.5606Z" fill="#C5CFD6"/>
</g>
<path id="Sun" d="M91.7265 21.5606C94.7864 21.5606 97.267 19.0784 97.267 16.0164C97.267 12.9545 94.7864 10.4723 91.7265 10.4723C88.6666 10.4723 86.186 12.9545 86.186 16.0164C86.186 19.0784 88.6666 21.5606 91.7265 21.5606Z" fill="white"/>
</g>
<g id="Image_2">
<path id="Fill 35_2" fill-rule="evenodd" clip-rule="evenodd" d="M369.364 298.144C369.366 298.15 369.369 298.157 369.373 298.165C369.369 298.158 369.364 298.132 369.364 298.144Z" fill="#C5CFD6"/>
<path id="Fill 37_2" fill-rule="evenodd" clip-rule="evenodd" d="M369.37 298.154C369.37 298.155 369.371 298.158 369.371 298.16C369.371 298.154 369.359 298.134 369.37 298.154Z" fill="#C5CFD6"/>
<path id="Fill 39_2" fill-rule="evenodd" clip-rule="evenodd" d="M369.326 298.049C369.335 298.074 369.346 298.097 369.356 298.122C369.351 298.11 369.346 298.1 369.341 298.087C369.47 298.41 369.388 298.2 369.326 298.049Z" fill="#C5CFD6"/>
<path id="Fill 41_2" fill-rule="evenodd" clip-rule="evenodd" d="M369.354 298.123C369.359 298.134 369.364 298.147 369.369 298.158C369.405 298.228 369.354 298.123 369.354 298.123Z" fill="#C5CFD6"/>
<path id="Fill 45_2" fill-rule="evenodd" clip-rule="evenodd" d="M369.369 298.155C369.369 298.153 369.369 298.153 369.367 298.151C369.369 298.153 369.369 298.153 369.369 298.155Z" fill="#C5CFD6"/>
<path id="Fill 47_2" fill-rule="evenodd" clip-rule="evenodd" d="M369.375 298.164C369.383 298.179 369.338 298.104 369.375 298.164V298.164Z" fill="#C5CFD6"/>
<path id="Fill 49_2" fill-rule="evenodd" clip-rule="evenodd" d="M369.37 298.155L369.366 298.151C369.368 298.153 369.368 298.155 369.37 298.155Z" fill="#C5CFD6"/>
<path id="Photo Background_2" d="M328.122 250.719H410.615C411.974 250.719 413.077 251.822 413.077 253.183V306.16C413.077 307.521 411.974 308.625 410.615 308.625H328.122C326.762 308.625 325.66 307.521 325.66 306.16V253.183C325.66 251.822 326.762 250.719 328.122 250.719Z" fill="#DDE3E9"/>
<g id="icons8 night landscape_2">
<path id="Mountains_3" fill-rule="evenodd" clip-rule="evenodd" d="M380.618 267.351L405.892 308.625H355.344L380.618 267.351Z" fill="#AFB9C5"/>
<path id="Mountains_4" fill-rule="evenodd" clip-rule="evenodd" d="M354.559 278.407L376.903 308.625H332.216L354.559 278.407Z" fill="#C5CFD6"/>
</g>
<path id="Sun_2" d="M345.052 278.44C340.462 278.44 336.741 274.716 336.741 270.123C336.741 265.531 340.462 261.807 345.052 261.807C349.642 261.807 353.362 265.531 353.362 270.123C353.362 274.716 349.642 278.44 345.052 278.44Z" fill="white"/>
</g>
</g>
</svg>
