<svg width="659" height="489" viewBox="0 0 659 489" fill="none" xmlns="http://www.w3.org/2000/svg">
<g id="Asset 90" clip-path="url(#clip0)">
<g id="Layer 2">
<g id="Layer 1">
<path id="Vector" d="M392.062 38.6689H13.4493C1.95655 38.6689 -7.36017 47.9781 -7.36017 59.4616V153.279C-7.36017 164.762 1.95655 174.071 13.4493 174.071H392.062C403.554 174.071 412.871 164.762 412.871 153.279V59.4616C412.871 47.9781 403.554 38.6689 392.062 38.6689Z" fill="#1DCDFF"/>
<path id="Vector_2" d="M412.871 123.415V165.961C412.871 170.443 403.834 174.071 392.752 174.071H12.7839C1.6685 174.071 -7.33551 170.443 -7.33551 165.961V141.335C18.2799 148.115 47.4444 152.687 77.3564 155.527C113.504 158.959 150.761 159.96 187.861 160.108C232.224 160.288 277.326 159.213 319.085 153.196C357.352 147.705 392.834 137.559 412.871 123.415Z" fill="#1AB5E1"/>
<path id="Vector_3" d="M144.574 39.013C104.985 41.689 49.9992 39.1033 15.8316 48.9455C-0.360832 53.5998 -4.36992 62.6458 -6.97418 70.1239L-6.93311 49.1918C-6.93311 46.5075 -6.70308 43.5852 -2.40645 41.533C2.90888 39.0048 12.2497 38.8078 20.4733 38.816C60.8517 38.8242 104.993 37.0511 144.574 39.013Z" fill="#4ED9FF"/>
<path id="Vector_4" d="M391.667 38.832H13.0551C1.56232 38.832 -7.75439 48.1412 -7.75439 59.6247V153.442C-7.75439 164.925 1.56232 174.234 13.0551 174.234H391.667C403.16 174.234 412.477 164.925 412.477 153.442V59.6247C412.477 48.1412 403.16 38.832 391.667 38.832Z" stroke="#314E5D" stroke-width="8" stroke-miterlimit="10"/>
<path id="Vector_5" d="M581.836 248.811H149.06C137.567 248.811 128.251 258.12 128.251 269.603V363.42C128.251 374.904 137.567 384.213 149.06 384.213H581.836C593.329 384.213 602.646 374.904 602.646 363.42V269.603C602.646 258.12 593.329 248.811 581.836 248.811Z" fill="#1DCDFF"/>
<path id="Vector_6" d="M602.646 333.558V376.103C602.646 380.585 592.475 384.213 579.93 384.213H150.966C138.421 384.213 128.251 380.585 128.251 376.103V351.477C157.169 358.258 190.096 362.83 223.861 365.67C264.625 369.101 306.721 370.103 348.611 370.25C398.675 370.431 449.61 369.356 496.75 363.339C539.971 357.847 580.029 347.701 602.646 333.558Z" fill="#1AB5E1"/>
<path id="Vector_7" d="M299.762 249.156C255.071 251.832 192.963 249.246 154.425 259.088C136.129 263.751 131.619 272.797 128.669 280.275L128.727 259.334C128.727 256.65 128.982 253.728 133.837 251.676C139.842 249.147 150.383 248.95 159.666 248.959C205.245 248.967 255.087 247.194 299.762 249.156Z" fill="#4ED9FF"/>
<path id="Vector_8" d="M581.384 248.975H148.608C137.115 248.975 127.799 258.284 127.799 269.767V363.584C127.799 375.068 137.115 384.377 148.608 384.377H581.384C592.877 384.377 602.194 375.068 602.194 363.584V269.767C602.194 258.284 592.877 248.975 581.384 248.975Z" stroke="#314E5D" stroke-width="8" stroke-miterlimit="10"/>
<path id="Vector_9" d="M523.113 -7.43945H74.4895C67.2935 -7.43945 61.46 -1.61065 61.46 5.57954V427.219C61.46 434.409 67.2935 440.238 74.4895 440.238H523.113C530.309 440.238 536.142 434.409 536.142 427.219V5.57954C536.142 -1.61065 530.309 -7.43945 523.113 -7.43945Z" fill="white"/>
<path id="Vector_10" d="M538.196 10.6027V76.5432H63.522V10.6027C63.522 -0.364074 69.3549 -9.27051 76.5515 -9.27051H525.167C532.363 -9.27051 538.196 -0.364074 538.196 10.6027Z" fill="#DCEAEF"/>
<path id="Vector_11" d="M522.546 -8.18652H73.9226C66.7266 -8.18652 60.8931 -2.35772 60.8931 4.83247V429.706C60.8931 436.896 66.7266 442.725 73.9226 442.725H522.546C529.742 442.725 535.576 436.896 535.576 429.706V4.83247C535.576 -2.35772 529.742 -8.18652 522.546 -8.18652Z" stroke="#314E5D" stroke-width="8" stroke-miterlimit="10"/>
<path id="Vector_12" d="M105.617 47.8122C111.062 47.8122 115.476 43.402 115.476 37.9618C115.476 32.5215 111.062 28.1113 105.617 28.1113C100.173 28.1113 95.7589 32.5215 95.7589 37.9618C95.7589 43.402 100.173 47.8122 105.617 47.8122Z" fill="#EEA248"/>
<path id="Vector_13" d="M137.657 47.8122C143.102 47.8122 147.516 43.402 147.516 37.9618C147.516 32.5215 143.102 28.1113 137.657 28.1113C132.213 28.1113 127.799 32.5215 127.799 37.9618C127.799 43.402 132.213 47.8122 137.657 47.8122Z" fill="#EEA248"/>
<path id="Vector_14" d="M169.697 47.8122C175.142 47.8122 179.556 43.402 179.556 37.9618C179.556 32.5215 175.142 28.1113 169.697 28.1113C164.252 28.1113 159.839 32.5215 159.839 37.9618C159.839 43.402 164.252 47.8122 169.697 47.8122Z" fill="#EEA248"/>
<path id="Vector_15" d="M149.019 173.127C149.019 163.736 152.239 158.466 158.417 158.466C164.595 158.466 167.816 163.736 167.816 173.127C167.816 182.517 164.595 187.828 158.417 187.828C152.239 187.828 149.019 182.558 149.019 173.127ZM163.905 173.127C163.905 164.844 161.892 161.47 158.425 161.47C154.958 161.47 152.946 164.844 152.946 173.127C152.946 181.409 155.008 184.824 158.425 184.824C161.843 184.824 163.905 181.434 163.905 173.127ZM158.417 170.451C158.954 170.446 159.48 170.601 159.928 170.895C160.376 171.19 160.726 171.612 160.934 172.106C161.142 172.601 161.197 173.146 161.094 173.672C160.99 174.198 160.732 174.682 160.353 175.061C159.973 175.44 159.49 175.698 158.963 175.801C158.436 175.904 157.891 175.849 157.396 175.641C156.901 175.434 156.479 175.084 156.184 174.636C155.889 174.188 155.734 173.663 155.739 173.127C155.737 172.775 155.805 172.426 155.938 172.1C156.072 171.774 156.269 171.478 156.519 171.229C156.768 170.981 157.064 170.783 157.39 170.65C157.716 170.516 158.065 170.448 158.417 170.451Z" fill="#426372"/>
<path id="Vector_16" d="M183.006 163.121L176.204 167.225L174.388 164.59L183.425 158.942H186.76V184.274H192.569V187.328H176.047V184.274H183.014V163.121H183.006Z" fill="#426372"/>
<path id="Vector_17" d="M239.618 162.792L241.434 165.632L227.007 174.448L241.434 183.297L239.454 186.064L223.738 176.262V172.601L239.618 162.792Z" fill="#426372"/>
<path id="Vector_18" d="M262.44 187.336V174.046H252.13V187.344H248.219V158.967H252.13V170.828H262.432V158.967H266.342V187.344L262.44 187.336Z" fill="#426372"/>
<path id="Vector_19" d="M283.89 162.258V187.344H279.98V162.258H271.206V158.975H292.804L292.393 162.258H283.89Z" fill="#426372"/>
<path id="Vector_20" d="M314.18 187.336L313.359 172.799C313.153 168.801 313.153 164.196 313.194 163.285H313.063L308.536 182.255H304.782L300.083 163.268H299.918C299.918 164.212 300 169.121 299.836 172.782L299.138 187.32H295.515L297.158 158.942H302.35L306.721 177.888H306.885L311.05 158.942H316.283L317.926 187.32L314.18 187.336Z" fill="#426372"/>
<path id="Vector_21" d="M324.466 187.336V158.967H328.376V183.897H341.274L340.823 187.311L324.466 187.336Z" fill="#426372"/>
<path id="Vector_22" d="M365.017 172.594V176.255L349.309 186.056L347.329 183.289L361.756 174.441L347.329 165.624L349.145 162.784L365.017 172.594Z" fill="#426372"/>
<path id="Vector_23" d="M149.019 222.527C149.019 213.136 152.239 207.866 158.417 207.866C164.595 207.866 167.816 213.136 167.816 222.527C167.816 231.918 164.595 237.253 158.417 237.253C152.239 237.253 149.019 231.951 149.019 222.527ZM163.905 222.527C163.905 214.244 161.892 210.871 158.425 210.871C154.958 210.871 152.946 214.244 152.946 222.527C152.946 230.81 155.008 234.224 158.425 234.224C161.843 234.224 163.905 230.842 163.905 222.527ZM158.417 219.851C158.954 219.846 159.48 220.001 159.928 220.296C160.376 220.591 160.726 221.012 160.934 221.507C161.142 222.001 161.197 222.546 161.094 223.072C160.99 223.598 160.732 224.082 160.353 224.461C159.973 224.84 159.49 225.098 158.963 225.201C158.436 225.305 157.891 225.249 157.396 225.042C156.901 224.834 156.479 224.484 156.184 224.037C155.889 223.589 155.734 223.063 155.739 222.527C155.736 222.174 155.803 221.824 155.936 221.498C156.069 221.171 156.266 220.874 156.516 220.625C156.765 220.375 157.061 220.177 157.388 220.043C157.714 219.908 158.064 219.841 158.417 219.843V219.851Z" fill="#426372"/>
<path id="Vector_24" d="M178.644 233.559H191.542L191.09 236.728H174.191V233.723C184 224.004 187.015 220.089 187.015 215.804C187.055 215.162 186.958 214.52 186.729 213.919C186.5 213.319 186.146 212.774 185.689 212.321C185.232 211.869 184.684 211.519 184.081 211.296C183.478 211.073 182.834 210.981 182.193 211.026C179.843 211.026 178.233 211.897 176.499 214.072L173.862 212.217C176.089 209.459 178.89 207.85 182.398 207.85C187.59 207.85 190.934 211.133 190.934 215.681C190.925 220.631 187.007 225.572 178.644 233.559Z" fill="#426372"/>
<path id="Vector_25" d="M239.618 212.184L241.434 215.024L227.007 223.84L241.434 232.689L239.454 235.455L223.746 225.654V221.985L239.618 212.184Z" fill="#426372"/>
<path id="Vector_26" d="M256.541 236.736H248.712V208.358H255.958C261.027 208.358 266.104 210 266.104 215.525C266.134 216.954 265.655 218.348 264.752 219.458C263.85 220.567 262.582 221.32 261.175 221.583V221.747C264.017 222.28 267.361 223.93 267.361 228.626C267.295 234.84 261.857 236.736 256.541 236.736ZM256.624 211.445H252.623V220.335H256.952C260.238 220.335 262.07 218.972 262.07 215.763C262.07 212.553 260.008 211.445 256.624 211.445ZM257.24 223.471H252.623V233.567H257.075C259.844 233.567 263.179 232.746 263.179 228.708C263.179 224.669 260.501 223.471 257.24 223.471Z" fill="#426372"/>
<path id="Vector_27" d="M282.001 237.253C275.034 237.253 271.452 231.449 271.452 222.633C271.452 213.989 275.034 207.857 282.001 207.857C288.967 207.857 292.549 213.751 292.549 222.559C292.557 231.211 288.959 237.253 282.001 237.253ZM282.001 211.1C277.384 211.1 275.527 215.139 275.527 222.592C275.527 230.046 277.507 234.002 282.001 234.002C286.618 234.002 288.466 230.046 288.466 222.51C288.466 214.974 286.618 211.067 282.001 211.067V211.1Z" fill="#426372"/>
<path id="Vector_28" d="M304.281 236.736H297.643V208.358H303.829C310.549 208.358 317.22 210.624 317.22 222.403C317.22 234.183 310.302 236.736 304.281 236.736ZM304.7 211.494H301.57V233.658H304.741C308.783 233.658 313.063 231.597 313.063 222.42C313.063 212.766 308.536 211.486 304.7 211.486V211.494Z" fill="#426372"/>
<path id="Vector_29" d="M333.412 225.819V236.736H329.453V225.86L319.89 208.351H324.219L331.482 222.223H331.613L338.908 208.351H343.016L333.412 225.819Z" fill="#426372"/>
<path id="Vector_30" d="M365.017 221.985V225.646L349.309 235.447L347.329 232.681L361.756 223.832L347.329 215.016L349.145 212.176L365.017 221.985Z" fill="#426372"/>
<path id="Vector_31" d="M149.019 271.919C149.019 262.528 152.239 257.258 158.417 257.258C164.595 257.258 167.816 262.528 167.816 271.919C167.816 281.309 164.595 286.62 158.417 286.62C152.239 286.62 149.019 281.35 149.019 271.919ZM163.905 271.919C163.905 263.636 161.892 260.262 158.425 260.262C154.958 260.262 152.946 263.636 152.946 271.919C152.946 280.201 155.008 283.616 158.425 283.616C161.843 283.616 163.905 280.234 163.905 271.919ZM158.417 269.267C158.954 269.262 159.48 269.417 159.928 269.712C160.376 270.007 160.726 270.428 160.934 270.923C161.142 271.417 161.197 271.962 161.094 272.489C160.99 273.015 160.732 273.498 160.353 273.877C159.973 274.257 159.49 274.514 158.963 274.618C158.436 274.721 157.891 274.666 157.396 274.458C156.901 274.251 156.479 273.901 156.184 273.453C155.889 273.005 155.734 272.479 155.739 271.943C155.737 271.591 155.805 271.242 155.938 270.917C156.072 270.591 156.269 270.295 156.519 270.046C156.768 269.797 157.064 269.6 157.39 269.466C157.716 269.333 158.065 269.265 158.417 269.267Z" fill="#426372"/>
<path id="Vector_32" d="M182.02 286.62C180.353 286.671 178.696 286.355 177.165 285.694C175.635 285.032 174.269 284.043 173.164 282.795L175.628 280.735C176.406 281.627 177.369 282.34 178.45 282.823C179.531 283.307 180.704 283.549 181.888 283.534C185.717 283.534 188.034 281.391 188.034 277.927C188.034 273.971 185.569 272.657 182.283 272.657H180.098L180.549 269.735H182.02C184.739 269.735 187.294 268.216 187.294 264.916C187.294 261.904 184.986 260.254 182.061 260.254C179.596 260.254 177.953 261.124 176.088 262.848L174.026 260.582C176.216 258.429 179.169 257.228 182.242 257.241C187.68 257.241 191.065 260.525 191.065 264.366C191.067 265.917 190.53 267.42 189.546 268.618C188.561 269.816 187.19 270.634 185.668 270.933V271.098C187.415 271.181 189.058 271.95 190.24 273.239C191.422 274.527 192.046 276.23 191.977 277.976C191.993 282.869 187.992 286.62 182.02 286.62Z" fill="#426372"/>
<path id="Vector_33" d="M239.618 261.575L241.434 264.415L227.007 273.232L241.434 282.081L239.445 284.863L223.738 275.013V271.352L239.618 261.575Z" fill="#426372"/>
<path id="Vector_34" d="M262.44 286.127V272.829H252.13V286.127H248.219V257.774H252.13V269.636H262.432V257.774H266.342V286.152H262.432L262.44 286.127Z" fill="#426372"/>
<path id="Vector_35" d="M278.139 260.869V270.137H288.606V273.264H278.139V283.024H290.964V286.111H274.254V257.774H290.684L290.232 260.902L278.139 260.869Z" fill="#426372"/>
<path id="Vector_36" d="M312.077 279.002H301.142L298.957 286.127H295.047L304.239 257.774H309.169L318.395 286.127H314.287L312.077 279.002ZM302.104 275.834H311.14L306.729 261.296H306.564L302.104 275.834Z" fill="#426372"/>
<path id="Vector_37" d="M329.001 286.127H322.363V257.774H328.549C335.269 257.774 341.94 260.04 341.94 271.819C341.94 283.599 335.014 286.127 329.001 286.127ZM329.411 260.877H326.281V283.041H329.453C333.494 283.041 337.775 280.98 337.775 271.803C337.783 262.158 333.289 260.869 329.411 260.869V260.877Z" fill="#426372"/>
<path id="Vector_38" d="M352.316 260.869V270.137H362.757V273.264H352.316V283.024H365.14V286.111H348.405V257.774H364.836L364.384 260.902L352.316 260.869Z" fill="#426372"/>
<path id="Vector_39" d="M383.961 273.609L392.283 286.127H387.625L380.01 274.102H376.387V286.127H372.476V257.774H379.936C387.026 257.774 390.731 260.483 390.731 265.803C390.755 270.022 387.79 272.616 383.961 273.609ZM380.33 260.795H376.419V271.089H380.379C384.339 271.089 386.598 269.611 386.598 265.778C386.582 262.232 384.569 260.795 380.322 260.795H380.33Z" fill="#426372"/>
<path id="Vector_40" d="M414.448 271.385V275.013L398.741 284.863L396.761 282.097L411.187 273.248L396.761 264.432L398.576 261.592L414.448 271.385Z" fill="#426372"/>
<path id="Vector_41" d="M149.019 321.31C149.019 311.919 152.239 306.649 158.417 306.649C164.595 306.649 167.807 311.952 167.807 321.31C167.807 330.668 164.587 336.012 158.409 336.012C152.231 336.012 149.019 330.742 149.019 321.31ZM163.905 321.31C163.905 313.028 161.892 309.654 158.425 309.654C154.958 309.654 152.946 313.028 152.946 321.31C152.946 329.593 155.008 333.007 158.425 333.007C161.843 333.007 163.905 329.626 163.905 321.31ZM158.417 318.634C158.953 318.631 159.479 318.787 159.926 319.083C160.373 319.379 160.722 319.801 160.928 320.296C161.135 320.79 161.189 321.335 161.085 321.861C160.98 322.386 160.722 322.869 160.342 323.247C159.962 323.626 159.478 323.883 158.952 323.985C158.425 324.088 157.88 324.032 157.386 323.824C156.891 323.617 156.47 323.267 156.175 322.819C155.881 322.371 155.726 321.846 155.731 321.31C155.729 320.957 155.797 320.608 155.931 320.282C156.065 319.955 156.263 319.659 156.513 319.41C156.763 319.161 157.06 318.964 157.387 318.831C157.714 318.698 158.064 318.631 158.417 318.634Z" fill="#426372"/>
<path id="Vector_42" d="M188.905 328.723V335.52H185.241V328.723H173.616V326.047L181.938 306.642L185.109 307.963L177.6 325.719H185.224L185.602 318.331H188.888V325.719H192.47V328.731L188.905 328.723Z" fill="#426372"/>
<path id="Vector_43" d="M239.618 310.967L241.434 313.807L227.007 322.623L241.434 331.472L239.454 334.238L223.746 324.437V320.776L239.618 310.967Z" fill="#426372"/>
<path id="Vector_44" d="M250.035 339.804L246.979 338.442L264.576 302.159L267.591 303.604L250.035 339.804Z" fill="#426372"/>
<path id="Vector_45" d="M287.177 335.519V322.221H276.842V335.519H272.931V307.142H276.842V319.003H287.177V307.142H291.087V335.519H287.177Z" fill="#426372"/>
<path id="Vector_46" d="M302.884 310.31V319.578H313.351V322.705H302.884V332.465H315.708V335.552H298.974V307.142H315.404L314.953 310.269L302.884 310.31Z" fill="#426372"/>
<path id="Vector_47" d="M336.789 328.37H325.862L323.677 335.495H319.767L328.96 307.117H333.889L343.082 335.495H338.974L336.789 328.37ZM326.815 325.201H335.852L331.441 310.663H331.268L326.815 325.201Z" fill="#426372"/>
<path id="Vector_48" d="M353.721 335.519H347.083V307.142H353.269C359.989 307.142 366.66 309.407 366.66 321.187C366.66 332.966 359.743 335.519 353.721 335.519ZM354.131 310.31H351.001V332.474H354.173C358.214 332.474 362.495 330.413 362.495 321.236C362.495 311.55 358.001 310.31 354.131 310.31Z" fill="#426372"/>
<path id="Vector_49" d="M377.028 310.31V319.578H387.494V322.705H377.028V332.465H389.868V335.552H373.117V307.142H389.548L389.047 310.31H377.028Z" fill="#426372"/>
<path id="Vector_50" d="M408.673 322.993L416.979 335.519H412.321L404.738 323.493H401.107V335.519H397.196V307.142H404.656C411.746 307.142 415.451 309.85 415.451 315.17C415.475 319.414 412.51 322.008 408.673 322.993ZM405.05 310.187H401.14V320.489H405.099C409.059 320.489 411.318 319.011 411.318 315.178C411.31 311.632 409.289 310.187 405.042 310.187H405.05Z" fill="#426372"/>
<path id="Vector_51" d="M439.16 320.776V324.437L423.453 334.238L421.473 331.472L435.874 322.623L421.448 313.807L423.264 310.967L439.16 320.776Z" fill="#426372"/>
</g>
</g>
</g>
<defs>
<clipPath id="clip0">
<rect width="659" height="489" fill="white"/>
</clipPath>
</defs>
</svg>
