<svg width="402" height="341" viewBox="0 0 402 341" fill="none" xmlns="http://www.w3.org/2000/svg">
<g id="Scene/Whiteboard">
<path id="Background Shape" fill-rule="evenodd" clip-rule="evenodd" d="M5.70976 280.641C15.7481 228.912 117.325 258.381 183.917 242.389C250.509 226.397 329.294 151.918 381.435 188.402C433.575 224.885 378.098 313.076 258.509 332.977C138.921 352.879 -4.32861 332.37 5.70976 280.641Z" fill="#F2F2F2"/>
<g id="Cells" opacity="0.5">
<path id="Fill 5" opacity="0.5" fill-rule="evenodd" clip-rule="evenodd" d="M32.2407 39.0375C31.2724 40.0049 31.6485 43.4432 31.6282 44.7156C31.5971 46.6965 31.7203 48.6596 31.8857 50.6333C31.9966 51.9549 32.6217 64.5662 34.3612 63.5976C35.3419 63.0519 34.7271 59.4037 34.7254 58.2498C34.7214 55.6844 34.6148 53.1253 34.4438 50.5657C34.2849 48.1893 34.1852 45.8407 34.2766 43.4598C34.2989 42.8787 34.8423 36.4295 32.2407 39.0375Z" fill="#89C5CC"/>
<path id="Fill 7" opacity="0.5" fill-rule="evenodd" clip-rule="evenodd" d="M74.412 37.4828C66.0929 37.5491 57.7772 37.9597 49.4621 38.2113C45.4609 38.3324 41.4623 38.4863 37.4654 38.7081C36.1034 38.7838 33.1823 38.3475 32.0476 39.0736C29.5287 40.6859 33.5911 41.0628 34.674 41.0234C51.1296 40.4263 67.5909 39.6399 84.0604 39.6028C92.1395 39.5848 100.214 39.8149 108.294 39.7632C111.383 39.7435 114.803 38.412 115.583 42.0094C116.463 46.0687 115.452 50.5884 115.177 54.6675C114.993 57.3905 115.058 60.057 115.181 62.7777C115.26 64.5207 115.055 66.4847 115.363 68.1951C115.659 69.8422 116.842 70.8299 117.927 68.9849C118.575 67.8824 118.253 65.1603 118.296 63.883C118.354 62.1629 118.299 60.4433 118.299 58.7229C118.299 54.5236 118.891 50.3408 118.813 46.1424C118.763 43.4351 118.619 38.5271 115.206 37.8766C111.449 37.1602 106.83 37.8806 102.984 37.8366C93.4559 37.7278 83.9435 37.4083 74.412 37.4828Z" fill="#89C5CC"/>
<path id="Fill 9" opacity="0.5" fill-rule="evenodd" clip-rule="evenodd" d="M51.4883 63.7482C48.3514 63.7482 45.2142 63.7671 42.0776 63.8191C39.3875 63.8636 35.1579 63.3025 32.6541 64.2657C30.9401 64.925 30.4847 66.8399 32.6541 67.3499C35.0201 67.9064 38.586 66.9966 41.0615 66.953C53.4747 66.7337 66.0074 66.4478 78.4032 67.2334C90.0183 67.9692 101.857 68.6828 113.49 67.9061C114.468 67.8407 119.46 67.642 117.182 65.7696C115.853 64.6768 110.468 65.3956 108.741 65.3433C102.65 65.1594 96.5525 65.1186 90.4634 64.8876C84.4537 64.6594 78.4706 63.9832 72.4589 63.8159C65.4746 63.6215 58.4749 63.7482 51.4883 63.7482Z" fill="#89C5CC"/>
<path id="face" opacity="0.5" fill-rule="evenodd" clip-rule="evenodd" d="M48.3497 45.8947C53.2389 46.1083 58.0762 53.2036 53.1292 56.6328C48.4883 59.8504 39.7905 56.3241 42.3712 50.0849C42.0002 50.9869 42.8402 49.1049 42.8508 49.0923C43.3415 48.5138 44.2227 47.8733 44.8275 47.4173C45.5198 46.8953 46.2406 46.3207 47.0752 46.0592C47.6231 45.8876 47.5371 46.5335 48.3497 45.8947ZM45.9685 43.3356C43.6802 44.2297 42.6358 45.2382 41.0632 47.0632C39.9751 48.3262 38.588 48.9906 38.6003 50.6974C38.6029 51.0751 39.0879 51.4903 39.1717 51.8541C39.2874 52.357 39.1534 53.0012 39.2451 53.5354C40.1918 59.0483 46.7651 60.9069 51.5766 59.8661C55.7679 58.9595 58.9025 54.9335 57.9315 50.5557C56.954 46.1488 50.4233 41.592 45.9685 43.3356Z" fill="#89C5CC"/>
<path id="Fill 13" opacity="0.5" fill-rule="evenodd" clip-rule="evenodd" d="M43.9302 51.0315C43.9302 53.0147 47.0608 53.0147 47.0608 51.0315C47.0608 49.071 43.9302 48.9867 43.9302 51.0315Z" fill="#89C5CC"/>
<path id="Fill 15" opacity="0.5" fill-rule="evenodd" clip-rule="evenodd" d="M47.8468 50.6301C47.8468 52.2061 50.3343 52.2061 50.3343 50.6301C50.3343 49.0722 47.8468 49.0056 47.8468 50.6301Z" fill="#89C5CC"/>
<path id="Fill 17" opacity="0.5" fill-rule="evenodd" clip-rule="evenodd" d="M48.6171 53.88C47.8205 54.1864 46.8101 53.5511 46.1562 53.9697C44.998 54.7116 46.159 55.3829 46.7798 55.681C49.5749 57.0231 50.0722 53.3224 48.6171 53.88Z" fill="#89C5CC"/>
<path id="Fill 19" opacity="0.5" fill-rule="evenodd" clip-rule="evenodd" d="M91.3037 49.4848C91.2205 49.5202 90.9239 49.6458 91.3037 49.4848V49.4848ZM79.1317 47.7047C77.0398 48.1773 75.2734 50.1321 73.0006 49.8706C71.2588 49.6701 70.0795 47.9882 68.36 47.7438C66.1603 47.4308 60.1738 52.4519 63.3213 53.3134C65.1577 53.8163 66.1763 50.4582 67.7987 50.2798C69.082 50.1387 70.8272 51.7135 72.1571 51.9377C74.6381 52.356 76.3419 50.9885 78.5198 50.1067C80.8864 49.1484 82.2329 50.0113 84.2911 51.0764C85.9157 51.9171 87.4457 52.4645 89.3047 52.1176C91.0493 51.7923 93.241 49.9971 94.9971 50.1812C96.7172 50.3617 97.9448 52.1578 99.714 52.3246C100.443 52.3931 101.529 52.6418 101.407 51.5156C101.309 50.6138 100.303 50.7666 99.674 50.4388C98.0562 49.5959 96.5431 48.1027 94.5906 48.2301C93.1221 48.326 91.785 49.3586 90.4317 49.8526C85.9992 51.4702 83.5074 46.7227 79.1317 47.7047Z" fill="#89C5CC"/>
<path id="Fill 21" opacity="0.5" fill-rule="evenodd" clip-rule="evenodd" d="M82.8346 76.2688C74.2846 76.3473 65.7057 76.4744 57.1797 77.1603C55.1583 77.3227 34.5186 79.2728 34.5578 79.4133C34.6301 79.6731 37.2848 80.07 37.2682 80.1314C37.0893 79.6874 36.6803 79.5035 36.0415 79.5803C55.6165 79.5803 75.1295 77.8265 94.7302 78.142C99.6552 78.2211 104.599 78.188 109.52 78.3433C110.749 78.3821 113.793 79.2633 114.758 78.7082C117.291 77.2511 112.69 77.0829 111.928 77.0218C102.282 76.2496 92.5077 76.1723 82.8346 76.2688Z" fill="#69A1AC"/>
<path id="Fill 23" opacity="0.5" fill-rule="evenodd" clip-rule="evenodd" d="M32.0239 80.4257C30.7457 81.7081 31.9227 86.3214 31.973 88.0553C32.0459 90.5621 31.9858 93.0867 32.2056 95.587C32.4566 98.443 32.8459 101.486 33.5947 104.257C34.0072 105.783 35.4548 108.209 36.0285 105.436C36.4381 103.454 35.8161 100.826 35.5998 98.808C35.3102 96.1081 35.2402 93.4436 35.2293 90.7306C35.2196 88.3665 35.1742 85.9928 34.9804 83.6361C34.8798 82.4126 34.2647 78.1953 32.0239 80.4257Z" fill="#69A1AC"/>
<path id="Fill 25" opacity="0.5" fill-rule="evenodd" clip-rule="evenodd" d="M64.1825 103.92C58.1151 104.024 52.0345 104.167 45.9774 104.546C43.4948 104.702 41.0141 104.934 38.5406 105.196C38.0359 105.25 32.4492 105.477 34.9456 107.54C36.0723 108.471 40.7071 107.184 42.238 107.049C44.8127 106.823 47.3868 106.677 49.9689 106.567C55.9517 106.313 61.9528 106.089 67.9416 106.193C78.8788 106.383 89.7457 106.467 100.686 106.223C102.24 106.189 114.418 106.514 114.831 104.896C115.165 103.592 110.81 104.19 110.016 104.214C107.103 104.301 104.19 104.281 101.276 104.266C88.9323 104.202 76.5168 103.711 64.1825 103.92Z" fill="#69A1AC"/>
<path id="Fill 27" opacity="0.5" fill-rule="evenodd" clip-rule="evenodd" d="M112.77 78.2619C112.962 83.6677 113.882 89.0671 114.176 94.4891C114.311 96.9677 114.469 99.444 114.59 101.923C114.629 102.723 114.307 104.65 115.253 105.11C116.549 105.742 116.724 104.47 116.966 103.61C117.667 101.126 117.193 97.8986 117.13 95.3469C117.068 92.8758 117.064 90.4004 116.882 87.9338C116.695 85.4138 116.188 82.9415 115.953 80.4304C115.853 79.3684 116.201 77.6012 115.074 76.9421C114.101 76.3724 112.728 77.0903 112.77 78.2619Z" fill="#69A1AC"/>
<path id="face_2" opacity="0.5" fill-rule="evenodd" clip-rule="evenodd" d="M53.1326 87.2542C53.1557 87.2719 53.1786 87.2899 53.2015 87.3079C53.1786 87.2899 53.1554 87.2722 53.1326 87.2542ZM47.9764 85.6526C49.8991 86.2023 51.4782 85.9972 53.3149 87.3978C54.8375 88.5592 56.3992 90.2582 56.9043 92.136C58.071 96.4743 54.1155 98.8518 50.4073 98.8986C46.609 98.9463 40.9869 98.0648 41.1815 93.1931C41.3307 89.4501 44.0621 85.7979 47.9764 85.6526ZM48.1118 83.2008C43.126 83.4493 39.1042 89.052 39.1474 93.7682C39.1994 99.484 45.6718 100.957 50.2695 100.996C55.4586 101.041 60.6331 97.4555 59.2426 91.6163C58.1284 86.9378 52.9065 82.9516 48.1118 83.2008Z" fill="#69A1AC"/>
<path id="Fill 31" opacity="0.5" fill-rule="evenodd" clip-rule="evenodd" d="M43.0966 90.8753C43.0966 92.4692 45.6133 92.4692 45.6133 90.8753C45.6133 89.2996 43.0966 89.232 43.0966 90.8753Z" fill="#69A1AC"/>
<path id="Fill 33" opacity="0.5" fill-rule="evenodd" clip-rule="evenodd" d="M48.3754 90.1759C48.3754 91.7824 50.912 91.7824 50.912 90.1759C50.912 88.5877 48.3754 88.5195 48.3754 90.1759Z" fill="#69A1AC"/>
<path id="Fill 35" opacity="0.5" fill-rule="evenodd" clip-rule="evenodd" d="M45.4652 93.8114C43.8272 95.4479 49.5816 98.3168 50.9387 96.0401C52.0534 94.1703 49.6265 94.7903 48.7662 94.6892C47.8313 94.579 46.2284 93.0498 45.4652 93.8114Z" fill="#69A1AC"/>
<path id="Fill 37" opacity="0.5" fill-rule="evenodd" clip-rule="evenodd" d="M91.4729 90.2089C91.3151 90.2751 91.3151 90.2751 91.4729 90.2089V90.2089ZM69.8634 87.5447C68.2048 87.8559 62.7616 89.6934 62.6882 91.6626C62.5538 95.2417 67.8847 91.5758 69.0422 91.1049C72.1868 89.8262 73.8392 92.4347 76.9981 92.5723C79.7417 92.692 82.2643 90.3425 84.8487 90.6203C87.5566 90.9113 88.8591 93.7939 91.9851 92.2634C93.6388 91.4539 93.5971 90.2057 91.7407 90.0881C90.6186 90.017 89.8477 90.481 88.6778 89.9978C86.8483 89.2428 86.1115 88.0133 83.9221 88.2086C82.27 88.3559 80.7769 89.2877 79.1643 89.6483C75.4718 90.4738 73.4236 86.8774 69.8634 87.5447Z" fill="#69A1AC"/>
<path id="point" opacity="0.5" fill-rule="evenodd" clip-rule="evenodd" d="M104.212 91.7628C104.098 91.8108 104.098 91.8108 104.212 91.7628V91.7628ZM104.63 90.2725C104.649 90.2805 104.774 90.4541 104.63 90.2725V90.2725ZM102.729 89.1349C102.658 89.19 102.658 89.19 102.729 89.1349V89.1349ZM102.77 89.1209C103.139 89.3416 106.103 91.3699 103.95 91.8476C102.857 92.09 101.953 89.8893 102.77 89.1209ZM101.789 86.8739C97.0407 89.0404 102.15 96.793 105.877 93.6431C107.445 92.3176 107.651 89.6386 106.126 88.2577C105.212 87.4302 103.03 86.3068 101.789 86.8739Z" fill="#69A1AC"/>
<path id="Fill 41" opacity="0.5" fill-rule="evenodd" clip-rule="evenodd" d="M57.2154 117.425C51.2904 117.426 45.3133 117.302 39.3962 117.653C38.4004 117.713 34.607 117.523 34.094 118.565C33.1553 120.47 37.0585 119.524 37.6256 119.467C49.4071 118.287 61.714 118.966 73.5344 119.302C83.2017 119.577 92.8173 119.748 102.473 120.247C105.011 120.378 107.547 120.522 110.083 120.675C110.91 120.725 112.99 121.274 113.165 119.952C113.326 118.73 110.731 119.006 110.083 118.972C104.927 118.7 99.7747 118.416 94.6205 118.125C82.2145 117.425 69.6412 117.422 57.2154 117.425Z" fill="#89C5CC"/>
<path id="Fill 43" opacity="0.5" fill-rule="evenodd" clip-rule="evenodd" d="M33.9037 119.543C32.797 120.644 33.3158 124.848 33.2849 126.237C33.2309 128.667 33.1163 131.095 33.0648 133.525C33.0114 136.064 33.0857 138.615 33.2358 141.15C33.2986 142.215 34.1718 147.36 35.5466 144.415C36.1609 143.099 35.5318 139.435 35.5412 137.944C35.5581 135.231 35.7041 132.529 35.839 129.819C35.9551 127.49 35.9593 125.158 36.0611 122.829C36.0934 122.086 36.1811 117.258 33.9037 119.543Z" fill="#89C5CC"/>
<path id="Fill 45" opacity="0.5" fill-rule="evenodd" clip-rule="evenodd" d="M114.162 141.249C108.395 141.84 102.537 141.561 96.7485 141.998C91.7601 142.374 86.7762 142.528 81.7749 142.634C70.4499 142.873 59.1057 143.106 47.8134 144.051C45.2399 144.266 42.6695 144.494 40.0891 144.61C38.7987 144.667 33.3835 144.08 32.9802 145.441C32.2934 147.759 38.0844 146.842 39.3334 146.805C42.0802 146.726 44.814 146.527 47.5531 146.319C59.0671 145.441 70.6251 145.178 82.1637 144.813C88.4391 144.615 94.6709 144.156 100.932 143.738C104.053 143.53 107.183 143.523 110.303 143.321C111.12 143.268 114.01 143.372 114.597 142.715C115.001 142.263 115.103 141.161 114.162 141.249Z" fill="#89C5CC"/>
<path id="Fill 47" opacity="0.5" fill-rule="evenodd" clip-rule="evenodd" d="M112.207 119.938C112.405 125.471 112.717 131 112.904 136.533C112.96 138.197 112.458 141.179 113.384 142.647C114.873 145.006 116.035 142.509 116.307 141.039C117.168 136.398 116.243 131.272 116.002 126.603C115.911 124.822 116.464 120.857 115.603 119.263C114.784 117.744 112.134 117.897 112.207 119.938Z" fill="#89C5CC"/>
<path id="hola :)" opacity="0.5" fill-rule="evenodd" clip-rule="evenodd" d="M102.526 127.819C104.735 128.417 105.058 133.223 102.565 133.579C98.8552 134.108 100.478 128.809 102.526 127.819ZM101.907 125.907C101.233 125.886 99.6781 125.7 99.2628 126.249C98.9152 126.709 99.2665 127.678 99.2259 128.115C99.0798 129.679 97.8094 130.582 98.3773 132.428C98.7629 133.681 99.7953 134.858 101.053 135.293C107.693 137.59 107.612 124.752 101.907 125.907Z" fill="#89C5CC"/>
<path id="Fill 51" opacity="0.5" fill-rule="evenodd" clip-rule="evenodd" d="M41.9637 126.77C41.9471 126.791 41.9305 126.812 41.9142 126.833C41.9305 126.812 41.9471 126.791 41.9637 126.77ZM47.1785 123.993C47.1524 123.771 47.1264 123.549 47.1004 123.326C50.7003 125.027 53.5648 128.19 52.3695 132.435C51.4575 135.674 48.1623 136.823 45.0923 136.023C41.6938 135.138 40.0698 132.335 40.9862 128.893C41.4089 127.305 42.7071 125.171 44.3851 124.661C45.1663 124.423 46.8938 125.029 47.1785 123.993ZM45.0734 122.649C44.1628 122.71 43.2764 123.09 42.5333 123.609C43.229 123.02 44.1562 122.669 45.0734 122.649ZM45.0994 120.557C42.85 120.625 41.376 121.988 40.0418 123.625C39.6231 124.138 38.2074 125.5 38.3826 126.192C38.5212 126.739 38.8839 127.539 39.6477 126.93C35.6476 134.907 45.9812 141.711 52.2895 136.164C58.1768 130.987 52.3358 120.314 45.0994 120.557Z" fill="#89C5CC"/>
<path id="Fill 53" opacity="0.5" fill-rule="evenodd" clip-rule="evenodd" d="M43.0556 127.967C43.0556 129.029 44.7036 129.029 44.7036 127.967C44.7036 126.905 43.0556 126.905 43.0556 127.967Z" fill="#89C5CC"/>
<path id="Fill 55" opacity="0.5" fill-rule="evenodd" clip-rule="evenodd" d="M45.868 128.148C45.868 129.228 47.5426 129.228 47.5426 128.148C47.5426 127.069 45.868 127.069 45.868 128.148Z" fill="#89C5CC"/>
<path id="Fill 57" opacity="0.5" fill-rule="evenodd" clip-rule="evenodd" d="M47.1443 131.94C46.3608 132.003 43.4932 131.737 42.9899 132.424C42.1487 133.571 43.4912 133.611 44.1506 133.735C44.7445 133.847 47.3263 133.784 47.6902 133.256C48.0117 132.79 47.9366 131.872 47.1443 131.94Z" fill="#89C5CC"/>
<path id="Fill 59" opacity="0.5" fill-rule="evenodd" clip-rule="evenodd" d="M81.6949 128.964C81.5602 129.02 81.5602 129.02 81.6949 128.964V128.964ZM70.8594 128.171C69.0942 128.301 67.599 129.317 65.9113 129.723C64.1097 130.155 63.33 129.359 61.692 128.838C59.9879 128.296 58.7757 128.51 57.4061 129.675C56.6301 130.335 54.9275 131.854 55.4125 133.026C56.5232 135.709 59.0373 131.344 60.2197 131.141C62.0644 130.824 63.7056 132.438 65.8327 131.976C67.7602 131.558 69.4706 130.234 71.4839 130.219C73.1674 130.207 74.754 131.129 76.416 131.352C78.9533 131.693 80.6193 130.791 82.9648 130.122C84.9987 129.542 86.4249 130.307 88.3379 130.951C89.2122 131.245 92.1296 132.314 91.5925 130.375C91.4408 129.827 87.5962 128.848 87.0003 128.659C84.8983 127.995 83.5673 128.254 81.5651 129.018C79.8953 129.655 78.4908 129.966 76.7004 129.615C74.728 129.229 72.9342 128.014 70.8594 128.171Z" fill="#89C5CC"/>
</g>
<g id="Big Cards" opacity="0.5">
<path id="Fill 67" opacity="0.5" fill-rule="evenodd" clip-rule="evenodd" d="M152.08 39.2466C152.365 33.1133 152.757 26.9885 152.963 20.8514C153.066 17.8103 153.146 14.7689 153.223 11.7273C153.24 11.05 153.258 10.373 153.273 9.69566C153.324 7.39469 153.051 7.20644 155.365 7.0022C165.688 6.09038 176.052 5.78815 186.388 4.96317C198.853 3.96823 211.384 3.28122 223.884 2.97328C229.439 2.83617 235.018 2.55223 240.574 2.72505C241.805 2.76333 244.221 2.44282 244.706 3.40034C244.915 3.81397 244.476 5.23741 244.42 5.71474C244.246 7.20587 244.083 8.70215 243.983 10.2007C243.392 19.0389 243.744 28.1 245.455 36.8043C241.443 34.5404 236.374 32.5931 231.697 32.9796C226.93 33.3735 223.364 36.1298 219.548 38.6668C217.389 40.1016 216.662 40.479 214.508 39.089C212.653 37.8909 210.897 36.5212 209.146 35.1769C206.444 33.1021 203.894 30.8526 201.274 28.6776C196.457 24.6784 189.82 18.9861 183.166 20.6621C178.412 21.8595 174.023 24.4739 169.897 27.0325C163.767 30.8337 158.218 35.4888 152.08 39.2466ZM234.698 0.001304C211.013 0.001304 187.506 2.29885 163.888 3.54174C161.422 3.67143 158.964 3.86254 156.506 4.09992C154.868 4.25817 150.862 3.59373 149.788 4.99431C149.072 5.9287 149.688 6.06895 149.788 6.95678C149.916 8.0757 149.84 9.40143 149.807 10.5858C149.728 13.4395 149.646 16.2929 149.581 19.1469C149.336 29.9334 149.184 40.7178 149.62 51.5013C149.715 53.8532 150.571 57.1094 150.103 59.3946C149.764 61.0492 148.63 62.0561 151.245 62.3618C153.818 62.6628 156.965 61.8973 159.54 61.6522C162.131 61.4054 164.721 61.1377 167.315 60.9238C178.591 59.9939 189.976 60.1345 201.282 59.8254C212.69 59.5138 224.102 59.4938 235.514 59.4875C240.289 59.4849 245.745 59.7534 250.404 58.4385C252.043 57.9758 252.308 57.7478 251.904 56.1204C251.827 55.8116 251.332 55.6977 251.187 55.1395C250.989 54.3799 251.091 53.4567 251.044 52.666C250.894 50.0836 250.841 47.4967 250.719 44.9127C250.516 40.5952 249.773 36.4052 249.223 32.1312C248.588 27.1953 248.62 22.1838 248.608 17.2156C248.6 14.4599 248.671 11.7133 248.892 8.96524C249.034 7.20273 249.901 4.57125 249.462 2.92758C249.242 2.10917 248.884 1.46016 248.033 1.10794C247.493 0.884557 247.04 1.05938 246.507 1.00282C245.874 0.93569 245.48 0.84685 244.722 0.67517C241.477 -0.0609694 238.006 0.001304 234.698 0.001304Z" fill="#69A1AC"/>
<path id="Fill 69" opacity="0.5" fill-rule="evenodd" clip-rule="evenodd" d="M221.591 11.7356C221.589 13.4533 221.321 15.9879 222.113 17.6053C223.116 19.6569 224.372 19.0156 224.705 17.0877C224.895 15.9831 224.891 12.714 224.536 11.7356C224.034 10.3508 221.591 9.40754 221.591 11.7356Z" fill="#89C5CC"/>
<path id="Fill 71" opacity="0.5" fill-rule="evenodd" clip-rule="evenodd" d="M224.471 12.3989C222.859 12.4557 218.166 12.0687 217.076 13.3653C215.206 15.5891 218.461 15.983 219.859 15.8585C221.477 15.7145 226.476 16.0659 227.56 14.7679C229.372 12.5963 225.738 12.3526 224.471 12.3989Z" fill="#89C5CC"/>
<path id="Fill 73" opacity="0.5" fill-rule="evenodd" clip-rule="evenodd" d="M161.935 69.781C169.02 71.0125 166.816 81.8212 160.112 79.3177C157.776 78.4453 154.335 75.9246 155.626 72.9547C156.59 70.7357 159.733 69.5696 161.935 69.781ZM159.002 66.4202C154.394 67.1964 151.245 72.1857 152.824 76.5377C154.348 80.7363 160.129 83.8108 164.391 82.302C168.461 80.8614 170.491 75.4433 169.119 71.4798C167.686 67.3386 163.015 65.7441 159.002 66.4202Z" fill="#89C5CC"/>
<path id="Fill 75" opacity="0.5" fill-rule="evenodd" clip-rule="evenodd" d="M202.094 71.0453C200.33 71.1918 198.806 72.4276 197.031 72.6464C195.371 72.8509 193.996 72.2827 192.442 71.8286C190.564 71.2798 188.841 71.0384 186.922 71.526C185.455 71.8988 184.008 72.8975 182.485 73.018C179.487 73.2548 176.003 69.8321 173.662 73.7033C172.54 75.5592 174.169 76.7547 175.848 75.8892C177.597 74.9871 176.738 74.664 178.909 75.197C180.72 75.6412 182.183 75.8826 183.997 75.2599C185.64 74.696 187.083 73.6639 188.868 73.5479C190.617 73.4345 192.138 74.2315 193.81 74.5754C195.865 74.9982 197.684 74.6783 199.632 74.0335C201.484 73.4202 202.223 73.0849 204.093 73.6319C205.277 73.9784 207.862 75.0791 209.014 74.1921C211.007 72.6587 208.34 72.4344 207.289 72.2165C205.598 71.866 203.849 70.9016 202.094 71.0453Z" fill="#89C5CC"/>
<path id="Fill 77" opacity="0.5" fill-rule="evenodd" clip-rule="evenodd" d="M242.458 70.0152C242.472 70.026 242.486 70.0369 242.5 70.0478C242.486 70.0369 242.472 70.026 242.458 70.0152ZM240.726 69.6527C243.302 69.8187 246.086 74.5126 242.674 74.6791C240.272 74.7965 237.586 70.6862 240.726 69.6527ZM240.365 65.8117C232.223 68.087 235.945 79.5742 243.799 78.2473C247.366 77.6445 248.575 73.5088 247.396 70.4474C246.89 69.1325 245.902 68.0239 244.722 67.2672C243.851 66.709 241.36 65.5344 240.365 65.8117Z" fill="#89C5CC"/>
<path id="Image Border" opacity="0.5" fill-rule="evenodd" clip-rule="evenodd" d="M152.807 139.229C152.567 138.16 152.697 136.526 152.683 136.148C152.621 134.378 152.599 132.606 152.53 130.836C152.368 126.617 152.26 122.374 151.935 118.165C151.625 114.142 150.841 110.24 150.818 106.187C150.803 103.445 150.042 96.4988 152.441 94.6366C156.565 92.2288 154.934 100.724 154.866 102.194C154.663 106.621 154.939 110.852 155.384 115.251C155.792 119.282 155.323 123.295 155.167 127.327C155.083 129.468 155.038 131.605 154.877 133.742C154.827 134.408 154.904 137.411 154.555 139.01C155.454 138.971 156.309 139.012 156.786 138.997C160.126 138.896 163.467 138.807 166.807 138.682C179.655 138.198 192.51 138.417 205.356 137.806C217.506 137.229 229.7 137.106 241.859 136.957C242.923 137.049 243.399 138.167 242.716 139.025C242.048 139.865 238.951 139.681 237.986 139.759C234.561 140.035 231.143 140.159 227.708 140.191C220.475 140.26 213.268 140.57 206.047 140.983C193.215 141.715 180.365 141.654 167.527 142.176C164.411 142.303 161.294 142.398 158.177 142.48C156.533 142.523 152.227 143.514 151.413 141.548C150.838 140.159 151.637 139.52 152.807 139.229ZM223.88 89.2341C227.767 89.1981 231.633 89.2661 235.515 89.4889C237.236 89.5877 238.957 89.6831 240.679 89.756C241.675 89.7983 243.948 89.4718 244.821 89.9337C248.247 91.7476 241.266 91.9464 240.418 91.9321C236.857 91.8721 233.302 91.5948 229.741 91.5074C216.644 91.1854 203.45 91.983 190.364 92.52C184.07 92.7785 177.778 92.8154 171.486 93.169C168.047 93.3624 164.609 93.5835 161.169 93.7649C159.584 93.8486 157.997 93.9297 156.409 93.9697C155.431 93.9946 153.439 94.3999 152.535 94.03C151.765 93.7149 151.143 93.2744 151.566 92.3409C152.022 91.3362 154.005 91.7639 154.845 91.7476C157.876 91.6887 160.9 91.5185 163.926 91.3331C170.796 90.9123 177.652 90.4201 184.536 90.3027C197.654 90.0788 210.755 89.3558 223.88 89.2341ZM241.925 93.7077C241.928 91.9078 244.085 91.5458 245.041 92.7699C245.956 93.9408 245.367 97.4858 245.39 98.8866C245.463 103.503 245.9 108.093 246.314 112.688C246.725 117.245 247.016 121.804 247.333 126.369C247.48 128.478 249.101 136.898 246.746 138.127C243.74 139.696 244.307 131.715 244.223 130.26C243.953 125.577 243.613 120.888 243.19 116.217C242.505 108.665 241.92 101.29 241.925 93.7077Z" fill="#69A1AC"/>
<path id="Image X" opacity="0.5" fill-rule="evenodd" clip-rule="evenodd" d="M202.233 115.385C206.354 116.851 210.452 118.382 214.531 119.959C216.714 120.803 218.885 121.674 221.064 122.53C222.154 122.958 226.691 124.034 226.952 125.124C227.32 126.664 222.484 124.773 221.715 124.527C219.542 123.832 217.396 123.054 215.25 122.28C210.448 120.549 205.666 118.763 200.845 117.084C200.394 116.927 199.943 116.771 199.492 116.615C194.375 118.915 189.268 121.237 184.178 123.596C181.448 124.861 178.734 126.155 176.027 127.467C174.019 128.439 170.387 131.214 168.176 131.166C167.34 131.147 166.776 130.968 166.688 129.953C166.577 128.656 168.666 128.123 169.51 127.701C172.403 126.253 175.315 124.841 178.234 123.447C184.033 120.68 189.886 118.022 195.76 115.418C195.794 115.403 195.828 115.388 195.862 115.373C192.604 114.27 189.337 113.193 186.063 112.139C184.192 111.536 171.073 108.297 171.552 106.558C172.089 104.608 183.708 109.204 185.495 109.774C189.895 111.177 194.283 112.62 198.647 114.128C209.121 109.42 219.707 104.403 230.632 100.976C231.32 100.761 231.755 101.471 231.599 102.066C231.39 102.864 228.939 103.509 228.259 103.813C225.568 105.015 222.864 106.188 220.173 107.391C214.311 110.012 208.439 112.608 202.578 115.231C202.463 115.282 202.348 115.334 202.233 115.385Z" fill="#89C5CC"/>
<path id="Fill 117" opacity="0.5" fill-rule="evenodd" clip-rule="evenodd" d="M163.489 148.356C166.168 148.826 168.058 151.398 167.764 154.091C167.367 157.73 163.743 159.397 160.395 158.923C156.596 158.384 155.796 155.17 157.637 152.079C158.045 151.394 158.513 150.575 159.254 150.215C159.763 149.967 160.412 150.186 160.822 149.986C162.26 149.286 161.395 148.171 163.489 148.356ZM162.27 145.98C159.001 146.397 152.96 150.183 153.266 153.97C153.532 154.409 153.931 154.589 154.463 154.509C154.335 155.329 154.377 156.141 154.588 156.944C154.899 157.986 155.518 158.841 156.349 159.519C158.058 160.917 160.395 161.261 162.524 161.015C166.498 160.558 169.631 157.84 169.855 153.703C170.072 149.665 166.55 145.439 162.27 145.98Z" fill="#89C5CC"/>
<path id="Fill 119" opacity="0.5" fill-rule="evenodd" clip-rule="evenodd" d="M178.103 150.908C176.636 151.685 174.316 152.88 173.456 154.358C172.547 155.918 173.488 157.625 175.402 156.887C176.922 156.301 177.889 154.439 179.51 153.842C180.941 153.316 181.517 153.584 183.03 154.109C184.588 154.649 185.95 155.171 187.634 155.039C189.751 154.872 191.584 153.644 193.656 153.364C195.401 153.129 196.84 153.808 198.511 154.078C200.449 154.392 201.717 153.658 203.53 153.275C204.764 153.015 206.938 154.074 207.838 153.678C209.862 152.788 207.721 151.699 206.601 151.34C204.714 150.734 203.553 151.268 201.759 151.771C199.81 152.316 198.968 151.906 197.106 151.405C193.338 150.392 190.427 152.842 186.855 152.396C183.548 151.984 181.569 149.071 178.103 150.908Z" fill="#89C5CC"/>
<path id="Fill 121" opacity="0.5" fill-rule="evenodd" clip-rule="evenodd" d="M239.719 149.097C243.347 152.5 239.272 157.342 235.272 154.622C233.865 153.665 233.843 152.127 234.938 150.752C235.94 149.494 238.141 149.003 239.719 149.097ZM238.375 146.348C234.986 147.007 231.79 148.563 231.483 152.477C231.184 156.295 235.098 158.069 238.386 157.818C245.768 157.256 245.234 145.021 238.375 146.348Z" fill="#89C5CC"/>
</g>
<path id="Fill 79" opacity="0.5" fill-rule="evenodd" clip-rule="evenodd" d="M318.643 19.5303C315.933 19.5827 309.24 20.5692 308.244 23.7778C307.489 26.2133 309.733 25.6786 310.935 24.7923C312.562 23.5939 313.989 22.8767 316.005 22.5121C323.684 21.1222 331.062 26.1062 338.667 26.7366C341.548 26.9754 345.024 27.1309 347.775 26.1973C349.734 25.5325 349.989 24.083 347.754 23.8621C345.855 23.6746 343.753 24.2657 341.806 24.2489C333.748 24.18 326.586 19.3787 318.643 19.5303Z" fill="#C1DEE2"/>
<g id="Cards" opacity="0.5">
<path id="Fill 173" opacity="0.5" fill-rule="evenodd" clip-rule="evenodd" d="M33.8419 171.906C28.6559 171.964 23.4723 172.156 18.2965 172.483C13.3745 172.795 8.03399 172.559 3.19213 173.513C1.81727 173.784 -0.0399606 175.038 1.78815 176.417C3.07311 177.387 7.77426 176.271 9.30868 176.177C14.9594 175.83 20.613 175.413 26.2717 175.213C31.6288 175.024 36.9855 174.957 42.3452 174.904C43.1635 174.896 44.5218 174.633 45.3366 174.871C46.5074 175.212 46.2297 175.305 46.3173 176.792C46.4763 179.487 46.4324 182.191 46.379 184.888C46.3273 187.498 46.2309 190.108 46.2403 192.719C46.2468 194.582 45.6517 198.283 46.5859 199.901C47.9305 202.23 49.3254 199.701 49.4258 198.153C49.6182 195.193 49.532 192.198 49.5329 189.234C49.5335 186.452 49.5534 183.671 49.4555 180.891C49.3845 178.882 49.6713 175.376 48.5901 173.551C47.489 171.691 44.8377 172.092 42.9031 172.004C39.8854 171.865 36.8622 171.874 33.8419 171.906Z" fill="#89C5CC"/>
<path id="Fill 171" opacity="0.5" fill-rule="evenodd" clip-rule="evenodd" d="M0.845388 175.262C0.851096 180.489 0.246863 185.68 0.0776088 190.901C-2.54194e-05 193.301 -0.157577 195.936 0.449225 198.293C1.06174 200.672 3.00716 201.187 3.23121 198.531C3.68503 193.153 3.57372 187.576 3.92706 182.155C4.05179 180.241 4.86353 176.733 4.10574 174.941C3.43843 173.362 0.842534 173.059 0.845388 175.262Z" fill="#89C5CC"/>
<path id="Fill 175" opacity="0.5" fill-rule="evenodd" clip-rule="evenodd" d="M49.4766 198.3C40.4702 199.493 31.0548 199.058 21.9842 199.245C17.6324 199.335 13.2814 199.341 8.92906 199.386C7.41005 199.402 3.55261 198.824 2.23853 199.678C0.146692 201.039 2.41635 202.088 3.80121 202.118C12.3903 202.307 21.0751 201.911 29.6625 201.629C33.5208 201.503 37.3917 201.441 41.2397 201.113C43.6087 200.911 46.1975 200.715 48.4979 200.078C48.988 199.942 50.0552 199.97 50.1651 199.301C50.2327 198.887 50.11 198.212 49.4766 198.3Z" fill="#89C5CC"/>
<path id="Fill 177" opacity="0.5" fill-rule="evenodd" clip-rule="evenodd" d="M12.0253 205.897C9.52219 205.911 1.97911 204.748 0.94247 207.19C-0.439532 210.448 4.95176 209.687 6.40169 209.65C9.69487 209.566 12.9858 209.556 16.2798 209.558C19.5119 209.559 22.7437 209.538 25.9752 209.462C26.9114 209.439 29.0906 209.828 29.6292 208.7C30.0384 207.842 29.7151 207.166 28.9601 206.712C27.1437 205.62 22.4249 206.253 20.2982 206.155C17.5448 206.028 14.7822 205.897 12.0253 205.897Z" fill="#89C5CC"/>
<path id="Fill 179" opacity="0.5" fill-rule="evenodd" clip-rule="evenodd" d="M42.4776 206.5C41.047 206.585 38.1535 205.995 36.8719 206.65C35.4154 207.394 35.9286 208.56 37.1862 209.073C38.057 209.427 41.6293 209.241 42.4776 208.83C43.3618 208.402 44.3616 206.384 42.4776 206.5Z" fill="#89C5CC"/>
<path id="Fill 181" opacity="0.5" fill-rule="evenodd" clip-rule="evenodd" d="M58.161 175.775C56.6331 176.195 57.0967 184.874 57.0573 186.25C56.9494 190.02 56.5258 194.761 57.7777 198.392C58.576 200.707 60.1093 200.393 59.8481 197.956C59.6186 195.817 59.2251 193.703 59.0547 191.551C58.6693 186.68 58.145 181.484 58.5089 176.609C58.6639 176.892 60.1133 179.52 60.4544 179.324C60.3513 179.385 58.7826 175.611 58.161 175.775Z" fill="#89C5CC"/>
<path id="Fill 183" opacity="0.5" fill-rule="evenodd" clip-rule="evenodd" d="M75.3472 172.578C72.2553 172.624 69.1633 172.679 66.0722 172.765C63.6145 172.833 59.7525 172.429 57.4985 173.464C54.8147 174.695 56.088 177.44 58.6088 177.498C60.8388 177.549 63.2169 177.046 65.4671 176.969C71.5452 176.761 77.634 176.716 83.7149 176.664C89.2144 176.617 94.9476 177.204 100.399 176.377C101.207 183.562 99.0205 190.777 99.7643 198.044C99.8796 199.171 99.828 200.765 101.263 201.022C103.075 201.346 103.149 199.551 103.218 198.265C103.414 194.594 103.308 190.921 103.577 187.245C103.826 183.838 104.316 180.357 103.901 176.945C103.392 172.747 101.382 173.083 97.8278 172.909C90.3215 172.54 82.8618 172.468 75.3472 172.578Z" fill="#89C5CC"/>
<path id="Fill 185" opacity="0.5" fill-rule="evenodd" clip-rule="evenodd" d="M64.985 198.089C63.4095 198.129 60.7928 197.643 59.7832 199.155C58.7329 200.728 59.979 202.1 61.5063 202.423C63.3142 202.805 65.6715 202.281 67.5478 202.275C69.5018 202.27 71.4563 202.291 73.4103 202.299C81.7877 202.332 90.201 202.459 98.5724 202.112C99.7414 202.064 103.059 202.456 103.869 201.334C104.587 200.339 104.084 199.446 103.139 198.939C101.587 198.107 98.4005 198.423 96.6749 198.357C94.5437 198.276 92.4099 198.25 90.2775 198.217C81.861 198.087 73.4006 197.881 64.985 198.089Z" fill="#89C5CC"/>
<path id="Fill 187" opacity="0.5" fill-rule="evenodd" clip-rule="evenodd" d="M72.0716 205.361C68.9366 205.414 65.5917 205.277 62.4878 205.752C59.7586 206.171 59.4227 208.811 62.3605 209.12C65.0603 209.404 68.3335 208.873 71.0464 208.699C72.01 208.637 73.1305 208.725 73.5923 207.659C74.0744 206.545 73.1528 205.477 72.0716 205.361Z" fill="#89C5CC"/>
<path id="Fill 189" opacity="0.5" fill-rule="evenodd" clip-rule="evenodd" d="M95.7723 205.638C94.0989 205.68 89.2114 204.96 88.3825 206.872C87.0028 210.056 93.6194 208.847 94.8886 208.8C96.4884 208.741 102.723 209.676 102.725 207.127C102.726 204.628 97.3044 205.6 95.7723 205.638Z" fill="#89C5CC"/>
<path id="Fill 191" opacity="0.5" fill-rule="evenodd" clip-rule="evenodd" d="M0.57482 221.46C0.578816 227.252 0.218616 233.098 0.746643 238.876C0.964989 241.265 0.927599 245.843 2.31074 247.868C3.29259 249.306 4.65432 249.205 5.19063 247.479C5.54912 246.325 4.97571 244.016 4.91177 242.781C4.85012 241.596 4.7782 240.412 4.7234 239.227C4.58268 236.173 4.59382 233.124 4.63577 230.068C4.67174 227.447 5.30223 223.98 4.7077 221.46C4.15341 219.111 0.57482 218.561 0.57482 221.46Z" fill="#69A1AC"/>
<path id="Fill 193" opacity="0.5" fill-rule="evenodd" clip-rule="evenodd" d="M58.7483 216.364C48.7058 216.616 38.6407 216.391 28.6071 216.888C23.6588 217.134 18.7299 217.672 13.8064 218.209C11.3874 218.473 8.96994 218.745 6.55529 219.043C5.82661 219.133 -0.22828 219.368 2.04908 221.672C3.04349 222.678 6.20793 221.627 7.46007 221.479C9.88443 221.192 12.3136 220.943 14.7414 220.686C19.3612 220.197 23.9867 219.733 28.6262 219.477C39.553 218.871 50.5248 219.052 61.4623 218.649C64.421 218.54 67.3708 218.461 70.3306 218.578C71.1078 218.608 76.8191 218.899 74.3393 216.788C73.1668 215.79 68.746 216.305 67.2806 216.275C64.4367 216.216 61.5911 216.293 58.7483 216.364Z" fill="#69A1AC"/>
<path id="Wireframy Stuff" opacity="0.5" fill-rule="evenodd" clip-rule="evenodd" d="M74.3892 246.922C74.3876 246.924 74.3861 246.927 74.3845 246.929C73.8374 247.736 71.8154 247.511 70.9301 247.572C68.2354 247.755 65.5907 248.064 62.92 248.465C57.5987 249.263 52.3236 249.753 46.9445 249.887C36.3061 250.15 25.6237 249.904 15.0012 250.633C12.6485 250.795 10.3315 251.072 8.01727 251.515C6.36469 251.832 3.17998 252.916 2.98675 250.184C2.75356 246.892 11.0079 246.898 13.368 246.678C23.5019 245.735 33.8024 245.934 43.9673 246.076C48.8828 246.144 53.7892 246.294 58.7007 245.994C63.6074 245.693 68.6805 245.772 73.5513 245.244C72.924 242.81 73.0158 239.767 72.8398 237.28C72.3876 230.895 72.5087 224.488 72.2175 218.096C72.0894 215.281 75.9226 214.854 77.0594 217.133C78.2076 219.436 77.4616 224.004 77.5358 226.557C77.7076 232.467 78.8027 239.083 77.6459 244.929C77.2435 246.961 75.5298 248.03 74.3892 246.922Z" fill="#69A1AC"/>
<path id="Fill 199" opacity="0.5" fill-rule="evenodd" clip-rule="evenodd" d="M80.5663 220.159C79.2097 220.344 78.078 221.506 78.6837 222.979C79.4466 224.835 81.7188 224.11 83.2199 223.992C87.9909 223.618 92.9724 224.365 97.6858 223.802C98.973 223.648 100.841 222.946 99.6849 221.215C98.816 219.914 95.6507 220.143 94.3053 220.018C89.7034 219.592 85.1621 219.706 80.5663 220.159Z" fill="#C1DEE2"/>
<path id="Fill 201" opacity="0.5" fill-rule="evenodd" clip-rule="evenodd" d="M88.6188 228.254C86.7685 228.379 82.4612 228.281 81.6814 230.388C80.2829 234.167 85.7612 232.835 87.4292 232.62C89.3669 232.37 93.9348 233.039 94.9666 231.159C96.8115 227.796 90.2414 228.142 88.6188 228.254Z" fill="#C1DEE2"/>
<path id="Fill 203" opacity="0.5" fill-rule="evenodd" clip-rule="evenodd" d="M83.8606 236.548C82.983 237.427 82.9815 238.996 83.8606 239.875C84.9369 240.951 87.282 240.727 88.6962 240.806C90.6687 240.916 96.334 241.96 97.3136 239.636C98.6351 236.5 93.505 236.566 91.8176 236.388C89.8673 236.182 85.477 234.93 83.8606 236.548Z" fill="#C1DEE2"/>
<path id="Fill 205" opacity="0.5" fill-rule="evenodd" clip-rule="evenodd" d="M14.7137 182.869C14.7137 186.241 19.9759 186.241 19.9759 182.869C19.9759 179.516 14.7137 179.465 14.7137 182.869Z" fill="#89C5CC"/>
<path id="Fill 207" opacity="0.5" fill-rule="evenodd" clip-rule="evenodd" d="M24.6953 182.907C24.6953 186.762 30.6891 186.754 30.6891 182.907C30.6891 179.066 24.6953 179.027 24.6953 182.907Z" fill="#89C5CC"/>
<path id="Fill 209" opacity="0.5" fill-rule="evenodd" clip-rule="evenodd" d="M18.6569 188.032C15.7433 188.837 18.4274 191.308 19.7803 191.872C21.9303 192.77 24.8647 193.431 27.0154 192.086C27.8711 191.55 28.5658 190.839 27.9387 189.8C27.2705 188.695 26.3558 189.186 25.3385 189.288C24.0499 189.418 23.0084 189.398 21.7639 188.985C20.8352 188.676 19.6698 187.753 18.6569 188.032Z" fill="#89C5CC"/>
<path id="Fill 211" opacity="0.5" fill-rule="evenodd" clip-rule="evenodd" d="M71.5058 183.083C71.5058 185.363 75.0444 185.363 75.0444 183.083C75.0444 180.802 71.5058 180.802 71.5058 183.083Z" fill="#89C5CC"/>
<path id="Fill 213" opacity="0.5" fill-rule="evenodd" clip-rule="evenodd" d="M79.3315 183.426C79.3315 185.959 83.2626 185.96 83.2626 183.426C83.2626 180.892 79.3315 180.892 79.3315 183.426Z" fill="#89C5CC"/>
<path id="Fill 215" opacity="0.5" fill-rule="evenodd" clip-rule="evenodd" d="M79.0404 188.924C76.9754 189.191 71.003 189.796 70.6688 192.343C70.1533 196.273 76.6974 193.093 78.191 192.784C80.0933 192.391 81.7921 192.494 83.6913 192.57C84.734 192.612 86.1208 192.781 86.0115 191.192C85.8323 188.582 80.8454 188.693 79.0404 188.924Z" fill="#89C5CC"/>
<path id="Fill 217" opacity="0.5" fill-rule="evenodd" clip-rule="evenodd" d="M27.1211 225.162C25.6243 225.562 23.6664 228.151 24.6962 229.736C26.3847 232.335 27.1294 228.344 27.8361 227.96C29.1219 227.261 30.1657 229.815 31.5094 228.475C33.6298 226.362 28.456 224.804 27.1211 225.162Z" fill="#69A1AC"/>
<path id="eye" opacity="0.5" fill-rule="evenodd" clip-rule="evenodd" d="M44.2713 223.241C42.4962 223.257 38.749 225.772 38.4835 227.629C38.326 228.732 39.0569 229.792 40.2454 229.807C41.8637 229.827 42.3781 227.721 43.7809 227.281C45.2942 226.806 45.0696 227.899 46.3765 228.466C47.3329 228.881 48.5291 228.708 48.8614 227.531C49.4882 225.311 46.0951 223.206 44.2713 223.241Z" fill="#69A1AC"/>
<path id="Fill 221" opacity="0.5" fill-rule="evenodd" clip-rule="evenodd" d="M30.6842 233.872C27.8452 235.537 32.5166 239.105 34.1361 239.552C36.581 240.225 41.5016 238.968 42.081 235.98C42.3116 234.79 41.5681 233.713 40.2563 233.926C39.1763 234.101 38.4836 235.457 37.4832 235.943C36.1329 236.598 34.9324 236.553 33.785 235.567C32.8503 234.763 32.3496 232.9 30.6842 233.872Z" fill="#69A1AC"/>
<path id="Fill 223" opacity="0.5" fill-rule="evenodd" clip-rule="evenodd" d="M32.7419 258.471C30.2054 259.012 27.6269 258.649 25.0781 259.158C22.4791 259.677 20.9259 260.659 18.5112 259.67C18.3976 259.622 18.2843 259.574 18.171 259.526C16.3021 258.72 14.3432 258.482 12.3869 259.766C11.2293 260.525 7.71491 263.153 8.13847 264.756C9.05638 268.232 13.0109 262.782 14.0193 262.25C15.9421 261.237 17.2605 262.532 19.2402 262.897C21.6114 263.334 23.5195 262.08 25.7532 261.581C28.3656 260.997 31.3046 260.793 33.9624 260.481C35.0125 260.357 38.9898 261.188 39.3488 259.881C39.9656 257.634 33.7389 258.259 32.7419 258.471Z" fill="#C1DEE2"/>
<path id="Fill 225" opacity="0.5" fill-rule="evenodd" clip-rule="evenodd" d="M51.0424 265.471C51.2082 265.597 51.0752 265.496 51.0424 265.471V265.471ZM58.1465 258.335C60.3179 258.114 67.2656 256.562 68.6922 258.807C69.6212 260.27 68.1467 265.668 66.7402 266.366C65.6159 266.923 62.9972 266.307 61.7636 266.263C59.4683 266.182 57.1681 266.146 54.8753 266.003C54.1064 265.955 51.6321 266.097 51.0292 265.416C50.3174 264.612 50.3491 260.325 50.1815 259.262C52.1781 259.908 56.0589 258.547 58.1465 258.335ZM62.7834 256.133C60.0023 256.254 57.2217 256.463 54.4614 256.836C52.9227 257.045 51.3638 257.598 49.9427 257.86C49.4846 257.944 48.741 257.71 48.1793 257.982C46.5379 258.775 47.9753 264.14 48.3711 265.573C48.9791 267.775 50.5092 268.132 52.653 268.339C55.4769 268.613 58.3588 268.527 61.1916 268.492C63.9222 268.459 67.6041 269.064 69.1363 266.323C70.1267 264.55 71.189 260.422 70.3425 258.446C69.2287 255.847 65.0705 256.037 62.7834 256.133Z" fill="#C1DEE2"/>
<path id="quare" opacity="0.5" fill-rule="evenodd" clip-rule="evenodd" d="M93.927 266.946C93.7783 267.137 93.7783 267.137 93.927 266.946V266.946ZM94.5364 266.211C94.4904 266.281 94.2769 266.506 94.5364 266.211V266.211ZM87.9041 266.009C89.1299 265.778 90.3564 265.55 91.5837 265.326C90.4215 266.954 89.1976 266.281 87.2122 266.139C87.4428 266.096 87.6734 266.053 87.9041 266.009ZM82.0552 265.433C82.366 265.329 82.6766 265.225 82.9874 265.121C82.978 265.358 83.0288 265.579 83.1398 265.786C82.6078 265.728 82.0764 265.666 81.5455 265.601C81.7153 265.545 81.8854 265.489 82.0552 265.433ZM79.3449 263.43C79.3275 263.003 79.9694 263.296 80.3373 263.268C79.628 263.892 79.2972 263.947 79.3449 263.43ZM89.038 258.586C89.1314 258.467 89.2549 258.473 89.4088 258.604C89.241 258.66 88.5945 258.934 89.038 258.586ZM95.3241 257.846C95.3407 257.846 95.6895 258.317 95.3241 257.846V257.846ZM95.1477 257.692C95.2391 257.761 95.2391 257.761 95.1477 257.692V257.692ZM94.3631 257.6C95.6483 257.817 95.5507 259.326 94.3631 257.6V257.6ZM79.263 257.497C79.0018 257.714 79.0911 257.504 79.263 257.497V257.497ZM84.1782 254.283C81.9961 254.411 77.9908 254.283 76.1684 255.446C73.7903 256.965 75.0416 262.192 75.2545 264.483C75.5691 267.871 77.1617 268.835 80.3496 269.191C84.1539 269.615 88.0627 269.694 91.8868 269.593C95.3307 269.503 97.2921 268.317 97.9229 264.689C98.1161 263.579 98.6064 261.861 98.591 260.798C98.5805 260.061 98.2131 259.724 98.0741 259.097C97.2832 255.526 95.9606 255.103 92.3029 254.947C89.6109 254.832 86.8197 254.145 84.1782 254.283Z" fill="#89C5CC"/>
</g>
<g id="Profile" opacity="0.5">
<path id="face_3" opacity="0.5" fill-rule="evenodd" clip-rule="evenodd" d="M199.764 172.245C205.312 172.364 211.606 175.436 210.729 181.945C210.086 186.713 205.961 190.584 201.182 190.918C196.047 191.276 190.617 187.332 189.92 182.1C189.135 176.215 194.339 172.128 199.764 172.245ZM197.043 169.596C194.794 169.932 192.645 171.114 190.665 172.172C189.909 172.577 186.076 175.041 189.082 175.654C181.84 187.342 198.885 198.198 208.468 190.602C212.771 187.191 215.037 180.723 212.255 175.661C209.378 170.425 202.555 168.767 197.043 169.596Z" fill="#89C5CC"/>
<path id="Fill 231" opacity="0.5" fill-rule="evenodd" clip-rule="evenodd" d="M195.718 179.545C195.718 181.727 199.104 181.727 199.104 179.545C199.104 177.362 195.718 177.362 195.718 179.545Z" fill="#89C5CC"/>
<path id="Fill 233" opacity="0.5" fill-rule="evenodd" clip-rule="evenodd" d="M201.996 179.894C201.996 182.261 205.667 182.261 205.667 179.894C205.667 177.527 201.996 177.527 201.996 179.894Z" fill="#89C5CC"/>
<path id="Fill 235" opacity="0.5" fill-rule="evenodd" clip-rule="evenodd" d="M197.759 184.575C197.265 186.37 202.898 187.291 203.086 185.213C203.175 184.22 198.103 183.322 197.759 184.575Z" fill="#89C5CC"/>
<path id="Fill 237" opacity="0.5" fill-rule="evenodd" clip-rule="evenodd" d="M214.272 183.465C220.754 182.687 227.438 183.046 233.951 183.233C235.581 183.28 237.211 183.326 238.841 183.353C239.878 183.37 242.116 183.868 243.021 183.383C246.725 181.395 239.458 180.434 238.43 180.342C231.951 179.809 221.952 179.618 215.455 179.87C213.533 179.945 213.117 183.604 214.272 183.465Z" fill="#89C5CC"/>
<path id="Hola :)" opacity="0.5" fill-rule="evenodd" clip-rule="evenodd" d="M243.441 215.709C243.496 208.913 243.74 202.071 244.262 195.295C244.474 192.533 244.729 189.775 244.941 187.013C245.04 185.712 245.502 183.89 244.738 182.749C243.951 181.573 242.223 181.328 241.182 182.371C239.936 183.985 240.299 186.694 240.144 188.646C239.905 191.648 239.617 194.648 239.474 197.656C239.198 203.48 239.133 209.404 239.601 215.219C239.822 217.963 240.301 220.64 240.937 223.316C241.228 224.534 243.534 229.96 243.05 230.709C242.298 231.869 236.742 231.43 235.537 231.463C232.444 231.546 229.35 231.6 226.257 231.659C223.609 231.709 220.96 231.746 218.311 231.769C217.26 231.779 211.08 231.591 212.451 233.151C197.123 234.22 181.501 232.436 166.266 231.824C165.497 231.793 164.238 231.574 163.075 231.511C162.936 230.95 162.822 230.448 162.793 230.099C162.593 227.649 162.541 225.19 162.324 222.741C161.927 218.259 161.157 213.823 160.698 209.349C160.241 204.879 160.287 200.397 160.021 195.916C159.975 195.149 159.867 188.86 158.282 187.333C159.033 187.618 160.246 187.655 160.944 187.599C166.596 187.142 172.206 186.16 177.809 185.316C179.412 185.075 183.049 185.246 184.379 184.444C185.53 183.75 185.985 181.316 183.983 181.513C178.396 182.112 172.839 183.042 167.296 183.957C165.814 184.201 164.335 184.463 162.856 184.73C161.869 184.909 159.262 184.895 158.496 185.491C157.566 186.214 157.467 186.706 157.783 187.033C157.344 186.913 156.819 187.102 156.188 187.734C154.996 189.288 156.117 193.113 156.259 194.935C156.43 197.12 156.514 199.309 156.613 201.497C156.805 205.733 157.249 209.911 157.93 214.095C158.693 218.784 159.342 223.491 160.107 228.178C160.307 229.398 160.566 230.588 160.898 231.767C158.836 232.822 160.238 234.5 161.873 234.798C161.884 234.8 161.897 234.802 161.908 234.804C162.418 236.047 163.131 237.2 163.687 235.533C163.73 235.405 163.75 235.248 163.755 235.071C167.978 235.549 172.619 235.252 176.776 235.422C185.782 235.79 194.842 236.343 203.856 236.063C207.425 235.952 211.005 235.635 214.543 235.158C216.617 234.879 218.698 234.546 220.738 234.084C220.884 234.051 221.106 234.016 221.363 233.974C221.405 233.972 221.447 233.971 221.487 233.971C224.611 233.924 227.732 233.84 230.853 233.71C233.473 233.601 236.105 233.545 238.716 233.298C240.338 233.144 243.767 233.173 244.763 231.54C245.668 230.056 244.154 226.233 243.939 224.565C243.561 221.63 243.416 218.667 243.441 215.709Z" fill="#C1DEE2"/>
<path id="Fill 241" opacity="0.5" fill-rule="evenodd" clip-rule="evenodd" d="M211.783 196.086C209.287 196.3 206.979 197.473 204.46 197.487C202.345 197.499 200.264 196.867 198.138 196.96C195.644 197.069 194.272 198.683 192.087 199.223C190.348 199.653 189.252 198.32 187.723 197.731C185.791 196.987 184.365 197.371 182.709 198.497C181.493 199.324 178.656 201.18 178.678 202.853C178.743 207.92 184.651 200.92 185.842 200.835C187.425 200.723 189.192 202.528 190.876 202.631C193.102 202.767 194.53 201.331 196.579 200.808C198.652 200.278 200.893 200.927 202.971 201.128C205.342 201.357 207.417 200.829 209.711 200.262C211.934 199.713 213.828 199.742 216.087 200.203C217.612 200.515 221.409 202.323 222.076 199.998C222.984 196.831 213.528 195.937 211.783 196.086Z" fill="#89C5CC"/>
<path id="Fill 243" opacity="0.5" fill-rule="evenodd" clip-rule="evenodd" d="M212.543 205.75C207.428 206.247 202.283 206.683 197.145 206.822C194.919 206.883 186.365 205.928 187.123 208.758C187.774 211.184 199.415 209.656 201.786 209.472C204.404 209.268 207.017 208.984 209.622 208.654C210.545 208.537 212.775 208.658 213.426 207.883C214.047 207.144 213.741 205.63 212.543 205.75Z" fill="#89C5CC"/>
<path id="have a nice day :)" opacity="0.5" fill-rule="evenodd" clip-rule="evenodd" d="M177.259 218.636C177.143 218.686 177.143 218.686 177.259 218.636V218.636ZM178.338 218.622C179.613 218.582 179.34 217.909 180.612 218.259C181.199 218.421 181.259 218.181 181.714 218.742C182.601 219.837 181.765 222.221 180.89 223.103C177.652 226.369 173.765 218.767 178.338 218.622ZM178.338 215.417C169.471 215.715 173.181 229.421 180.898 226.623C184.086 225.468 186.089 220.262 184.214 217.337C183.302 215.914 182.14 215.661 180.612 215.563C180.257 215.54 179.811 216.055 179.59 216.032C179.063 215.976 179.112 215.388 178.338 215.417Z" fill="#89C5CC"/>
<path id="espero" opacity="0.5" fill-rule="evenodd" clip-rule="evenodd" d="M199.542 219.106C199.384 219.057 202.341 219.918 202.018 219.581C202.708 220.3 201.78 221.999 200.999 222.296C199.107 223.014 198.045 220.071 199.542 219.106ZM200.854 215.39C198.078 215.783 195.935 216.94 195.556 220.03C195.206 222.881 197.131 225.769 200.168 225.824C206.788 225.945 206.99 214.533 200.854 215.39Z" fill="#89C5CC"/>
<path id="hola" opacity="0.5" fill-rule="evenodd" clip-rule="evenodd" d="M231.074 219.231C231.462 224.294 226.215 219.66 231.074 219.231V219.231ZM228.823 213.813C228.364 214.599 228.755 215.431 229.448 215.888C223.258 217.197 224.66 226.517 230.958 225.14C234.161 224.44 234.75 221.069 234.273 218.287C234.046 216.963 230.75 210.515 228.823 213.813Z" fill="#89C5CC"/>
</g>
<path id="Fill 251" opacity="0.5" fill-rule="evenodd" clip-rule="evenodd" d="M243.466 218.677C241.621 219.005 237.259 221.044 237.297 223.234C237.356 226.652 241.063 222.918 241.888 222.416C246.317 219.718 252.055 223.214 256.668 223.958C258.782 224.299 262.919 224.929 264.787 223.511C268.109 220.989 260.427 221.62 259.448 221.519C254.13 220.969 248.839 217.716 243.466 218.677Z" fill="#C1DEE2"/>
<g id="List" opacity="0.5">
<path id="Fill 253" opacity="0.5" fill-rule="evenodd" clip-rule="evenodd" d="M330.615 194.641C330.614 198.139 330.437 201.709 331.081 205.165C331.276 206.211 331.43 208.215 332.533 208.758C333.641 209.303 334.715 208.691 334.991 207.554C335.312 206.232 334.607 204.253 334.536 202.865C334.438 200.968 334.431 199.07 334.431 197.171C334.43 195.8 334.881 193.594 333.263 192.889C332.06 192.364 330.615 193.34 330.615 194.641Z" fill="#C1DEE2"/>
<path id="Fill 255" opacity="0.5" fill-rule="evenodd" clip-rule="evenodd" d="M385.877 189.108C374.296 190.272 362.548 190.513 350.925 191.12C345.552 191.4 339.058 191.043 333.997 193.124C333.057 193.51 329.69 195.661 332.423 196.537C333.275 196.81 334.141 195.892 334.84 195.584C336.005 195.072 337.354 194.914 338.596 194.714C349.158 193.017 360.205 193.312 370.875 192.519C373.609 192.316 376.345 192.107 379.073 191.838C381.022 191.646 385.119 190.24 386.918 190.96C389.992 192.188 389.92 200.172 389.981 202.917C390.013 204.337 388.635 209.434 391.373 208.918C393.564 208.504 392.771 203.209 392.6 201.76C392.152 197.964 391.388 188.55 385.877 189.108Z" fill="#C1DEE2"/>
<path id="Fill 257" opacity="0.5" fill-rule="evenodd" clip-rule="evenodd" d="M390.148 208.734C380.088 209.643 369.797 208.751 359.696 209.108C354.401 209.296 349.112 209.594 343.817 209.769C341.526 209.845 339.234 209.848 336.943 209.865C335.847 209.872 330.859 210.537 333.945 212.711C335.311 213.674 339.664 212.898 341.232 212.88C343.586 212.852 345.939 212.754 348.292 212.662C353.741 212.448 359.188 212.153 364.64 212.005C369.856 211.864 375.074 211.834 380.29 211.693C382.885 211.622 385.515 211.542 388.087 211.163C388.668 211.078 390.553 211.01 390.956 210.362C391.337 209.75 391.069 208.645 390.148 208.734Z" fill="#89C5CC"/>
<path id="Fill 259" opacity="0.5" fill-rule="evenodd" clip-rule="evenodd" d="M340.707 201.176C340.653 201.304 340.653 201.304 340.707 201.176V201.176ZM345.063 199.851C345.222 199.918 345.222 199.918 345.063 199.851V199.851ZM344.859 199.814C347.207 202.209 343.596 205.067 341.397 202.73C339.063 200.25 343.348 199.822 344.859 199.814ZM342.369 196.192C334.283 197.631 337.146 208.416 344.698 206.857C348.014 206.173 349.91 202.83 348.769 199.62C348.323 198.365 347.352 196.989 345.998 196.593C345.323 196.396 344.726 196.706 344.083 196.634C343.47 196.565 343.13 196.054 342.369 196.192Z" fill="#C1DEE2"/>
<path id="Fill 261" opacity="0.5" fill-rule="evenodd" clip-rule="evenodd" d="M373.317 199.227C368.441 199.242 363.563 199.45 358.688 199.542C357.192 199.57 353.349 198.901 353.343 201.26C353.336 203.781 357.618 202.85 359.043 202.816C363.879 202.7 368.727 202.488 373.544 202.027C374.761 201.911 378.973 202.112 378.969 200.456C378.964 198.702 374.299 199.227 373.317 199.227Z" fill="#C1DEE2"/>
<path id="Fill 263" opacity="0.5" fill-rule="evenodd" clip-rule="evenodd" d="M384.963 215.68C372.903 216.003 360.862 216.116 348.811 216.734C344.304 216.965 339.803 217.137 335.289 217.137C334.419 217.137 332.669 216.8 331.851 217.348C329.63 218.834 332.159 220.109 333.606 220.189C343.505 220.739 353.548 219.371 363.442 219.062C369.234 218.881 375.027 218.828 380.816 218.533C382.395 218.453 383.974 218.359 385.551 218.237C386.457 218.167 388.855 218.359 389.588 217.829C392.788 215.511 386.042 215.651 384.963 215.68Z" fill="#89C5CC"/>
<path id="Fill 265" opacity="0.5" fill-rule="evenodd" clip-rule="evenodd" d="M329.63 221.58C329.517 224.709 329.505 227.783 329.914 230.895C330.075 232.119 330.149 233.509 331.583 233.82C332.886 234.102 333.546 233.117 333.816 232.024C334.474 229.354 333.895 225.513 333.887 222.74C333.884 221.369 333.882 219.835 332.189 219.525C330.898 219.288 329.679 220.222 329.63 221.58Z" fill="#89C5CC"/>
<path id="Fill 267" opacity="0.5" fill-rule="evenodd" clip-rule="evenodd" d="M397.746 229.123C378.224 230.153 358.728 231.051 339.192 231.878C337.668 231.942 325.832 231.813 329.97 235.944C331.248 237.219 334.541 236.355 336.194 236.274C338.678 236.152 341.162 236.059 343.646 235.932C353.494 235.431 363.367 235.295 373.208 234.732C378.623 234.423 384.026 233.938 389.413 233.307C391.975 233.007 395.156 233.038 397.556 232.033C398.791 231.516 400.123 228.997 397.746 229.123Z" fill="#89C5CC"/>
<path id="Fill 269" opacity="0.5" fill-rule="evenodd" clip-rule="evenodd" d="M386.522 213.252C385.037 214.731 385.8 217.65 385.912 219.479C386.066 221.996 386.253 224.514 386.567 227.016C386.771 228.642 386.663 231.173 387.53 232.577C388.545 234.221 390.78 234.04 391.698 232.451C392.509 231.046 392.099 228.089 392.078 226.532C392.049 224.378 391.915 222.222 391.787 220.073C391.68 218.276 392.087 215.398 391.099 213.861C390.096 212.299 387.913 211.867 386.522 213.252Z" fill="#89C5CC"/>
<path id="Fill 271" opacity="0.5" fill-rule="evenodd" clip-rule="evenodd" d="M341.9 224.734C341.726 224.868 341.726 224.868 341.9 224.734V224.734ZM345.367 224.299C348.603 224.95 343.371 228.73 341.718 226.136C341.46 225.73 341.325 225.232 341.74 224.88C342.118 224.558 342.356 225.128 342.713 224.975C343.329 224.711 344.711 224.274 345.367 224.299ZM344.921 221.196C342.712 221.371 339.675 221.507 338.582 223.723C337.113 226.699 339.625 229.614 342.531 230.066C345.328 230.502 349.503 228.952 349.727 225.688C349.907 223.057 347.406 220.994 344.921 221.196Z" fill="#89C5CC"/>
<path id="Fill 273" opacity="0.5" fill-rule="evenodd" clip-rule="evenodd" d="M363.363 222.769C361.076 222.806 356.581 222.13 354.589 223.245C352.618 224.349 353.497 226.314 355.295 226.784C356.484 227.095 358.427 226.593 359.664 226.543C361.292 226.477 362.922 226.462 364.551 226.44C367.29 226.403 370.029 226.434 372.769 226.434C375.567 226.434 378.413 226.511 381.207 226.305C384.741 226.044 384.646 223.396 381.189 223.065C375.317 222.502 369.254 222.677 363.363 222.769Z" fill="#89C5CC"/>
<path id="Fill 275" opacity="0.5" fill-rule="evenodd" clip-rule="evenodd" d="M357.522 252.43C357.522 253.689 358.637 252.43 358.629 252.43C358.637 252.43 357.522 251.172 357.522 252.43Z" fill="#89C5CC"/>
<path id="Fill 277" opacity="0.5" fill-rule="evenodd" clip-rule="evenodd" d="M332.284 242.301C332.356 245.959 332.403 249.62 332.559 253.274C332.609 254.43 332.278 256.687 333.678 257.276C335.236 257.931 335.72 256.297 335.9 255.189C336.468 251.68 335.911 247.674 335.857 244.123C335.838 242.931 336.096 241.271 334.743 240.677C333.639 240.192 332.262 241.092 332.284 242.301Z" fill="#89C5CC"/>
<path id="Fill 279" opacity="0.5" fill-rule="evenodd" clip-rule="evenodd" d="M392.392 242.359C392.484 242.577 392.484 242.577 392.392 242.359V242.359ZM392.522 242.321C392.597 242.353 392.9 242.48 392.522 242.321V242.321ZM362.995 239.365C357.384 239.453 351.769 239.52 346.161 239.76C343.768 239.863 341.347 239.946 338.962 240.172C337.273 240.332 333.077 240.398 331.981 241.78C329.72 244.631 334.515 243.853 335.547 243.622C337.427 243.2 339.345 243.065 341.265 242.964C345.431 242.744 349.599 242.626 353.77 242.542C365.082 242.315 376.402 242.349 387.716 242.298C388.811 242.293 390.791 241.852 391.803 242.296C392.816 242.74 392.759 243.833 392.864 245.101C393.004 246.789 391.892 250.005 392.739 251.425C394.054 253.627 395.966 251.757 396.259 250.152C396.662 247.933 396.023 245.27 395.396 243.149C394.512 240.158 393.284 240.038 390.392 239.805C387.014 239.531 383.647 239.366 380.257 239.334C374.504 239.282 368.747 239.276 362.995 239.365Z" fill="#89C5CC"/>
<path id="Fill 281" opacity="0.5" fill-rule="evenodd" clip-rule="evenodd" d="M385.188 254.484C373.018 255.899 360.501 255.065 348.266 255.115C345.29 255.127 342.312 255.151 339.34 255.296C337.77 255.372 334.048 254.939 332.973 256.15C330.705 258.705 334.79 259.077 336.281 258.971C339.295 258.757 342.317 258.659 345.339 258.635C355.985 258.553 366.691 259.05 377.328 258.525C381.784 258.305 386.141 257.542 390.515 256.689C391.484 256.5 398.117 255.239 394.334 253.726C392.099 252.832 387.536 254.21 385.188 254.484Z" fill="#89C5CC"/>
<path id="Fill 284" opacity="0.5" fill-rule="evenodd" clip-rule="evenodd" d="M349.654 249.808C349.569 249.917 349.569 249.917 349.654 249.808V249.808ZM349.572 249.789C349.543 249.867 349.454 250.06 349.572 249.789V249.789ZM348.804 248.798C348.822 248.821 348.895 248.913 348.804 248.798V248.798ZM348.775 248.79C349.068 249.14 349.265 249.531 349.367 249.962C346.845 250.645 345.874 248.604 348.775 248.79ZM348.615 248.695C348.616 248.695 348.971 248.845 348.615 248.695V248.695ZM344.473 245.654C342.841 247.687 341.494 250.057 343.529 252.38C345.348 254.457 349.008 254.725 351.317 253.338C353.695 251.91 353.49 248.902 351.831 246.939C350.763 245.675 349.897 245.71 348.347 245.503C347.291 245.363 345.369 244.542 344.473 245.654Z" fill="#89C5CC"/>
<path id="Fill 286" opacity="0.5" fill-rule="evenodd" clip-rule="evenodd" d="M361.343 249.417C361.343 252.125 373.028 250.96 375.107 250.957C376.848 250.954 387.378 251.916 386.622 249.129C386.001 246.839 375.629 247.977 373.421 247.974C371.511 247.971 361.343 246.66 361.343 249.417Z" fill="#89C5CC"/>
</g>
<g id="Checkmark!" opacity="0.5">
<path id="Fill 292" opacity="0.5" fill-rule="evenodd" clip-rule="evenodd" d="M208.794 274.789C214.646 275.64 220.733 278.393 220.682 285.21C220.639 290.941 215.836 297.04 209.668 296.698C204.117 296.39 198.89 290.316 198.195 285.11C197.835 282.413 198.509 279.51 200.094 277.291C202.171 274.384 205.467 274.389 208.794 274.789ZM206.029 271.084C201.797 271.108 198.7 272.64 196.081 275.874C195.141 277.033 194.049 278.281 193.333 279.595C192.665 280.822 192.783 283.942 195.075 282.479C194.51 288.52 198.038 294.383 203.11 297.478C208.623 300.842 214.854 300.186 219.442 295.47C223.642 291.153 225.12 283.862 222.047 278.523C218.977 273.186 211.861 271.027 206.029 271.084Z" fill="#89C5CC"/>
<path id="Fill 294" opacity="0.5" fill-rule="evenodd" clip-rule="evenodd" d="M218.721 269.466C216.012 271.453 213.537 274.07 211.482 276.724C209.473 279.319 208.145 282.558 205.733 284.82C204.514 283.492 203.086 279.905 200.655 281.328C198.638 282.509 199.937 284.54 200.919 285.873C203.456 289.317 206.274 290.702 209.527 287.3C212.482 284.211 214.16 280.09 216.923 276.823C218.135 275.389 220.007 273.966 220.972 272.384C221.847 270.949 220.765 267.963 218.721 269.466Z" fill="#89C5CC"/>
</g>
<g id="Whiteboard Stuff" opacity="0.5">
<path id="Wireframy Stuff_2" opacity="0.5" fill-rule="evenodd" clip-rule="evenodd" d="M293.21 71.9021C293.301 71.8882 293.39 71.8783 293.476 71.8729C295.735 71.7295 298.025 71.7888 300.289 71.7363C304.924 71.6288 309.743 71.8823 314.351 71.3391C315.288 71.2177 315.616 72.4201 315.195 73.0434C314.724 73.7431 313.214 73.7075 312.516 73.811C310.47 74.1141 308.397 74.2199 306.333 74.3114C304.165 74.4075 301.996 74.4794 299.826 74.5398C297.948 74.5917 293.778 75.3781 292.04 74.5911C290.686 73.9779 290.717 73.297 291.27 72.7694C290.935 72.0322 290.99 70.825 290.918 70.2456C290.617 67.8177 290.436 65.4208 290.432 62.972C290.423 58.1755 290.433 53.1938 291.759 48.551C291.228 48.3183 290.908 47.9753 290.909 47.4808C290.916 44.5445 301.681 45.2457 303.864 45.1875C306.547 45.1174 309.23 45.1082 311.914 45.1228C313.687 45.1322 316.085 44.7492 317.851 45.1598C321.289 45.9585 321.071 51.8566 321.142 54.7085C321.268 59.8241 321.195 65.2021 320.78 70.3058C320.636 72.0679 319.355 74.3014 317.894 71.8723C317.079 70.5179 317.442 67.354 317.441 65.8576C317.437 60.5378 318.27 55.0572 317.473 49.7648C317.212 48.0297 317.27 47.9125 315.506 47.949C314.107 47.9781 312.707 48.0246 311.308 48.054C308.459 48.1139 305.608 48.1529 302.76 48.2573C301.678 48.2972 297.791 48.9767 294.759 48.9741C294.761 48.9983 294.763 49.0226 294.764 49.0474C294.806 51.0984 293.801 53.5876 293.664 55.7455C293.335 60.9356 293.728 66.2471 293.242 71.4109C293.227 71.5675 293.219 71.7342 293.21 71.9021Z" fill="#89C5CC"/>
<path id="Wireframy Stuff_3" opacity="0.5" fill-rule="evenodd" clip-rule="evenodd" d="M334.022 73.4026C333.669 73.0426 333.352 72.514 333.148 71.8544C332.417 69.4867 332.348 66.9316 332.294 64.4763C332.178 59.2286 332.236 53.9717 332.204 48.7222C331.728 48.0828 332.011 47.3517 332.604 46.8415C334.208 45.464 338.829 45.8136 340.864 45.7058C343.794 45.5507 346.726 45.5151 349.659 45.5042C352.765 45.4885 355.875 45.5444 358.98 45.64C360.131 45.6753 368.14 45.8769 364.56 47.8198C364.356 47.9311 364.125 48.024 363.873 48.1012C364.022 48.984 364.04 49.8955 364.016 50.3346C363.864 53.1283 363.799 55.9272 363.675 58.7224C363.537 61.8424 363.405 64.9621 363.297 68.0835C363.24 69.7335 363.805 73.5703 362.5 74.7616C361.62 75.5647 361.019 75.4038 360.614 74.8583C357.491 75.7659 350.285 75.181 348.972 75.1817C346.62 75.1825 333.847 76.6955 333.826 73.9727C333.824 73.7615 333.893 73.5722 334.022 73.4026ZM336.097 72.4396C339.661 71.6782 346.304 72.1869 347.702 72.1818C350.306 72.1715 352.91 72.2077 355.511 72.3118C356.322 72.3442 358.306 72.188 359.872 72.3617C359.858 72.2198 359.849 72.0902 359.843 71.9781C359.701 69.1684 359.856 66.3293 359.946 63.5196C360.037 60.6876 360.177 57.8579 360.286 55.0265C360.342 53.5702 359.974 50.5302 360.373 48.4342C358.481 48.3983 356.498 48.1696 355.223 48.1694C352.228 48.1691 349.236 48.1352 346.242 48.1945C343.008 48.2586 339.739 48.2966 336.528 48.7234C336.352 48.7469 336.141 48.792 335.907 48.8468C336.396 50.8929 335.802 54.1834 335.8 56.079C335.794 61.3905 335.99 66.6732 336.109 71.9568C336.112 72.1299 336.108 72.2907 336.097 72.4396Z" fill="#89C5CC"/>
<path id="Fill 135" opacity="0.5" fill-rule="evenodd" clip-rule="evenodd" d="M303.958 74.4283C302.033 75.5537 303.071 80.0558 303.738 81.6129C304.834 84.1731 307.059 86.1765 309.46 87.5055C314.312 90.1915 321.307 89.4781 324.977 94.135C325.015 94.1831 326.283 95.4397 326.572 93.8125C326.809 92.4769 324.441 90.4373 323.523 89.7678C320.914 87.8642 317.567 87.2503 314.549 86.2994C311.33 85.2852 307.797 83.4155 306.448 80.0948C305.97 78.9186 306.881 72.7115 303.958 74.4283Z" fill="#C1DEE2"/>
<path id="Fill 137" opacity="0.5" fill-rule="evenodd" clip-rule="evenodd" d="M347.972 76.5927C346.207 77.0794 347.374 79.5088 347.371 80.7252C347.368 82.2427 346.883 83.8309 345.948 85.0419C343.578 88.1131 338.937 88.5733 335.458 89.4538C332.931 90.0937 326.887 91.4655 326.65 94.8845C326.386 98.7028 331.722 94.0562 332.173 93.8657C337.161 92.0349 343.614 91.6813 347.464 87.6512C349.053 85.9877 349.992 83.7673 350.142 81.4757C350.226 80.1854 350.24 75.9725 347.972 76.5927Z" fill="#C1DEE2"/>
<path id="Fill 139" opacity="0.5" fill-rule="evenodd" clip-rule="evenodd" d="M324.341 97.5151C331.684 95.5793 338.524 100.728 339.39 108.135C340.304 115.951 334.416 122.244 326.652 122.589C319.823 122.892 311.56 117.999 311.516 110.461C311.475 103.396 318.231 99.1227 324.341 97.5151ZM327.875 102.784C326.619 103.517 326.389 101.616 325.5 101.365C324.607 101.114 323.172 102.053 322.429 102.601C321.166 103.531 317.669 108.947 315.974 106.006C310.83 114.894 323.654 121.546 330.947 118.183C338.956 114.488 337.397 100.982 327.92 100.912C328.317 101.452 328.675 102.314 327.875 102.784Z" fill="#89C5CC"/>
<path id="Fill 141" opacity="0.5" fill-rule="evenodd" clip-rule="evenodd" d="M321.198 108.096C321.198 109.717 323.757 109.717 323.757 108.096C323.757 106.493 321.198 106.424 321.198 108.096Z" fill="#89C5CC"/>
<path id="Fill 143" opacity="0.5" fill-rule="evenodd" clip-rule="evenodd" d="M325.701 107.791C325.701 109.778 328.837 109.778 328.837 107.791C328.837 105.828 325.701 105.744 325.701 107.791Z" fill="#89C5CC"/>
<path id="Fill 145" opacity="0.5" fill-rule="evenodd" clip-rule="evenodd" d="M322.479 112.42C319.914 113.929 327.248 116.929 327.538 113.864C327.663 112.541 326.383 112.898 325.53 112.801C324.714 112.707 323.253 111.969 322.479 112.42Z" fill="#89C5CC"/>
<path id="Fill 147" opacity="0.5" fill-rule="evenodd" clip-rule="evenodd" d="M321.366 123.129C321.478 126.985 321.424 130.838 322.155 134.64C322.294 135.362 322.39 137.981 322.961 138.518C324.363 139.837 324.387 137.308 324.441 136.339C324.636 132.868 324.272 129.288 324.191 125.809C324.174 125.061 324.372 123.51 324.019 122.785C323.458 121.634 321.312 121.293 321.366 123.129Z" fill="#C1DEE2"/>
<path id="Fill 149" opacity="0.5" fill-rule="evenodd" clip-rule="evenodd" d="M318.623 120.003C313.001 126.318 305.258 125.853 297.458 126.406C293.337 126.698 289.17 127.298 285.854 129.965C284.311 131.206 282.981 132.76 282.088 134.532C281.697 135.306 279.844 139.774 282.627 138.714C283.614 138.338 284.586 135.383 285.224 134.509C286.44 132.845 287.995 131.471 289.861 130.577C293.461 128.854 297.759 128.884 301.662 128.665C305.741 128.437 310.12 128.223 313.871 126.448C315.635 125.613 317.29 124.571 318.71 123.229C319.217 122.749 320.305 121.934 320.386 121.2C320.479 120.362 319.673 118.827 318.623 120.003Z" fill="#C1DEE2"/>
<path id="Fill 151" opacity="0.5" fill-rule="evenodd" clip-rule="evenodd" d="M290.24 139.385C284.958 139.561 279.683 139.775 274.409 140.109C273.328 140.178 269.725 139.959 270.643 142.176C271.378 143.952 275.773 142.777 277.227 142.691C282.723 142.364 288.241 142.251 293.725 141.756C294.957 141.645 300.526 141.689 298.226 139.505C297.132 138.465 291.751 139.333 290.24 139.385Z" fill="#89C5CC"/>
<path id="Fill 153" opacity="0.5" fill-rule="evenodd" clip-rule="evenodd" d="M267.289 141.934C265.624 144.122 266.389 149.439 266.515 152.069C266.637 154.618 266.142 159.278 269.467 159.674C268.411 159.535 270.269 159.738 270.571 159.754C271.246 159.79 271.924 159.802 272.6 159.809C274.161 159.826 275.724 159.806 277.285 159.774C280.822 159.704 284.368 159.601 287.9 159.405C289.385 159.323 297.44 159.391 297.759 157.848C298.166 155.876 290.443 156.991 289.061 157.054C285.694 157.209 282.322 157.241 278.952 157.286C277.281 157.308 275.609 157.324 273.939 157.291C273.25 157.278 270.518 157.561 270.099 157.101C269.742 156.709 270.021 153.105 270.013 152.554C269.988 150.757 269.99 148.956 270.054 147.16C270.097 145.951 270.751 143.65 270.218 142.514C269.7 141.409 268.191 141.033 267.289 141.934Z" fill="#89C5CC"/>
<path id="Fill 155" opacity="0.5" fill-rule="evenodd" clip-rule="evenodd" d="M294.484 142.036C294.581 146.039 294.611 150.122 295.555 154.036C295.87 155.339 296.31 158.025 297.618 158.7C298.991 159.408 300.176 158.397 300.266 157.036C300.379 155.325 299.463 153.079 299.275 151.323C299.056 149.275 298.928 147.224 298.853 145.166C298.797 143.618 299.267 141.297 297.792 140.299C296.467 139.402 294.441 140.305 294.484 142.036Z" fill="#89C5CC"/>
<path id="Fill 157" opacity="0.5" fill-rule="evenodd" clip-rule="evenodd" d="M304.995 141.059C303.352 142.696 304.086 147.88 304.292 149.984C304.442 151.524 306.127 159.104 308.653 155.152C309.77 153.403 308.351 148.78 308.361 146.741C308.367 145.443 308.827 143.801 308.605 142.553C308.312 140.905 306.485 139.57 304.995 141.059Z" fill="#89C5CC"/>
<path id="Wireframy Stuff_4" opacity="0.5" fill-rule="evenodd" clip-rule="evenodd" d="M343.633 154.588C343.995 154.98 344.155 155.538 343.92 156.084C343.355 157.396 341.277 157.113 340.149 157.207C336.382 157.521 332.598 157.731 328.817 157.764C325.165 157.796 321.512 157.702 317.859 157.738C314.817 157.768 311.648 158.385 308.633 158.261C307.375 158.209 306.031 157.797 306.35 156.17C306.632 154.726 308.084 154.714 309.268 154.594C312.834 154.23 316.402 154.102 319.986 154.115C327.516 154.141 335.039 154.102 342.569 154.062C342.878 154.088 343.17 154.206 343.41 154.387C343.016 153.908 343.205 153.2 343.132 152.509C342.934 150.645 342.806 148.813 342.453 146.949C342.17 145.458 341.958 142.926 340.578 141.988C339.07 140.965 335.725 141.303 333.926 141.257C329.087 141.132 324.219 141.476 319.402 141.914C317.205 142.114 314.981 142.266 312.809 142.661C311.599 142.881 308.05 144.658 307.084 143.564C304.758 140.932 314.98 139.851 316.368 139.707C321.302 139.198 326.241 138.816 331.202 138.769C334.552 138.742 340.286 138.457 342.749 141.207C344.228 142.859 344.747 145.579 345.324 147.64C345.768 149.223 346.97 152.077 346.116 153.712C345.729 154.451 345.107 155.082 344.162 154.82C343.941 154.759 343.768 154.68 343.633 154.588Z" fill="#89C5CC"/>
<path id="Line" opacity="0.5" fill-rule="evenodd" clip-rule="evenodd" d="M368.858 133.714C369.072 133.99 369.072 133.99 368.858 133.714V133.714ZM335.47 117.404C332.474 119.166 338.02 124.338 339.433 125.138C342.612 126.937 346.98 127.209 350.53 127.715C355.023 128.356 359.913 128.592 364.23 130.065C366.07 130.693 367.239 131.672 368.444 133.178C369.054 133.941 370.524 137.229 371.862 136.45C374.557 134.883 367.295 128.305 365.695 127.598C362.058 125.99 357.759 125.54 353.87 124.915C350.254 124.335 346.56 123.903 343.033 122.879C341.093 122.316 339.715 121.409 338.597 119.671C337.9 118.588 337.329 116.316 335.47 117.404Z" fill="#C1DEE2"/>
<path id="Wireframy Stuff_5" opacity="0.5" fill-rule="evenodd" clip-rule="evenodd" d="M351.546 155.479C350.65 153.76 350.238 150.457 350.158 149.805C349.813 146.995 349.787 144.217 349.835 141.39C349.863 139.838 351.638 139.097 352.789 139.968C354.328 139.323 356.931 139.226 358.33 139.085C360.629 138.853 362.948 138.766 365.254 138.628C370.637 138.306 376.014 137.726 381.407 137.606C383.02 137.572 385.182 137.426 386.472 138.618C387.941 139.976 388.234 143.342 388.674 145.156C389.153 147.126 389.724 149.131 389.924 151.152C389.971 151.625 390.097 152.439 390.04 153.17C390.712 153.262 391.114 153.913 391.046 154.625C390.92 155.947 389.09 156.127 388.019 156.336C384.46 157.032 380.654 156.874 377.045 156.976C369.495 157.188 361.42 158.409 353.898 157.682C352.611 157.558 351.227 157.103 351.546 155.479ZM354.264 153.924C354.563 153.922 354.859 153.927 355.134 153.923C358.932 153.856 362.727 153.741 366.522 153.595C370.392 153.446 374.262 153.28 378.135 153.236C381.214 153.201 384.385 153.467 387.486 153.347C386.819 151.601 386.92 148.852 386.564 147.043C386.212 145.248 386.077 143.118 385.356 141.432C384.544 139.535 383.838 139.974 381.723 140.118C379.549 140.265 377.377 140.473 375.205 140.652C370.43 141.045 365.651 141.293 360.873 141.626C358.395 141.799 356.024 142.507 353.6 142.784C353.563 143.65 353.441 144.524 353.455 145.156C353.495 147.019 353.679 148.869 353.841 150.725C353.906 151.48 354.218 152.782 354.264 153.924Z" fill="#89C5CC"/>
</g>
</g>
</svg>
