<svg width="478" height="603" viewBox="0 0 478 603" fill="none" xmlns="http://www.w3.org/2000/svg">
<g id="Coding_SVG" clip-path="url(#clip0)">
<g id="&#208;&#161;&#208;&#187;&#208;&#190;&#208;&#185; 2">
<g id="&#208;&#161;&#208;&#187;&#208;&#190;&#208;&#185; 1">
<path id="Vector" opacity="0.4" d="M25.7427 576.227L0 561.489L38.5177 539.432L64.2484 554.157L25.7427 576.227Z" fill="#D6D8E5"/>
<path id="Vector_2" d="M26.2728 546.523L4.95312 534.21L26.2728 521.896L47.5805 534.21L26.2728 546.523Z" fill="#D6D8E5"/>
<path id="Vector_3" d="M26.2728 571.15L4.95312 558.837V534.21L26.2728 546.523V571.15Z" fill="#B1B6C4"/>
<path id="Vector_4" d="M47.5927 558.837L26.2729 571.15V546.523L47.5927 534.21V558.837Z" fill="#C4C7D6"/>
<g id="Men 5">
<path id="Vector_5" d="M54.9205 551.142C56.7641 551.655 58.736 551.417 60.4041 550.478C61.7298 550.478 68.9127 547.451 69.8889 550.032C70.7446 552.287 67.6352 554.386 65.972 554.784C62.3565 555.664 59.6569 557.473 58.1986 557.787C57.6432 557.986 57.0475 558.046 56.4635 557.962C55.8795 557.878 55.3249 557.652 54.8482 557.304C53.8117 556.219 53.9082 552.432 54.9205 551.142Z" fill="#38226D"/>
<path id="Vector_6" d="M58.1984 557.099C59.6566 556.786 62.3442 554.977 65.9718 554.096C67.3578 553.759 69.7561 552.239 69.9971 550.418C70.3225 552.504 67.5144 554.35 65.9718 554.723C62.3563 555.604 59.6566 557.413 58.1984 557.726C57.643 557.926 57.0473 557.986 56.4633 557.902C55.8793 557.818 55.3247 557.592 54.848 557.244C54.6182 557.001 54.4562 556.701 54.3779 556.376C54.9142 556.786 55.5389 557.065 56.2023 557.191C56.8657 557.317 57.5493 557.285 58.1984 557.099Z" fill="#9C73FF"/>
<path id="Vector_7" d="M41.9767 544.184C43.8203 544.697 45.7922 544.459 47.4603 543.52C48.786 543.52 55.8966 540.493 56.9331 543.074C57.7887 545.329 54.6794 547.428 53.0283 547.826C49.4127 548.706 46.7131 550.515 45.2548 550.829C44.6994 551.028 44.1037 551.088 43.5197 551.004C42.9357 550.92 42.3812 550.694 41.9044 550.346C40.868 549.321 40.9764 545.534 41.9767 544.184Z" fill="#38226D"/>
<path id="Vector_8" d="M45.2545 550.202C46.7128 549.888 49.4003 548.079 53.028 547.199C54.4139 546.861 56.8122 545.342 57.0533 543.521C57.3787 545.607 54.5706 547.452 53.028 547.826C49.4124 548.706 46.7128 550.515 45.2545 550.829C44.6991 551.028 44.1034 551.088 43.5194 551.004C42.9354 550.92 42.3808 550.694 41.9041 550.347C41.6771 550.106 41.5153 549.811 41.4341 549.49C41.9722 549.897 42.5975 550.173 43.2605 550.297C43.9235 550.42 44.6062 550.388 45.2545 550.202Z" fill="#9C73FF"/>
<path id="Vector_9" d="M21.8139 535.247C27.418 537.659 32.6606 538.093 37.0113 535.777L41.4705 533.196C41.7356 538.961 41.9887 544.497 41.9887 544.497C41.9887 544.497 45.4114 547.09 48.0146 544.774C48.0146 544.774 48.569 536.694 49.1355 528.734L53.8116 526.033C53.6989 526.458 53.6382 526.895 53.6308 527.335C53.6308 528.843 54.7155 551.311 54.7155 551.311C54.7155 551.311 58.1623 553.361 60.8257 551.057C60.8257 551.057 62.6215 525.02 63.0312 520.907C63.4892 516.228 58.3069 513.925 55.0168 515.119L50.0032 516.988L50.2442 514.093C50.7142 509.414 45.5199 507.111 42.2418 508.305C39.2529 509.402 19.0541 516.976 19.0541 516.976C19.1797 518.921 19.4172 520.858 19.7651 522.777L11.7868 522.101C11.365 529.566 16.2219 532.786 21.8139 535.247ZM35.7459 522.306L41.0848 519.231C40.9958 519.607 40.9394 519.991 40.9161 520.377L35.7459 522.306Z" fill="#8C50FF"/>
<path id="Vector_10" d="M7.47217 499.284C7.47217 499.284 8.12297 509.21 9.42457 510.645C10.7262 512.08 15.1371 513.057 15.1371 513.057L18.5237 518.58C18.5237 518.58 15.4264 500.876 14.7515 500.49C14.0766 500.104 7.47217 499.284 7.47217 499.284Z" fill="#FFCEA9"/>
<path id="&#60;&#208;&#154;&#208;&#190;&#208;&#189;&#209;&#130;&#209;&#131;&#209;&#128;&#62;" d="M13.9923 488.249C13.171 487.866 12.2381 487.795 11.3684 488.05C10.4987 488.305 9.75188 488.869 9.26795 489.636C8.06276 491.699 6.72501 498.802 6.60449 500.008C7.10541 500.685 7.76899 501.224 8.53373 501.576C9.29847 501.929 10.1396 502.082 10.9793 502.022L13.9923 488.249Z" fill="#EDEDED"/>
<path id="&#60;&#208;&#154;&#208;&#190;&#208;&#189;&#209;&#130;&#209;&#131;&#209;&#128;&#62;_2" d="M15.1854 488.43C16.8968 488.515 18.1743 488.949 18.3912 488.43C18.575 487.547 18.7038 486.652 18.7769 485.753C18.5841 485.246 18.4153 484.716 18.4153 484.716C16.2581 483.389 15.5832 481.098 15.2939 478.348C14.8118 473.705 17.3186 469.653 21.9465 469.17C26.3093 468.712 29.5151 471.775 30.3828 475.984C30.8408 478.059 31.7567 482.014 30.5154 485.403C29.8284 487.309 28.9366 488.828 28.105 489.118C27.2416 489.1 26.3802 489.027 25.5259 488.901C25.5259 488.901 25.2969 490.191 25.1403 491.011C24.9836 491.831 25.0318 492.277 26.6829 493.29C28.334 494.303 24.2002 496.39 21.5006 496.185C18.801 495.98 15.7639 494.352 14.9324 492.567C13.9321 490.613 14.0044 488.322 15.1854 488.43Z" fill="#FFCEA9"/>
<g id="&#60;&#208;&#147;&#209;&#128;&#209;&#131;&#208;&#191;&#208;&#191;&#208;&#176;&#62;">
<g id="&#60;&#208;&#147;&#209;&#128;&#209;&#131;&#208;&#191;&#208;&#191;&#208;&#176;&#62;_2">
<g id="&#60;&#208;&#147;&#209;&#128;&#209;&#131;&#208;&#191;&#208;&#191;&#208;&#176;&#62;_3">
<path id="&#60;&#208;&#154;&#208;&#190;&#208;&#189;&#209;&#130;&#209;&#131;&#209;&#128;&#62;_3" d="M58.6442 518.762C58.6432 519.006 58.5782 519.246 58.4555 519.458C58.3329 519.67 58.1569 519.845 57.9452 519.968L44.869 527.517C44.6568 527.641 44.4156 527.706 44.17 527.706C43.9243 527.706 43.6831 527.641 43.471 527.517L25.1522 516.928C24.9388 516.808 24.7615 516.633 24.6386 516.421C24.5157 516.209 24.4516 515.968 24.4532 515.722V515.626L58.6442 518.762Z" fill="#E5E5E5"/>
<path id="&#60;&#208;&#154;&#208;&#190;&#208;&#189;&#209;&#130;&#209;&#131;&#209;&#128;&#62;_4" d="M57.9452 519.968L44.8689 527.517C44.6584 527.645 44.4163 527.712 44.1699 527.71V518.762H58.6321C58.6324 519.005 58.5692 519.244 58.4487 519.456C58.3282 519.668 58.1546 519.844 57.9452 519.968Z" fill="#E5E5E5"/>
<g id="&#60;&#208;&#147;&#209;&#128;&#209;&#131;&#208;&#191;&#208;&#191;&#208;&#176;&#62;_4">
<path id="&#60;&#208;&#154;&#208;&#190;&#208;&#189;&#209;&#130;&#209;&#131;&#209;&#128;&#62;_5" d="M44.6641 526.83C44.5165 526.918 44.3478 526.964 44.176 526.964C44.0041 526.964 43.8354 526.918 43.6879 526.83L24.6339 515.831C24.3929 515.686 24.3929 515.457 24.6339 515.324L38.6622 507.208L58.6442 518.761L44.6641 526.83Z" fill="#F4F4F4"/>
</g>
<g id="&#60;&#208;&#147;&#209;&#128;&#209;&#131;&#208;&#191;&#208;&#191;&#208;&#176;&#62;_5">
<path id="&#60;&#208;&#154;&#208;&#190;&#208;&#189;&#209;&#130;&#209;&#131;&#209;&#128;&#62;_6" d="M32.4556 518.761L32.552 518.81L38.6623 522.343L42.0127 520.402L42.1091 520.353L35.9024 516.771L32.4556 518.761Z" fill="#BFBFBF"/>
<path id="&#60;&#208;&#154;&#208;&#190;&#208;&#189;&#209;&#130;&#209;&#131;&#209;&#128;&#62;_7" d="M32.5518 518.809L38.662 522.343L42.0125 520.401L35.9022 516.88L32.5518 518.809Z" fill="#E5E5E5"/>
</g>
<path id="Vector_11" d="M53.4619 519.329L54.3417 519.835C54.3842 519.859 54.4319 519.871 54.4803 519.871C54.5287 519.871 54.5764 519.859 54.6189 519.835L55.4625 519.353C55.5469 519.353 55.5589 519.232 55.4625 519.196L54.5827 518.677C54.5394 518.657 54.4921 518.646 54.4441 518.646C54.3962 518.646 54.3489 518.657 54.3056 518.677L53.4619 519.172C53.4017 519.22 53.3896 519.293 53.4619 519.329Z" fill="#3A2C6D"/>
<path id="Vector_12" d="M52.2207 518.581L53.1005 519.087C53.143 519.111 53.1907 519.123 53.2391 519.123C53.2875 519.123 53.3352 519.111 53.3777 519.087L54.2213 518.605C54.3057 518.605 54.3057 518.484 54.2213 518.448L53.3415 517.942C53.299 517.918 53.2514 517.906 53.2029 517.906C53.1545 517.906 53.1068 517.918 53.0643 517.942L52.2207 518.424C52.1605 518.496 52.1484 518.581 52.2207 518.581Z" fill="#3A2C6D"/>
<path id="Vector_13" d="M50.9673 517.894L51.8471 518.4C51.8925 518.421 51.9418 518.432 51.9917 518.432C52.0416 518.432 52.0909 518.421 52.1363 518.4L52.9679 517.918C53.0523 517.918 53.0643 517.797 52.9679 517.749L52.0881 517.242C52.0456 517.219 51.998 517.207 51.9495 517.207C51.9011 517.207 51.8534 517.219 51.8109 517.242L50.9673 517.725C50.907 517.773 50.895 517.845 50.9673 517.894Z" fill="#3A2C6D"/>
<path id="Vector_14" d="M49.7261 517.169L50.6059 517.675C50.6492 517.696 50.6966 517.706 50.7445 517.706C50.7924 517.706 50.8397 517.696 50.8831 517.675L51.7267 517.193C51.8111 517.193 51.8231 517.072 51.7267 517.024L50.8469 516.518C50.8015 516.497 50.7522 516.486 50.7023 516.486C50.6524 516.486 50.6031 516.497 50.5577 516.518L49.7261 517C49.6658 517.048 49.6538 517.121 49.7261 517.169Z" fill="#3A2C6D"/>
<path id="Vector_15" d="M48.4727 516.446L49.3645 516.953C49.407 516.976 49.4547 516.988 49.5031 516.988C49.5515 516.988 49.5992 516.976 49.6417 516.953L50.4733 516.47C50.5576 516.47 50.5697 516.349 50.4733 516.313L49.5935 515.795C49.5501 515.774 49.5028 515.764 49.4549 515.764C49.407 515.764 49.3596 515.774 49.3163 515.795L48.4727 516.289C48.4124 516.337 48.4004 516.41 48.4727 516.446Z" fill="#3A2C6D"/>
<path id="Vector_16" d="M47.231 515.722L48.1108 516.241C48.1541 516.261 48.2014 516.272 48.2494 516.272C48.2973 516.272 48.3446 516.261 48.3879 516.241L49.2316 515.747C49.3159 515.747 49.328 515.626 49.2316 515.59L48.3518 515.083C48.3071 515.06 48.2575 515.048 48.2072 515.048C48.1568 515.048 48.1072 515.06 48.0625 515.083L47.231 515.566C47.1707 515.614 47.1587 515.686 47.231 515.722Z" fill="#3A2C6D"/>
<path id="Vector_17" d="M45.9898 514.963L46.8696 515.469C46.9129 515.489 46.9602 515.5 47.0082 515.5C47.0561 515.5 47.1034 515.489 47.1468 515.469L47.9904 514.987C48.0747 514.987 48.0747 514.866 47.9904 514.818L47.1106 514.311C47.0672 514.291 47.0199 514.28 46.972 514.28C46.9241 514.28 46.8768 514.291 46.8334 514.311L45.9898 514.794C45.9175 514.89 45.9175 514.963 45.9898 514.963Z" fill="#3A2C6D"/>
<path id="Vector_18" d="M44.7363 514.288L45.6161 514.794C45.6586 514.817 45.7063 514.83 45.7547 514.83C45.8032 514.83 45.8508 514.817 45.8933 514.794L46.7369 514.312C46.8213 514.312 46.8334 514.191 46.7369 514.155L45.8572 513.636C45.8138 513.616 45.7665 513.605 45.7186 513.605C45.6707 513.605 45.6233 513.616 45.58 513.636L44.7363 514.131C44.6761 514.179 44.664 514.252 44.7363 514.288Z" fill="#3A2C6D"/>
<path id="Vector_19" d="M43.4953 513.564L44.3751 514.07C44.4176 514.093 44.4652 514.105 44.5137 514.105C44.5621 514.105 44.6098 514.093 44.6523 514.07L45.4959 513.588C45.5803 513.588 45.5803 513.467 45.4959 513.431L44.592 512.912C44.5495 512.889 44.5018 512.877 44.4534 512.877C44.405 512.877 44.3573 512.889 44.3148 512.912L43.4712 513.395C43.3868 513.455 43.3868 513.527 43.4953 513.564Z" fill="#3A2C6D"/>
<path id="Vector_20" d="M42.2418 512.852L43.1216 513.359C43.167 513.379 43.2163 513.39 43.2662 513.39C43.3161 513.39 43.3654 513.379 43.4108 513.359L44.2424 512.876C44.3267 512.876 44.3388 512.756 44.2424 512.707L43.3867 512.189C43.3442 512.166 43.2965 512.153 43.2481 512.153C43.1997 512.153 43.152 512.166 43.1095 512.189L42.2659 512.671C42.1815 512.731 42.1815 512.804 42.2418 512.852Z" fill="#3A2C6D"/>
<path id="Vector_21" d="M40.9761 512.128L41.8559 512.635C41.8992 512.655 41.9465 512.666 41.9945 512.666C42.0424 512.666 42.0897 512.655 42.133 512.635L42.9767 512.152C43.061 512.152 43.0731 512.032 42.9767 511.984L42.1813 511.465C42.1358 511.444 42.0865 511.434 42.0366 511.434C41.9867 511.434 41.9374 511.444 41.892 511.465L41.0604 511.947C40.9761 512.008 40.9761 512.08 40.9761 512.128Z" fill="#3A2C6D"/>
<path id="Vector_22" d="M39.7708 511.405L40.6627 511.911C40.7052 511.935 40.7528 511.947 40.8013 511.947C40.8497 511.947 40.8973 511.935 40.9399 511.911L41.7835 511.429C41.8558 511.429 41.8678 511.308 41.7835 511.272L40.9037 510.754C40.8603 510.733 40.813 510.723 40.7651 510.723C40.7172 510.723 40.6699 510.733 40.6265 510.754L39.7829 511.248C39.6865 511.345 39.6865 511.345 39.7708 511.405Z" fill="#3A2C6D"/>
<path id="Vector_23" d="M38.5657 510.681L39.4454 511.2C39.4888 511.22 39.5361 511.231 39.584 511.231C39.632 511.231 39.6793 511.22 39.7226 511.2L40.5663 510.706C40.6506 510.706 40.6627 510.585 40.5663 510.549L39.6865 510.042C39.6418 510.019 39.5922 510.007 39.5419 510.007C39.4915 510.007 39.4419 510.019 39.3972 510.042L38.5657 510.525C38.4451 510.573 38.4331 510.645 38.5657 510.681Z" fill="#3A2C6D"/>
<path id="Vector_24" d="M36.6619 509.62L38.1442 510.476C38.1876 510.496 38.2349 510.507 38.2828 510.507C38.3308 510.507 38.3781 510.496 38.4214 510.476L39.2651 509.994C39.3494 509.994 39.3494 509.873 39.2651 509.825L37.7947 508.932C37.7514 508.912 37.7041 508.901 37.6561 508.901C37.6082 508.901 37.5609 508.912 37.5175 508.932L36.6739 509.427C36.6613 509.426 36.6486 509.428 36.6366 509.432C36.6246 509.436 36.6135 509.442 36.604 509.451C36.5945 509.459 36.5867 509.469 36.5811 509.481C36.5755 509.492 36.5723 509.505 36.5715 509.517C36.5707 509.53 36.5724 509.543 36.5765 509.555C36.5806 509.567 36.5871 509.578 36.5955 509.587C36.6039 509.597 36.614 509.605 36.6254 509.61C36.6368 509.616 36.6492 509.619 36.6619 509.62Z" fill="#3A2C6D"/>
<path id="Vector_25" d="M50.4007 518.954L51.2926 519.46C51.3351 519.484 51.3827 519.496 51.4312 519.496C51.4796 519.496 51.5272 519.484 51.5698 519.46L52.4134 518.978C52.4857 518.978 52.4977 518.857 52.4134 518.821L51.5336 518.315C51.4911 518.291 51.4434 518.279 51.395 518.279C51.3466 518.279 51.2989 518.291 51.2564 518.315L50.4128 518.797C50.3405 518.845 50.3405 518.918 50.4007 518.954Z" fill="#3A2C6D"/>
<path id="Vector_26" d="M49.1592 518.231L50.039 518.75C50.0823 518.77 50.1297 518.781 50.1776 518.781C50.2255 518.781 50.2728 518.77 50.3162 518.75L51.1598 518.255C51.2442 518.255 51.2562 518.135 51.1598 518.099L50.28 517.592C50.2353 517.569 50.1857 517.557 50.1354 517.557C50.085 517.557 50.0354 517.569 49.9908 517.592L49.1592 518.074C49.0989 518.123 49.0869 518.195 49.1592 518.231Z" fill="#3A2C6D"/>
<path id="Vector_27" d="M47.9058 517.519L48.7856 518.026C48.831 518.046 48.8803 518.057 48.9302 518.057C48.9801 518.057 49.0294 518.046 49.0748 518.026L49.9064 517.543C49.9907 517.543 50.0028 517.423 49.9064 517.374L49.0266 516.868C48.9832 516.847 48.9359 516.837 48.888 516.837C48.8401 516.837 48.7928 516.847 48.7494 516.868L47.9058 517.35C47.8455 517.374 47.8335 517.471 47.9058 517.519Z" fill="#3A2C6D"/>
<path id="Vector_28" d="M46.6646 516.796L47.5444 517.302C47.5877 517.323 47.635 517.333 47.683 517.333C47.7309 517.333 47.7782 517.323 47.8216 517.302L48.6652 516.82C48.7495 516.82 48.7495 516.699 48.6652 516.651L47.7854 516.144C47.7421 516.124 47.6947 516.113 47.6468 516.113C47.5989 516.113 47.5516 516.124 47.5082 516.144L46.6646 516.627C46.5923 516.675 46.5923 516.747 46.6646 516.796Z" fill="#3A2C6D"/>
<path id="Vector_29" d="M45.4234 516.072L46.3031 516.591C46.3465 516.611 46.3938 516.622 46.4417 516.622C46.4897 516.622 46.537 516.611 46.5803 516.591L47.424 516.096C47.5083 516.096 47.5204 515.976 47.424 515.939L46.5442 515.433C46.4995 515.41 46.4499 515.397 46.3996 515.397C46.3492 515.397 46.2996 515.41 46.2549 515.433L45.4234 515.915C45.3631 515.964 45.351 516.036 45.4234 516.072Z" fill="#3A2C6D"/>
<path id="Vector_30" d="M44.1699 515.36L45.0497 515.867C45.0951 515.887 45.1444 515.898 45.1943 515.898C45.2442 515.898 45.2935 515.887 45.339 515.867L46.1705 515.384C46.2549 515.384 46.267 515.264 46.1705 515.215L45.2908 514.709C45.2474 514.688 45.2001 514.678 45.1522 514.678C45.1042 514.678 45.0569 514.688 45.0136 514.709L44.1699 515.191C44.1097 515.239 44.0976 515.312 44.1699 515.36Z" fill="#3A2C6D"/>
<path id="Vector_31" d="M42.9287 514.636L43.8085 515.143C43.8519 515.163 43.8992 515.174 43.9471 515.174C43.995 515.174 44.0424 515.163 44.0857 515.143L44.9293 514.66C45.0137 514.66 45.0137 514.54 44.9293 514.492L44.0496 513.985C44.0062 513.965 43.9589 513.954 43.911 513.954C43.8631 513.954 43.8157 513.965 43.7724 513.985L42.9287 514.468C42.8564 514.516 42.8564 514.588 42.9287 514.636Z" fill="#3A2C6D"/>
<path id="Vector_32" d="M41.6753 513.913L42.5551 514.42C42.5976 514.443 42.6453 514.455 42.6937 514.455C42.7421 514.455 42.7898 514.443 42.8323 514.42L43.6759 513.937C43.7603 513.937 43.7723 513.817 43.6759 513.78L42.7961 513.262C42.7507 513.241 42.7014 513.23 42.6515 513.23C42.6016 513.23 42.5523 513.241 42.5069 513.262L41.6753 513.756C41.615 513.756 41.603 513.877 41.6753 513.913Z" fill="#3A2C6D"/>
<path id="Vector_33" d="M40.4217 513.189L41.3136 513.696C41.3561 513.719 41.4037 513.731 41.4522 513.731C41.5006 513.731 41.5482 513.719 41.5907 513.696L42.4344 513.213C42.5067 513.213 42.5187 513.093 42.4344 513.057L41.5546 512.55C41.5121 512.527 41.4644 512.515 41.416 512.515C41.3676 512.515 41.3199 512.527 41.2774 512.55L40.4338 513.032C40.3615 513.081 40.3615 513.153 40.4217 513.189Z" fill="#3A2C6D"/>
<path id="Vector_34" d="M39.1807 512.467L40.0605 512.985C40.1038 513.006 40.1511 513.016 40.1991 513.016C40.247 513.016 40.2943 513.006 40.3377 512.985L41.1813 512.491C41.2656 512.491 41.2777 512.37 41.1813 512.334L40.3015 511.827C40.2568 511.804 40.2072 511.792 40.1569 511.792C40.1065 511.792 40.0569 511.804 40.0123 511.827L39.1807 512.31C39.1204 512.358 39.1084 512.43 39.1807 512.467Z" fill="#3A2C6D"/>
<path id="Vector_35" d="M37.9273 511.755L38.807 512.261C38.8525 512.282 38.9018 512.292 38.9517 512.292C39.0016 512.292 39.0509 512.282 39.0963 512.261L39.9279 511.779C40.0122 511.779 40.0243 511.658 39.9279 511.61L39.0481 511.103C39.0047 511.083 38.9574 511.072 38.9095 511.072C38.8616 511.072 38.8142 511.083 38.7709 511.103L37.9273 511.586C37.867 511.634 37.8549 511.706 37.9273 511.755Z" fill="#3A2C6D"/>
<path id="Vector_36" d="M36.6856 511.031L37.5654 511.537C37.6087 511.558 37.656 511.568 37.704 511.568C37.7519 511.568 37.7992 511.558 37.8426 511.537L38.6862 511.055C38.7705 511.055 38.7705 510.934 38.6862 510.886L37.8064 510.38C37.7631 510.359 37.7157 510.349 37.6678 510.349C37.6199 510.349 37.5726 510.359 37.5292 510.38L36.6856 510.862C36.6133 510.91 36.6133 510.983 36.6856 511.031Z" fill="#3A2C6D"/>
<path id="Vector_37" d="M51.6543 519.678L53.1367 520.534C53.18 520.554 53.2274 520.565 53.2753 520.565C53.3232 520.565 53.3705 520.554 53.4139 520.534L54.2575 520.052C54.3419 520.052 54.3539 519.931 54.2575 519.883L52.7751 519.026C52.7297 519.006 52.6804 518.995 52.6305 518.995C52.5806 518.995 52.5313 519.006 52.4859 519.026L51.6543 519.521C51.594 519.569 51.582 519.642 51.6543 519.678Z" fill="#3A2C6D"/>
<path id="Vector_38" d="M36.5774 509.656L37.4571 510.163C37.5294 510.163 37.5294 510.271 37.4571 510.319L36.5653 510.826C36.5273 510.849 36.4834 510.862 36.4388 510.862C36.3941 510.862 36.3502 510.849 36.3122 510.826H36.2399C36.2023 510.808 36.1611 510.798 36.1194 510.798C36.0776 510.798 36.0364 510.808 35.9989 510.826L35.0588 511.369C35.0169 511.386 34.9718 511.396 34.9262 511.396C34.8807 511.396 34.8356 511.386 34.7937 511.369L34.2393 511.043C34.167 511.043 34.167 510.934 34.2393 510.886L35.1191 510.38L35.2999 510.283L35.4324 510.199L35.565 510.126L36.3122 509.692C36.3492 509.663 36.3933 509.645 36.4399 509.638C36.4865 509.632 36.5339 509.638 36.5774 509.656Z" fill="#3A2C6D"/>
<path id="Vector_39" d="M48.6289 522.114L49.5087 522.621C49.5512 522.644 49.5989 522.656 49.6473 522.656C49.6957 522.656 49.7434 522.644 49.7859 522.621L50.6295 522.138C50.7139 522.138 50.7139 522.018 50.6295 521.981L49.7497 521.475C49.7072 521.452 49.6596 521.439 49.6111 521.439C49.5627 521.439 49.5151 521.452 49.4725 521.475L48.6289 521.957C48.5687 522.005 48.5566 522.078 48.6289 522.114Z" fill="#3A2C6D"/>
<path id="Vector_40" d="M47.3877 521.403L48.2675 521.909C48.3109 521.93 48.3582 521.94 48.4061 521.94C48.454 521.94 48.5014 521.93 48.5447 521.909L49.3883 521.427C49.4727 521.427 49.4727 521.306 49.3883 521.258L48.5086 520.752C48.4652 520.731 48.4179 520.721 48.37 520.721C48.322 520.721 48.2747 520.731 48.2314 520.752L47.3877 521.234C47.3154 521.282 47.3154 521.355 47.3877 521.403Z" fill="#3A2C6D"/>
<path id="Vector_41" d="M46.1346 520.679L47.0264 521.186C47.069 521.209 47.1166 521.221 47.165 521.221C47.2135 521.221 47.2611 521.209 47.3036 521.186L48.1473 520.704C48.2196 520.704 48.2316 520.583 48.1473 520.547L47.2675 520.04C47.225 520.017 47.1773 520.005 47.1289 520.005C47.0805 520.005 47.0328 520.017 46.9903 520.04L46.1467 520.535C46.0744 520.571 46.0744 520.643 46.1346 520.679Z" fill="#3A2C6D"/>
<path id="Vector_42" d="M35.5527 514.565L36.4325 515.072C36.4772 515.095 36.5268 515.107 36.5772 515.107C36.6275 515.107 36.6771 515.095 36.7218 515.072L37.5533 514.589C37.6377 514.589 37.6498 514.469 37.5533 514.432L36.6736 513.914C36.6302 513.893 36.5829 513.883 36.535 513.883C36.4871 513.883 36.4397 513.893 36.3964 513.914L35.5527 514.408C35.4925 514.457 35.4804 514.529 35.5527 514.565Z" fill="#3A2C6D"/>
<path id="Vector_43" d="M34.3115 513.854L35.1913 514.36C35.2347 514.381 35.282 514.391 35.3299 514.391C35.3778 514.391 35.4252 514.381 35.4685 514.36L36.3121 513.866C36.3965 513.866 36.4086 513.757 36.3121 513.709L35.4324 513.202C35.3877 513.179 35.3381 513.167 35.2877 513.167C35.2374 513.167 35.1878 513.179 35.1431 513.202L34.3115 513.685C34.2513 513.757 34.2392 513.757 34.3115 513.854Z" fill="#3A2C6D"/>
<path id="Vector_44" d="M33.0703 513.13L33.9501 513.636C33.9926 513.66 34.0403 513.672 34.0887 513.672C34.1371 513.672 34.1848 513.66 34.2273 513.636L35.0709 513.154C35.1553 513.154 35.1673 513.033 35.0709 512.997L34.1911 512.479C34.1457 512.458 34.0964 512.447 34.0465 512.447C33.9966 512.447 33.9473 512.458 33.9019 512.479L33.0703 512.973C33.0101 513.021 32.998 513.094 33.0703 513.13Z" fill="#3A2C6D"/>
<path id="Vector_45" d="M31.8291 512.406L32.7088 512.925C32.7522 512.945 32.7995 512.956 32.8474 512.956C32.8953 512.956 32.9427 512.945 32.986 512.925L33.8297 512.43C33.914 512.43 33.914 512.31 33.8297 512.273L32.9378 511.767C32.8953 511.744 32.8477 511.731 32.7992 511.731C32.7508 511.731 32.7031 511.744 32.6606 511.767L31.817 512.249C31.7688 512.297 31.7567 512.37 31.8291 512.406Z" fill="#3A2C6D"/>
<path id="Vector_46" d="M44.5916 519.787L45.7967 520.486C45.8422 520.507 45.8915 520.518 45.9414 520.518C45.9913 520.518 46.0406 520.507 46.086 520.486L46.9176 520.004C47.0019 520.004 47.014 519.883 46.9176 519.835L45.7124 519.148C45.6699 519.124 45.6222 519.112 45.5738 519.112C45.5253 519.112 45.4777 519.124 45.4352 519.148L44.5916 519.63C44.5192 519.666 44.5072 519.787 44.5916 519.787Z" fill="#3A2C6D"/>
<path id="Vector_47" d="M36.7944 515.289L37.9996 515.976C38.0421 515.999 38.0898 516.011 38.1382 516.011C38.1867 516.011 38.2343 515.999 38.2768 515.976L39.1204 515.494C39.2048 515.494 39.2169 515.373 39.1204 515.325L37.9153 514.637C37.8719 514.617 37.8246 514.606 37.7767 514.606C37.7288 514.606 37.6814 514.617 37.6381 514.637L36.7944 515.12C36.7342 515.168 36.7221 515.24 36.7944 515.289Z" fill="#3A2C6D"/>
<path id="Vector_48" d="M38.3611 516.169L44.2183 519.558C44.2616 519.578 44.309 519.589 44.3569 519.589C44.4048 519.589 44.4521 519.578 44.4955 519.558L45.3391 519.075C45.4235 519.075 45.4235 518.955 45.3391 518.906L39.494 515.53C39.4493 515.506 39.3997 515.494 39.3493 515.494C39.299 515.494 39.2494 515.506 39.2047 515.53L38.3731 516.012C38.3008 516.072 38.2888 516.169 38.3611 516.169Z" fill="#3A2C6D"/>
<path id="Vector_49" d="M48.8579 519.461L49.7377 519.967C49.7802 519.991 49.8279 520.003 49.8763 520.003C49.9247 520.003 49.9724 519.991 50.0149 519.967L50.8585 519.485C50.9429 519.485 50.9549 519.364 50.8585 519.316L49.9787 518.81C49.9333 518.789 49.884 518.778 49.8341 518.778C49.7842 518.778 49.7349 518.789 49.6895 518.81L48.8579 519.292C48.7977 519.34 48.7856 519.413 48.8579 519.461Z" fill="#3A2C6D"/>
<path id="Vector_50" d="M47.6167 518.737L48.4965 519.244C48.539 519.267 48.5867 519.279 48.6351 519.279C48.6835 519.279 48.7312 519.267 48.7737 519.244L49.6173 518.761C49.7017 518.761 49.7017 518.641 49.6173 518.604L48.7375 518.098C48.695 518.075 48.6474 518.062 48.5989 518.062C48.5505 518.062 48.5029 518.075 48.4603 518.098L47.6167 518.58C47.5565 518.58 47.5444 518.701 47.6167 518.737Z" fill="#3A2C6D"/>
<path id="Vector_51" d="M46.3631 518.026L47.255 518.533C47.2983 518.553 47.3456 518.564 47.3936 518.564C47.4415 518.564 47.4888 518.553 47.5322 518.533L48.3758 518.05C48.4481 518.05 48.4601 517.93 48.3758 517.881L47.496 517.375C47.4526 517.354 47.4053 517.344 47.3574 517.344C47.3095 517.344 47.2622 517.354 47.2188 517.375L46.3752 517.857C46.3029 517.905 46.3029 517.978 46.3631 518.026Z" fill="#3A2C6D"/>
<path id="Vector_52" d="M45.1221 517.302L46.0019 517.809C46.0444 517.832 46.092 517.844 46.1405 517.844C46.1889 517.844 46.2366 517.832 46.2791 517.809L47.1227 517.326C47.2071 517.326 47.2191 517.206 47.1227 517.158L46.2429 516.651C46.1996 516.631 46.1522 516.62 46.1043 516.62C46.0564 516.62 46.0091 516.631 45.9657 516.651L45.1221 517.146C45.0618 517.194 45.0498 517.266 45.1221 517.302Z" fill="#3A2C6D"/>
<path id="Vector_53" d="M43.8809 516.579L44.7607 517.086C44.8032 517.109 44.8508 517.121 44.8993 517.121C44.9477 517.121 44.9953 517.109 45.0378 517.086L45.8815 516.591C45.9658 516.591 45.9779 516.471 45.8815 516.434L45.0017 515.928C44.957 515.905 44.9074 515.893 44.8571 515.893C44.8067 515.893 44.7571 515.905 44.7124 515.928L43.8809 516.41C43.8206 516.471 43.8086 516.543 43.8809 516.579Z" fill="#3A2C6D"/>
<path id="Vector_54" d="M42.6392 515.867L43.519 516.373C43.5623 516.394 43.6097 516.404 43.6576 516.404C43.7055 516.404 43.7528 516.394 43.7962 516.373L44.6398 515.891C44.7121 515.891 44.7242 515.77 44.6398 515.722L43.76 515.216C43.7167 515.195 43.6693 515.185 43.6214 515.185C43.5735 515.185 43.5262 515.195 43.4828 515.216L42.6392 515.698C42.5669 515.746 42.5669 515.819 42.6392 515.867Z" fill="#3A2C6D"/>
<path id="Vector_55" d="M41.3862 515.143L42.266 515.65C42.3107 515.673 42.3603 515.685 42.4106 515.685C42.461 515.685 42.5106 515.673 42.5553 515.65L43.3868 515.167C43.4712 515.167 43.4833 515.047 43.3868 515.011L42.5071 514.492C42.4637 514.472 42.4164 514.461 42.3685 514.461C42.3205 514.461 42.2732 514.472 42.2299 514.492L41.3862 514.986C41.326 515.035 41.3139 515.107 41.3862 515.143Z" fill="#3A2C6D"/>
<path id="Vector_56" d="M40.1447 514.42L40.9763 514.963C41.0196 514.983 41.067 514.994 41.1149 514.994C41.1628 514.994 41.2101 514.983 41.2535 514.963L42.0971 514.468C42.1815 514.468 42.1935 514.348 42.0971 514.311L41.2173 513.805C41.1727 513.782 41.1231 513.77 41.0727 513.77C41.0224 513.77 40.9728 513.782 40.9281 513.805L40.0965 514.287C40.0845 514.311 40.0724 514.384 40.1447 514.42Z" fill="#3A2C6D"/>
<path id="Vector_57" d="M38.9034 513.756L39.7831 514.263C39.8265 514.283 39.8738 514.294 39.9217 514.294C39.9697 514.294 40.017 514.283 40.0603 514.263L40.904 513.781C40.9883 513.781 40.9883 513.66 40.904 513.612L40.0242 513.105C39.9808 513.085 39.9335 513.074 39.8856 513.074C39.8377 513.074 39.7903 513.085 39.747 513.105L38.9034 513.588C38.831 513.588 38.831 513.66 38.9034 513.756Z" fill="#3A2C6D"/>
<path id="Vector_58" d="M37.6499 512.985L38.5297 513.492C38.5744 513.515 38.624 513.527 38.6743 513.527C38.7247 513.527 38.7743 513.515 38.8189 513.492L39.6505 513.009C39.7349 513.009 39.7469 512.889 39.6505 512.852L38.7707 512.334C38.7274 512.313 38.6801 512.303 38.6321 512.303C38.5842 512.303 38.5369 512.313 38.4935 512.334L37.6499 512.828C37.5897 512.876 37.5776 512.949 37.6499 512.985Z" fill="#3A2C6D"/>
<path id="Vector_59" d="M36.4087 512.261L37.2885 512.78C37.3318 512.8 37.3792 512.811 37.4271 512.811C37.475 512.811 37.5223 512.8 37.5657 512.78L38.4093 512.286C38.4937 512.286 38.5057 512.165 38.4093 512.129L37.5295 511.622C37.4849 511.599 37.4353 511.587 37.3849 511.587C37.3346 511.587 37.2849 511.599 37.2403 511.622L36.4087 512.105C36.3484 512.153 36.3364 512.225 36.4087 512.261Z" fill="#3A2C6D"/>
<path id="Vector_60" d="M35.1675 511.549L36.0473 512.056C36.0906 512.076 36.138 512.087 36.1859 512.087C36.2338 512.087 36.2811 512.076 36.3245 512.056L37.1681 511.574C37.2525 511.574 37.2525 511.453 37.1681 511.405L36.2883 510.898C36.245 510.878 36.1977 510.867 36.1497 510.867C36.1018 510.867 36.0545 510.878 36.0111 510.898L35.1675 511.381C35.0952 511.429 35.0952 511.501 35.1675 511.549Z" fill="#3A2C6D"/>
<path id="Vector_61" d="M50.0996 520.185L51.9315 521.234C51.9749 521.254 52.0222 521.265 52.0701 521.265C52.118 521.265 52.1653 521.254 52.2087 521.234L53.0403 520.752C53.1246 520.752 53.1367 520.631 53.0403 520.583L51.2204 519.533C51.1779 519.51 51.1303 519.498 51.0818 519.498C51.0334 519.498 50.9858 519.51 50.9433 519.533L50.0996 520.016C50.0394 520.064 50.0273 520.136 50.0996 520.185Z" fill="#3A2C6D"/>
<path id="Vector_62" d="M48.2679 520.511L49.1476 521.029C49.191 521.05 49.2383 521.06 49.2862 521.06C49.3341 521.06 49.3815 521.05 49.4248 521.029L50.2685 520.535C50.3528 520.535 50.3649 520.414 50.2685 520.378L49.3887 519.871C49.3462 519.848 49.2985 519.836 49.2501 519.836C49.2016 519.836 49.154 519.848 49.1115 519.871L48.2679 520.354C48.2076 520.402 48.2076 520.474 48.2679 520.511Z" fill="#3A2C6D"/>
<path id="Vector_63" d="M47.002 519.787L47.8817 520.293C47.9251 520.314 47.9724 520.324 48.0203 520.324C48.0683 520.324 48.1156 520.314 48.1589 520.293L49.0026 519.811C49.0869 519.811 49.099 519.69 49.0026 519.642L48.1107 519.135C48.0674 519.115 48.02 519.104 47.9721 519.104C47.9242 519.104 47.8769 519.115 47.8335 519.135L47.002 519.618C47.002 519.678 47.002 519.787 47.002 519.787Z" fill="#3A2C6D"/>
<path id="Vector_64" d="M45.7972 519.075L46.6769 519.581C46.7195 519.605 46.7671 519.617 46.8155 519.617C46.864 519.617 46.9116 519.605 46.9541 519.581L47.7978 519.099C47.8701 519.099 47.8821 518.978 47.7978 518.942L46.918 518.424C46.8746 518.403 46.8273 518.393 46.7794 518.393C46.7315 518.393 46.6841 518.403 46.6408 518.424L45.7972 518.918C45.7128 518.966 45.7128 519.039 45.7972 519.075Z" fill="#3A2C6D"/>
<path id="Vector_65" d="M44.592 518.351L45.4718 518.87C45.5172 518.891 45.5665 518.901 45.6164 518.901C45.6663 518.901 45.7156 518.891 45.7611 518.87L46.5926 518.375C46.677 518.375 46.6891 518.255 46.5926 518.219L45.7129 517.712C45.6703 517.689 45.6227 517.677 45.5743 517.677C45.5258 517.677 45.4782 517.689 45.4357 517.712L44.592 518.195C44.4715 518.243 44.4595 518.315 44.592 518.351Z" fill="#3A2C6D"/>
<path id="Vector_66" d="M43.2901 517.64L44.1698 518.146C44.2132 518.167 44.2605 518.177 44.3084 518.177C44.3563 518.177 44.4037 518.167 44.447 518.146L45.2907 517.664C45.375 517.664 45.3871 517.543 45.2907 517.495L44.4109 516.988C44.3655 516.968 44.3161 516.957 44.2662 516.957C44.2164 516.957 44.167 516.968 44.1216 516.988L43.2901 517.471C43.2298 517.519 43.2177 517.591 43.2901 517.64Z" fill="#3A2C6D"/>
<path id="Vector_67" d="M42.0489 516.916L42.9286 517.422C42.9712 517.446 43.0188 517.458 43.0672 517.458C43.1157 517.458 43.1633 517.446 43.2058 517.422L44.0495 516.94C44.1338 516.94 44.1338 516.819 44.0495 516.783L43.1697 516.277C43.1272 516.253 43.0795 516.241 43.0311 516.241C42.9827 516.241 42.935 516.253 42.8925 516.277L42.0489 516.759C41.9766 516.807 41.9766 516.88 42.0489 516.916Z" fill="#3A2C6D"/>
<path id="Vector_68" d="M40.7954 516.169L41.6752 516.676C41.7206 516.696 41.7699 516.707 41.8198 516.707C41.8697 516.707 41.919 516.696 41.9645 516.676L42.796 516.193C42.8804 516.193 42.8924 516.073 42.796 516.024L41.9162 515.518C41.8737 515.495 41.8261 515.482 41.7777 515.482C41.7292 515.482 41.6816 515.495 41.6391 515.518L40.7954 516C40.7352 516.085 40.7231 516.169 40.7954 516.169Z" fill="#3A2C6D"/>
<path id="Vector_69" d="M39.5542 515.481L40.434 515.988C40.4765 516.011 40.5242 516.023 40.5726 516.023C40.621 516.023 40.6687 516.011 40.7112 515.988L41.5548 515.506C41.6392 515.506 41.6512 515.385 41.5548 515.337L40.675 514.83C40.6296 514.81 40.5803 514.799 40.5304 514.799C40.4805 514.799 40.4312 514.81 40.3858 514.83L39.5542 515.325C39.494 515.361 39.4819 515.433 39.5542 515.481Z" fill="#3A2C6D"/>
<path id="Vector_70" d="M38.3129 514.758L39.1927 515.264C39.2358 515.286 39.2833 515.297 39.3313 515.297C39.3794 515.297 39.4268 515.286 39.4699 515.264L40.3135 514.77C40.3979 514.77 40.3979 514.649 40.3135 514.613L39.4217 514.107C39.3792 514.083 39.3315 514.071 39.2831 514.071C39.2347 514.071 39.187 514.083 39.1445 514.107L38.3009 514.589C38.2527 514.649 38.2406 514.722 38.3129 514.758Z" fill="#3A2C6D"/>
<path id="Vector_71" d="M37.0713 514.046L37.9511 514.552C37.9945 514.572 38.0418 514.583 38.0897 514.583C38.1376 514.583 38.1849 514.572 38.2283 514.552L39.0719 514.07C39.1442 514.07 39.1563 513.949 39.0719 513.901L38.1921 513.394C38.1488 513.374 38.1015 513.363 38.0535 513.363C38.0056 513.363 37.9583 513.374 37.9149 513.394L37.0713 513.877C36.999 513.925 36.999 513.997 37.0713 514.046Z" fill="#3A2C6D"/>
<path id="Vector_72" d="M35.8179 513.322L36.6977 513.828C36.7423 513.852 36.7919 513.864 36.8423 513.864C36.8926 513.864 36.9422 513.852 36.9869 513.828L37.8185 513.346C37.9028 513.346 37.9149 513.225 37.8185 513.189L36.9387 512.671C36.8953 512.65 36.848 512.64 36.8001 512.64C36.7522 512.64 36.7049 512.65 36.6615 512.671L35.8179 513.165C35.7576 513.213 35.7456 513.286 35.8179 513.322Z" fill="#3A2C6D"/>
<path id="Vector_73" d="M33.0342 511.718L35.4446 513.117C35.4879 513.137 35.5352 513.148 35.5832 513.148C35.6311 513.148 35.6784 513.137 35.7217 513.117L36.5654 512.622C36.6497 512.622 36.6618 512.502 36.5654 512.466L34.155 511.067C34.1103 511.043 34.0607 511.031 34.0104 511.031C33.96 511.031 33.9104 511.043 33.8658 511.067L33.0342 511.549C32.9739 511.597 32.9619 511.67 33.0342 511.718Z" fill="#3A2C6D"/>
<path id="Vector_74" d="M49.5088 521.234L50.714 521.933C50.7574 521.954 50.8047 521.964 50.8526 521.964C50.9005 521.964 50.9479 521.954 50.9912 521.933L51.8348 521.439C51.9192 521.439 51.9313 521.318 51.8348 521.282L50.6297 520.583C50.5863 520.562 50.539 520.552 50.4911 520.552C50.4431 520.552 50.3958 520.562 50.3525 520.583L49.5088 521.077C49.4124 521.125 49.4124 521.198 49.5088 521.234Z" fill="#3A2C6D"/>
</g>
<g id="&#60;&#208;&#147;&#209;&#128;&#209;&#131;&#208;&#191;&#208;&#191;&#208;&#176;&#62;_6">
<g id="&#60;&#208;&#147;&#209;&#128;&#209;&#131;&#208;&#191;&#208;&#191;&#208;&#176;&#62;_7">
<g id="&#60;&#208;&#147;&#209;&#128;&#209;&#131;&#208;&#191;&#208;&#191;&#208;&#176;&#62;_8">
<path id="&#60;&#208;&#154;&#208;&#190;&#208;&#189;&#209;&#130;&#209;&#131;&#209;&#128;&#62;_8" d="M58.6441 518.761L38.6621 507.208V491.53L38.8188 491.168L38.9755 491.096C39.1853 490.972 39.4246 490.906 39.6684 490.906C39.9122 490.906 40.1515 490.972 40.3614 491.096L58.6441 501.648C58.8527 501.773 59.0256 501.95 59.146 502.161C59.2663 502.372 59.3301 502.611 59.331 502.854V517.616C59.1984 518.327 59.0538 518.508 58.6441 518.761Z" fill="#E5E5E5"/>
<path id="&#60;&#208;&#154;&#208;&#190;&#208;&#189;&#209;&#130;&#209;&#131;&#209;&#128;&#62;_9" d="M56.8122 503.518L38.6621 492.049V491.53L38.8188 491.168L38.9755 491.096C39.1853 490.972 39.4246 490.906 39.6684 490.906C39.9122 490.906 40.1515 490.972 40.3614 491.096L58.6441 501.648C58.869 501.776 59.0497 501.97 59.1623 502.203L56.8122 503.518Z" fill="#E5E5E5"/>
<path id="&#60;&#208;&#154;&#208;&#190;&#208;&#189;&#209;&#130;&#209;&#131;&#209;&#128;&#62;_10" d="M39.1202 491.132L58.3067 502.215C58.4076 502.275 58.4916 502.359 58.5507 502.461C58.6098 502.562 58.6419 502.677 58.6442 502.794V518.761L38.6622 507.208V491.397C38.6608 491.343 38.674 491.29 38.7004 491.242C38.7269 491.195 38.7656 491.156 38.8124 491.128C38.8593 491.101 38.9126 491.087 38.9668 491.088C39.0209 491.089 39.0739 491.104 39.1202 491.132Z" fill="#DCEEFF"/>
<path id="&#60;&#208;&#154;&#208;&#190;&#208;&#189;&#209;&#130;&#209;&#131;&#209;&#128;&#62;_11" d="M39.1202 491.132L58.3067 502.215C58.4076 502.275 58.4916 502.359 58.5507 502.461C58.6098 502.562 58.6419 502.677 58.6442 502.794V518.761L38.6622 507.208V491.397C38.6608 491.343 38.674 491.29 38.7004 491.242C38.7269 491.195 38.7656 491.156 38.8124 491.128C38.8593 491.101 38.9126 491.087 38.9668 491.088C39.0209 491.089 39.0739 491.104 39.1202 491.132Z" fill="#F4F4F4"/>
<path id="&#60;&#208;&#154;&#208;&#190;&#208;&#189;&#209;&#130;&#209;&#131;&#209;&#128;&#62;_12" d="M58.6441 518.762V518.183L38.6621 506.642V507.208L58.6441 518.762Z" fill="#DBDBDB"/>
</g>
<path id="&#60;&#208;&#154;&#208;&#190;&#208;&#189;&#209;&#130;&#209;&#131;&#209;&#128;&#62;_13" d="M39.1807 506.376V491.964L39.4217 492.097V506.255L39.1807 506.376Z" fill="#1E3779"/>
<path id="&#60;&#208;&#154;&#208;&#190;&#208;&#189;&#209;&#130;&#209;&#131;&#209;&#128;&#62;_14" d="M39.4214 492.097V506.255L58.0053 516.952V502.83L39.4214 492.097Z" fill="#3A2C6D"/>
<path id="&#60;&#208;&#154;&#208;&#190;&#208;&#189;&#209;&#130;&#209;&#131;&#209;&#128;&#62;_15" d="M39.1807 506.375L58.0056 517.242V516.952L39.4217 506.255L39.1807 506.375Z" fill="#031F60"/>
</g>
</g>
</g>
</g>
<path id="&#60;&#208;&#154;&#208;&#190;&#208;&#189;&#209;&#130;&#209;&#131;&#209;&#128;&#62;_16" d="M17.6679 488.635C17.1859 489.841 18.4031 491.264 21.621 492.253C24.8388 493.241 25.128 491.963 25.128 491.963C27.2743 492.925 29.3664 494.004 31.395 495.195C33.3233 496.546 34.179 500.465 34.4441 507.074C34.7454 514.72 34.7695 526.057 34.5164 528.023C34.5164 528.023 30.9009 531.641 26.285 531.243C21.6692 530.845 13.8716 526.768 11.9915 523.609C11.9915 516.903 12.8231 515.806 11.7384 511.947C9.25577 503.107 7.94212 499.489 9.15935 493.603C10.1476 488.779 11.5697 488.164 13.4619 488.212C14.8703 488.279 16.2743 488.42 17.6679 488.635Z" fill="#F4F4F4"/>
<path id="&#60;&#208;&#154;&#208;&#190;&#208;&#189;&#209;&#130;&#209;&#131;&#209;&#128;&#62;_17" d="M42.0491 515.287C38.2528 516.252 37.3609 513.852 36.8668 511.874C35.6616 507.05 35.0108 502.733 34.1069 500.007C33.0464 496.799 31.9376 496.281 30.3709 495.654C28.551 494.918 26.9722 496.474 27.5748 500.562C28.3264 505.31 29.4919 509.983 31.0578 514.528C31.6121 516.573 32.6829 518.442 34.1672 519.955C36.1316 521.547 39.0843 521.474 43.5435 520.365C46.1588 519.473 48.6979 518.372 51.1362 517.072C52.1003 516.626 52.8475 516.325 54.7517 515.456C56.6381 514.631 58.2934 513.356 59.5725 511.742C60.5366 510.331 60.6692 509.667 60.4764 509.33C60.2835 508.992 59.7773 509.016 59.2712 509.607C58.5231 510.605 57.6003 511.459 56.5474 512.128C56.5474 512.128 57.7526 510.922 58.3914 510.09C58.9767 509.354 59.4592 508.543 59.8256 507.678C60.1751 506.857 59.464 505.748 58.9217 506.327C58.3793 506.906 58.1383 507.533 57.15 508.739C56.6339 509.367 56.043 509.93 55.3905 510.415C56.002 509.592 56.5461 508.721 57.0175 507.81C57.4403 507.079 57.6452 506.242 57.608 505.398C57.608 504.976 56.9693 504.47 56.4028 505.278C55.8159 506.429 55.0871 507.503 54.2335 508.473C53.3658 509.378 52.6306 509.897 52.6065 509.679C52.5824 509.462 53.1368 508.932 53.4381 507.895C53.7394 506.857 53.4381 505.736 52.8596 505.615C52.2811 505.495 52.3896 505.519 51.9316 506.508C51.2883 507.513 50.7125 508.561 50.2082 509.643C49.9109 510.653 49.3733 511.576 48.6414 512.333C47.7255 513.285 45.6646 514.383 42.0491 515.287Z" fill="#FFCEA9"/>
<path id="&#60;&#208;&#154;&#208;&#190;&#208;&#189;&#209;&#130;&#209;&#131;&#209;&#128;&#62;_18" d="M28.9244 495.002C31.4553 494.629 33.251 495.774 34.3718 499.609C35.4926 503.444 36.2639 506.604 36.2639 506.604C35.2635 508.054 33.7449 509.064 32.0217 509.426C28.9967 510.162 27.9 508.715 27.9 508.715C27.9 508.715 27.0563 504.687 26.5381 501.949C26.0199 499.211 25.8391 495.461 28.9244 495.002Z" fill="#EDEDED"/>
<path id="Vector_75" d="M30.2262 475.333C30.2262 475.333 34.2274 469.243 25.5501 468C19.2952 467.108 15.2698 471.124 14.8119 475.49C14.3659 479.662 16.933 483.992 18.7769 485.716C20.5988 486.181 22.5282 485.948 24.1882 485.065C24.2916 483.927 24.3319 482.783 24.3087 481.64C24.3087 481.64 21.2596 475.224 30.2262 475.333Z" fill="#3A2C6D"/>
</g>
<path id="Vector_76" d="M47.5928 552.408V534.113L33.0703 542.591L38.6624 554.157L47.5928 552.408Z" fill="#C4C7D6"/>
<path id="Vector_77" d="M38.0718 535.163L43.6397 531.931L47.5807 534.21L41.8078 537.49L38.0718 535.163Z" fill="#D6D8E5"/>
<g id="monitor">
<path id="Vector_78" opacity="0.4" d="M267.671 452.249L199.072 412.62C194.119 409.762 194.746 404.769 200.458 401.465L244.905 375.789L331.426 425.814L286.99 451.49C281.266 454.794 272.625 455.144 267.671 452.249Z" fill="#D6D8E5"/>
<path id="Vector_79" d="M272.685 449.343L204.074 409.702C199.132 406.844 199.759 401.863 205.46 398.559L249.907 372.883L336.427 422.859L291.98 448.547C286.267 451.84 277.626 452.25 272.685 449.343Z" fill="#B1B4C4"/>
<path id="Vector_80" d="M336.427 422.86V420.243L332.438 422.547L336.427 422.86Z" fill="#B1B4C4"/>
<path id="Vector_81" d="M200.735 404.987V402.321L204.845 404.022L200.735 404.987Z" fill="#B1B4C4"/>
<path id="Vector_82" d="M272.685 446.727L204.074 407.085C199.132 404.227 199.759 399.234 205.46 395.942L249.907 370.242L336.427 420.231L291.98 445.907C286.267 449.223 277.626 449.573 272.685 446.727Z" fill="#D6D8E5"/>
<path id="Vector_83" d="M250.148 370.375L239.434 334.822L326.894 385.028L336.427 420.243L250.148 370.375Z" fill="#9EA1AF"/>
<path id="Vector_84" d="M333.896 421.701L336.427 420.242L332.631 417.275L333.896 421.701Z" fill="#9EA1AF"/>
<path id="Vector_85" d="M247.388 371.713L236.674 336.16L324.134 386.366L333.896 421.702L247.388 371.713Z" fill="#B1B4C4"/>
<path id="Vector_86" d="M469.407 481.616L130.859 286.027C126.11 283.277 122.266 275.921 122.266 269.589V7.53747C122.266 1.20597 126.11 -1.71255 130.859 1.03713L469.407 196.578C474.155 199.316 478 206.672 478 213.016V475.164C478 481.447 474.155 484.366 469.407 481.616Z" fill="#C4C7D6"/>
<path id="Vector_87" d="M471.143 484.317L474.903 482.159L473.276 471.027L471.143 484.317Z" fill="#C4C7D6"/>
<path id="Vector_88" d="M121.651 2.64111L125.339 0.518555L130.642 3.54561C130.642 3.54561 124.99 4.40187 124.857 4.36569C124.725 4.32951 121.651 2.64111 121.651 2.64111Z" fill="#B1B4C4"/>
<path id="Vector_89" d="M466.298 483.413L127.75 287.824C123.001 285.074 119.145 277.717 119.145 271.386V9.33425C119.145 2.99069 123.001 0.0842285 127.75 2.82185L466.286 198.411C471.034 201.161 474.891 208.517 474.891 214.861V476.9C474.903 483.244 471.046 486.15 466.298 483.413Z" fill="#E4E7F2"/>
<path id="Vector_90" d="M465.707 483.751L127.159 288.161C122.41 285.412 118.566 278.055 118.566 271.724V9.64783C118.566 3.31633 122.41 0.397805 127.159 3.14748L465.707 198.761C470.456 201.498 474.3 208.855 474.3 215.198V477.25C474.3 483.606 470.456 486.5 465.707 483.751Z" fill="#201D38"/>
<path id="Vector_91" opacity="0.3" d="M469.648 467.819L122.856 267.467L123.037 10.7213C123.037 8.09225 124.881 7.03097 127.159 8.30933L465.707 203.935C466.907 204.716 467.906 205.77 468.622 207.011C469.338 208.251 469.752 209.643 469.829 211.074L469.648 467.819Z" fill="url(#paint0_linear)"/>
<path id="Vector_92" d="M333.378 171.348L310.395 158.07V149.772L333.378 163.051V171.348Z" fill="#A298E2"/>
<path id="Vector_93" d="M386.503 202.065L337.681 173.832V165.535L386.503 193.768V202.065Z" fill="#F4CE2C"/>
<path id="Vector_94" d="M333.378 197.892L310.395 184.626V176.329L333.378 189.595V197.892Z" fill="#A298E2"/>
<path id="Vector_95" d="M353.854 209.929L337.681 200.389V192.092L353.854 201.631V209.929Z" fill="#4D3BFF"/>
<path id="Vector_96" d="M333.378 211.171L310.395 197.893V189.596L333.378 202.874V211.171Z" fill="#A298E2"/>
<path id="Vector_97" d="M364.966 229.417L337.681 213.655V205.357L364.966 221.12V229.417Z" fill="#4D3BFF"/>
<path id="Vector_98" d="M333.378 224.436L310.395 211.17V202.873L333.378 216.151V224.436Z" fill="#A298E2"/>
<path id="Vector_99" d="M409.642 268.407L337.681 226.933V218.636L409.642 260.122V268.407Z" fill="#FF8657"/>
<path id="Vector_100" d="M333.378 184.627L310.395 171.349V163.052L333.378 176.33V184.627Z" fill="#A298E2"/>
<path id="Vector_101" d="M427.322 238.957L337.68 187.111V178.813L427.322 230.659V238.957Z" fill="#A298E2"/>
<path id="Vector_102" d="M333.378 237.715L310.395 224.437V216.14L333.378 229.418V237.715Z" fill="#A298E2"/>
<path id="Vector_103" d="M415.222 285.834L337.68 240.211V231.914L415.222 277.537V285.834Z" fill="#C33AFC"/>
<path id="Vector_104" d="M333.378 264.271L310.395 250.993V242.695L333.378 255.973V264.271Z" fill="#A298E2"/>
<path id="Vector_105" d="M428.154 319.023L337.681 266.755V258.458L428.154 310.726V319.023Z" fill="#A298E2"/>
<path id="Vector_106" d="M333.378 277.537L310.395 264.271V255.974L333.378 269.24V277.537Z" fill="#A298E2"/>
<path id="Vector_107" d="M364.966 295.796L337.681 280.022V271.736L364.966 287.499V295.796Z" fill="#C33AFC"/>
<path id="Vector_108" d="M333.378 290.815L310.395 277.537V269.239L333.378 282.517V290.815Z" fill="#A298E2"/>
<path id="Vector_109" d="M393.432 325.656L337.681 293.299V285.002L393.432 317.359V325.656Z" fill="#4D3BFF"/>
<path id="Vector_110" d="M333.378 250.992L310.395 237.714V229.417L333.378 242.695V250.992Z" fill="#A298E2"/>
<path id="Vector_111" d="M347.732 259.29L337.681 253.477V245.18L347.732 250.993V259.29Z" fill="#4D3BFF"/>
<path id="Vector_112" d="M333.378 304.093L310.395 290.815V282.518L333.378 295.796V304.093Z" fill="#A298E2"/>
<path id="Vector_113" d="M373.667 327.321L337.68 306.578V298.28L373.667 319.023V327.321Z" fill="#C33AFC"/>
<path id="Vector_114" d="M333.378 330.637L310.395 317.359V309.062L333.378 322.34V330.637Z" fill="#A298E2"/>
<path id="Vector_115" d="M390.19 363.079L337.68 333.122V324.824L390.19 354.781V363.079Z" fill="#FF8657"/>
<path id="Vector_116" d="M333.378 343.915L310.395 330.637V322.34L333.378 335.618V343.915Z" fill="#A298E2"/>
<path id="Vector_117" d="M344.237 350.548L337.681 346.399V338.102L344.237 342.25V350.548Z" fill="#A298E2"/>
<path id="Vector_118" d="M333.378 357.181L310.395 343.915V335.618L333.378 348.884V357.181Z" fill="#A298E2"/>
<path id="Vector_119" d="M367.798 377.032L337.681 359.677V351.38L367.798 368.734V377.032Z" fill="#F4CE2C"/>
<path id="Vector_120" d="M333.378 317.359L310.395 304.093V295.783L333.378 309.061V317.359Z" fill="#A298E2"/>
<path id="Vector_121" d="M379.585 343.915L337.681 319.843V311.558L379.585 335.617V343.915Z" fill="#4D3BFF"/>
<path id="Vector_122" d="M184.73 88.3878L161.748 75.1098V66.8125L184.73 80.0906V88.3878Z" fill="#A298E2"/>
<path id="Vector_123" d="M286.689 147.289L189.033 90.8725V82.5752L286.689 138.992V147.289Z" fill="#C33AFC"/>
<path id="Vector_124" d="M184.73 114.932L161.748 101.654V93.3564L184.73 106.634V114.932Z" fill="#A298E2"/>
<path id="Vector_125" d="M253.655 154.754L189.033 117.416V109.119L253.655 146.457V154.754Z" fill="#F4CE2C"/>
<path id="Vector_126" d="M184.73 128.21L161.748 114.932V106.635L184.73 119.913V128.21Z" fill="#A298E2"/>
<path id="Vector_127" d="M269.455 177.149L189.033 130.694V122.396L269.455 168.852V177.149Z" fill="#FF8657"/>
<path id="Vector_128" d="M184.73 141.475L161.748 128.209V119.912L184.73 133.178V141.475Z" fill="#A298E2"/>
<path id="Vector_129" d="M245.038 176.329L189.033 143.972V135.675L245.038 168.032V176.329Z" fill="#A298E2"/>
<path id="Vector_130" d="M184.73 101.654L161.748 88.376V80.0908L184.73 93.3568V101.654Z" fill="#A298E2"/>
<path id="Vector_131" d="M237.855 132.358L189.033 104.15V95.8525L237.855 124.061V132.358Z" fill="#4D3BFF"/>
<path id="Vector_132" d="M184.73 154.754L161.748 141.476V133.179L184.73 146.457V154.754Z" fill="#A298E2"/>
<path id="Vector_133" d="M217.753 173.832L189.033 157.238V148.94L217.753 165.535V173.832Z" fill="#C33AFC"/>
<path id="Vector_134" d="M184.73 181.298L161.748 168.02V159.734L184.73 173V181.298Z" fill="#A298E2"/>
<path id="Vector_135" d="M279.506 236.062L189.033 183.794V175.497L279.506 227.765V236.062Z" fill="#F4CE2C"/>
<path id="Vector_136" d="M184.73 194.576L161.748 181.298V173.001L184.73 186.279V194.576Z" fill="#A298E2"/>
<path id="Vector_137" d="M216.319 212.822L189.033 197.06V188.763L216.319 204.525V212.822Z" fill="#FF8657"/>
<path id="Vector_138" d="M184.73 207.855L161.748 194.577V186.279L184.73 199.557V207.855Z" fill="#A298E2"/>
<path id="Vector_139" d="M269.455 256.793L189.033 210.338V202.041L269.455 248.508V256.793Z" fill="#A298E2"/>
<path id="Vector_140" d="M184.73 168.031L161.748 154.753V146.456L184.73 159.734V168.031Z" fill="#A298E2"/>
<path id="Vector_141" d="M265.141 214.487L189.033 170.516V162.219L265.141 206.19V214.487Z" fill="#4D3BFF"/>
<path id="Vector_142" d="M184.73 221.12L161.748 207.842V199.557L184.73 212.823V221.12Z" fill="#A298E2"/>
<path id="Vector_143" d="M199.084 229.417L189.033 223.617V215.319L199.084 221.12V229.417Z" fill="#C33AFC"/>
<path id="Vector_144" d="M184.73 247.676L161.748 234.398V226.101L184.73 239.379V247.676Z" fill="#A298E2"/>
<path id="Vector_145" d="M207.701 260.942L189.033 250.161V241.863L207.701 252.645V260.942Z" fill="#F4CE2C"/>
<path id="Vector_146" d="M184.73 260.942L161.748 247.676V239.379L184.73 252.645V260.942Z" fill="#A298E2"/>
<path id="Vector_147" d="M237.855 291.647L189.033 263.439V255.142L237.855 283.35V291.647Z" fill="#FF8657"/>
<path id="Vector_148" d="M184.73 274.22L161.748 260.942V252.645L184.73 265.923V274.22Z" fill="#A298E2"/>
<path id="Vector_149" d="M266.575 321.507L189.033 276.705V268.407L266.575 313.21V321.507Z" fill="#A298E2"/>
<path id="Vector_150" d="M184.73 234.399L161.748 221.121V212.823L184.73 226.101V234.399Z" fill="#A298E2"/>
<path id="Vector_151" d="M286.689 293.299L189.033 236.882V228.585L286.689 285.002V293.299Z" fill="#4D3BFF"/>
</g>
<path id="Vector_152" opacity="0.4" d="M361.254 603C389.103 603 411.679 589.954 411.679 573.863C411.679 557.771 389.103 544.726 361.254 544.726C333.405 544.726 310.829 557.771 310.829 573.863C310.829 589.954 333.405 603 361.254 603Z" fill="#D6D8E5"/>
<path id="Vector_153" d="M416.632 569.726V492.048L315.987 494.58L316.204 566.217C314.324 574.84 319.097 583.849 330.558 590.469C350.251 601.842 382.176 601.854 401.869 590.469C411.763 584.717 416.68 577.216 416.632 569.726Z" fill="#A6CE28"/>
<path id="Vector_154" d="M366.207 521.149C394.056 521.149 416.632 508.104 416.632 492.012C416.632 475.92 394.056 462.875 366.207 462.875C338.358 462.875 315.782 475.92 315.782 492.012C315.782 508.104 338.358 521.149 366.207 521.149Z" fill="#BCD64D"/>
<path id="Vector_155" d="M408.666 492.048C408.666 496.787 404.725 501.768 397.88 505.736C390.407 510.029 380.199 512.682 369.449 513.117C368.377 513.117 367.304 513.189 366.219 513.189C354.288 513.189 342.754 510.463 334.547 505.736C327.702 501.768 323.761 496.787 323.761 492.048C323.761 487.308 327.702 482.327 334.547 478.36C342.754 473.62 354.288 470.895 366.207 470.895C367.292 470.895 368.377 470.895 369.449 470.967C380.199 471.401 390.407 474.054 397.88 478.36C404.725 482.291 408.666 487.224 408.666 492.048Z" fill="#28221C"/>
<path id="Vector_156" opacity="0.07" d="M408.666 492.048C408.666 496.787 404.725 501.768 397.879 505.736C390.407 510.029 380.199 512.682 369.449 513.116C358.699 512.682 348.479 510.029 341.019 505.736C334.161 501.696 330.22 496.751 330.22 492.048C330.22 487.344 334.149 482.327 340.995 478.36C348.467 474.054 358.687 471.401 369.437 470.967C380.187 471.401 390.395 474.054 397.867 478.36C404.725 482.291 408.666 487.224 408.666 492.048Z" fill="white"/>
<path id="Vector_157" d="M409.256 527.999L398.554 521.8L393.348 524.815L398.554 527.83V529.808L408.593 535.596L408.292 537.454C409.75 538.66 414.945 548.308 414.945 548.308L415.306 547.97V572.97C415.306 579.531 411.462 577.312 409.822 576.359L398.554 569.847L393.348 572.85L398.554 575.853V577.831L409.822 584.343C410.961 585.026 412.174 585.577 413.438 585.983L412.763 589.119L418.596 585.826H418.681H418.765C421.175 584.403 422.2 580.942 422.2 577.059V550.828C422.248 539.745 413.751 531.05 409.256 527.999Z" fill="#8DA01F"/>
<path id="Vector_158" d="M404.616 587.394L393.348 580.881V572.849L404.616 579.362C406.255 580.302 410.1 582.534 410.1 575.961V549.851C410.1 543.676 404.52 539.407 403.568 538.732L393.348 532.822V524.814L404.05 531.013C408.557 534.064 416.993 542.772 416.993 553.855V579.989C416.993 587.044 413.776 592.676 404.616 587.394Z" fill="#99B524"/>
<path id="Vector_159" opacity="0.4" d="M49.8585 448.644C69.0346 448.644 84.5799 439.66 84.5799 428.577C84.5799 417.493 69.0346 408.509 49.8585 408.509C30.6825 408.509 15.1372 417.493 15.1372 428.577C15.1372 439.66 30.6825 448.644 49.8585 448.644Z" fill="#D6D8E5"/>
<path id="Vector_160" d="M54.8117 444.93C73.9877 444.93 89.533 435.945 89.533 424.862C89.533 413.779 73.9877 404.794 54.8117 404.794C35.6356 404.794 20.0903 413.779 20.0903 424.862C20.0903 435.945 35.6356 444.93 54.8117 444.93Z" fill="#D6D8E5"/>
<path id="Vector_161" d="M8.32764 356.265L20.4759 426.249H89.4486L101.296 356.771L8.32764 356.265Z" fill="#D6D8E5"/>
<path id="Vector_162" d="M54.8119 382.278C80.5109 382.278 101.344 370.243 101.344 355.396C101.344 340.55 80.5109 328.515 54.8119 328.515C29.1129 328.515 8.27979 340.55 8.27979 355.396C8.27979 370.243 29.1129 382.278 54.8119 382.278Z" fill="#E4E6EF"/>
<path id="Vector_163" d="M54.8116 376.345C43.4106 376.345 32.7809 373.836 24.8749 369.265C18.0897 365.358 14.209 360.293 14.209 355.396C14.209 350.5 18.0897 345.435 24.8749 341.527C32.7688 336.957 43.4106 334.448 54.8116 334.448C66.2127 334.448 76.8544 336.957 84.7484 341.527C91.5336 345.435 95.4143 350.5 95.4143 355.396C95.4143 360.293 91.5938 365.418 84.7484 369.265C76.8544 373.86 66.285 376.345 54.8116 376.345Z" fill="#28221C"/>
<path id="Vector_164" d="M74.83 334.219C75.4886 325.175 74.0495 316.102 70.6251 307.706C67.2007 299.311 61.8837 291.822 55.0891 285.822L54.9565 285.689V285.943C48.1557 291.943 42.8338 299.436 39.4072 307.836C35.9805 316.236 34.5418 325.315 35.2036 334.364L8.58105 331.795C19.8134 374.137 55.0891 370.495 55.0891 370.495V370.411C57.7526 370.616 90.6541 372.316 101.416 331.698L74.83 334.219Z" fill="#99B524"/>
<path id="Vector_165" d="M55.0888 370.496C55.0888 370.496 52.6784 337.524 8.47229 315.321C8.43614 315.321 -2.00076 370.098 55.0888 370.496Z" fill="#A6CE28"/>
<path id="Vector_166" d="M54.8115 370.496C54.8115 370.496 57.2219 337.524 101.428 315.321C101.428 315.321 111.901 370.098 54.8115 370.496Z" fill="#A6CE28"/>
</g>
</g>
</g>
<defs>
<linearGradient id="paint0_linear" x1="122.856" y1="237.799" x2="469.829" y2="237.799" gradientUnits="userSpaceOnUse">
<stop offset="0.21" stop-color="white" stop-opacity="0"/>
<stop offset="1" stop-color="white" stop-opacity="0.2"/>
</linearGradient>
<clipPath id="clip0">
<rect width="478" height="603" fill="white"/>
</clipPath>
</defs>
</svg>
