<svg width="360" height="394" viewBox="0 0 360 394" fill="none" xmlns="http://www.w3.org/2000/svg">
<g id="137" clip-path="url(#clip0)">
<g id="Layer 2">
<g id="Layer 1">
<path id="Vector" d="M14.3606 250.921C15.3432 250.911 16.1321 250.107 16.1227 249.124C16.1132 248.141 15.3091 247.352 14.3265 247.362C13.3439 247.371 12.555 248.176 12.5644 249.158C12.5739 250.141 13.3781 250.93 14.3606 250.921Z" fill="white"/>
<path id="Vector_2" d="M14.4119 256.27C15.3945 256.261 16.1834 255.457 16.1739 254.474C16.1645 253.491 15.3603 252.702 14.3778 252.711C13.3952 252.721 12.6063 253.525 12.6157 254.508C12.6251 255.491 13.4293 256.28 14.4119 256.27Z" fill="white"/>
<path id="Vector_3" d="M14.4632 261.622C15.4458 261.613 16.2347 260.808 16.2252 259.825C16.2158 258.843 15.4116 258.054 14.429 258.063C13.4464 258.072 12.6575 258.877 12.667 259.86C12.6764 260.842 13.4806 261.631 14.4632 261.622Z" fill="white"/>
<path id="Vector_4" d="M9.35185 244.653C10.3344 244.644 11.1233 243.839 11.1139 242.857C11.1045 241.874 10.3003 241.085 9.31769 241.094C8.33511 241.104 7.54622 241.908 7.55565 242.891C7.56509 243.874 8.36927 244.663 9.35185 244.653Z" fill="white"/>
<path id="Vector_5" d="M9.39043 250.003C10.373 249.993 11.1619 249.189 11.1525 248.206C11.143 247.223 10.3388 246.434 9.35627 246.444C8.37369 246.453 7.5848 247.258 7.59423 248.24C7.60366 249.223 8.40785 250.012 9.39043 250.003Z" fill="white"/>
<path id="Vector_6" d="M9.44169 255.354C10.4243 255.345 11.2132 254.541 11.2037 253.558C11.1943 252.575 10.3901 251.786 9.40754 251.795C8.42496 251.805 7.63606 252.609 7.6455 253.592C7.65493 254.575 8.45911 255.364 9.44169 255.354Z" fill="white"/>
<path id="Vector_7" d="M20.6751 260.032C21.6577 260.023 22.4466 259.218 22.4371 258.236C22.4277 257.253 21.6235 256.464 20.6409 256.473C19.6584 256.483 18.8695 257.287 18.8789 258.27C18.8883 259.253 19.6925 260.042 20.6751 260.032Z" fill="white"/>
<path id="Vector_8" d="M20.7264 265.384C21.7089 265.374 22.4978 264.57 22.4884 263.587C22.479 262.604 21.6748 261.815 20.6922 261.825C19.7096 261.834 18.9207 262.638 18.9302 263.621C18.9396 264.604 19.7438 265.393 20.7264 265.384Z" fill="white"/>
<path id="Vector_9" d="M43.1895 323.23V359.799C43.1895 368.205 46.5279 376.267 52.4705 382.21C58.413 388.154 66.4728 391.493 74.8768 391.493H287.429C295.833 391.493 303.892 388.154 309.835 382.21C315.777 376.267 319.116 368.205 319.116 359.799V323.23" fill="#32ADAA"/>
<path id="Vector_10" d="M287.429 394H74.8894C65.8216 393.993 57.127 390.388 50.714 383.976C44.301 377.564 40.6935 368.869 40.6836 359.799V323.23H45.6954V359.799C45.7054 367.537 48.783 374.956 54.2534 380.427C59.7239 385.899 67.1405 388.977 74.8768 388.987H287.429C295.165 388.977 302.582 385.899 308.052 380.427C313.522 374.956 316.6 367.537 316.61 359.799V323.23H321.622V359.799C321.612 368.867 318.006 377.56 311.596 383.972C305.186 390.383 296.494 393.99 287.429 394Z" fill="#264575"/>
<path id="Vector_11" d="M310.107 198.184H319.267C329.568 198.184 339.448 202.277 346.732 209.562C354.016 216.848 358.108 226.73 358.108 237.033V265.243L310.107 274.693" fill="#32ADAA"/>
<path id="Vector_12" d="M340.805 268.652V304.169C340.805 311.551 337.873 318.63 332.654 323.85C327.435 329.07 320.357 332.003 312.977 332.003H310.107V236.094L340.805 268.652Z" fill="#32ADAA"/>
<path id="Vector_13" d="M40.7211 199.438C30.4196 199.438 20.5401 203.531 13.2559 210.816C5.97163 218.102 1.87939 227.984 1.87939 238.287V266.497L19.2078 269.906V305.422C19.2078 312.804 22.1397 319.884 27.3585 325.104C32.5773 330.324 39.6555 333.256 47.036 333.256H49.8802V199.438H40.7211Z" fill="#32ADAA"/>
<path id="Vector_14" d="M31.7374 306.674V271.158L14.409 267.749V239.539C14.4099 229.82 18.0532 220.454 24.6199 213.29C31.1866 206.125 40.1996 201.683 49.8802 200.84V200.689H40.7211C30.4196 200.689 20.5401 204.783 13.2559 212.068C5.97163 219.354 1.87939 229.236 1.87939 239.539V261.057C1.87895 262.943 2.53353 264.77 3.73114 266.226C4.92876 267.682 6.59502 268.677 8.4449 269.04L19.2078 271.158V306.674C19.2078 314.056 22.1397 321.136 27.3585 326.356C32.5773 331.576 39.6555 334.508 47.036 334.508H49.8802V332.779C44.5542 330.799 39.9613 327.237 36.7182 322.571C33.475 317.905 31.737 312.357 31.7374 306.674Z" fill="#0FCBC9"/>
<path id="Vector_15" d="M329.528 306.674V271.158L346.857 267.749V239.539C346.856 229.82 343.212 220.454 336.646 213.29C330.079 206.125 321.066 201.683 311.385 200.84V200.689H320.545C330.846 200.689 340.726 204.783 348.01 212.068C355.294 219.354 359.386 229.236 359.386 239.539V258.513C359.379 261.116 358.471 263.636 356.818 265.646C355.164 267.656 352.867 269.032 350.315 269.541L342.058 271.171V306.687C342.058 314.069 339.126 321.149 333.907 326.368C328.688 331.588 321.61 334.521 314.23 334.521H311.36V332.791C316.693 330.815 321.293 327.253 324.541 322.584C327.789 317.915 329.529 312.362 329.528 306.674Z" fill="#0FCBC9"/>
<path id="Vector_16" d="M230.707 41.8438H219.355C178.008 6.49043 141.334 41.8438 141.334 41.8438H130.859C130.859 41.8438 177.82 -49.8042 230.707 41.8438Z" fill="#0FDAD7"/>
<path id="Vector_17" d="M219.355 36.8317C178.008 1.47839 141.334 36.8317 141.334 36.8317H133.741C131.861 39.8771 130.859 41.8446 130.859 41.8446H141.334C141.334 41.8446 178.02 6.49127 219.355 41.8446H230.707C229.705 40.1026 228.702 38.4484 227.7 36.8317H219.355Z" fill="#0FCBC9"/>
<path id="Vector_18" d="M226.898 43.0977H230.657C177.769 -48.5503 130.809 43.0977 130.809 43.0977H134.467C146.195 24.6377 184.272 -24.1877 226.898 43.0977Z" fill="#6EF9F2"/>
<path id="Vector_19" d="M311.911 148.883V316.2C311.917 324.274 310.331 332.27 307.243 339.729C304.156 347.189 299.628 353.967 293.919 359.674C288.215 365.386 281.441 369.916 273.985 373.006C266.529 376.096 258.537 377.685 250.466 377.683H112.378C104.305 377.687 96.3105 376.099 88.8522 373.008C81.3939 369.918 74.6181 365.387 68.9127 359.674C63.2028 353.969 58.6736 347.194 55.5841 339.737C52.4946 332.279 50.9055 324.285 50.9077 316.213V148.883" fill="#0FDAD7"/>
<path id="Vector_20" d="M292.415 57.584C305.674 80.1781 312.664 105.902 312.663 132.1V150.598H50.1182V132.1C50.1365 105.896 57.148 80.1719 70.4286 57.584" fill="#0FDAD7"/>
<path id="Vector_21" d="M106.401 379.989C99.9381 379.501 93.5937 377.987 87.607 375.502C76.3802 370.844 66.7848 362.963 60.0324 352.855C53.28 342.746 49.6732 330.863 49.6675 318.706V153.106H48.9282V134.608C48.9333 108.43 55.9231 82.7279 69.176 60.1543H90.99L90.2132 61.7208C74.5109 96.5331 66.3958 134.289 66.407 172.48V238.826C66.4009 288.678 80.2476 337.551 106.401 379.989Z" fill="#0FCBC9"/>
<path id="Vector_22" d="M255.666 379.989C262.129 379.501 268.474 377.987 274.46 375.502C285.687 370.844 295.283 362.963 302.035 352.855C308.787 342.746 312.394 330.863 312.4 318.706V153.106H313.139V134.608C313.134 108.43 306.144 82.7279 292.891 60.1543H271.077L271.817 61.7835C287.519 96.5958 295.634 134.352 295.623 172.543V238.889C295.629 288.716 281.795 337.565 255.666 379.989Z" fill="#0FCBC9"/>
<path id="Vector_23" d="M294.546 64.6406L289.346 70.3803C275.386 85.8029 258.35 98.1293 239.337 106.565C220.323 115.001 199.754 119.359 178.954 119.359C158.154 119.359 137.584 115.001 118.571 106.565C99.5578 98.1293 82.5222 85.8029 68.562 70.3803L64.5024 65.9189C66.0227 62.861 67.6474 59.8574 69.3764 56.9082H290.323C291.81 59.4481 293.217 62.0255 294.546 64.6406Z" fill="#0FCBC9"/>
<path id="Vector_24" d="M49.5169 277.788L6.26479 269.278C4.50216 268.931 2.91455 267.983 1.77228 266.596C0.630006 265.209 0.003699 263.468 0 261.671L0 238.286C0.0132627 227.488 4.30777 217.136 11.9416 209.501C19.5754 201.865 29.9253 197.57 40.7211 197.557H49.8803V201.316H40.7211C30.9212 201.326 21.5255 205.224 14.5959 212.156C7.66625 219.087 3.76883 228.484 3.75888 238.286V261.671C3.76101 262.596 4.08275 263.492 4.66959 264.207C5.25644 264.922 6.0723 265.412 6.97898 265.594L50.2311 274.103L49.5169 277.788Z" fill="#264575"/>
<path id="Vector_25" d="M49.8805 335.136H47.0363C39.1604 335.126 31.6099 331.993 26.0408 326.422C20.4717 320.852 17.3386 313.3 17.3286 305.423V269.906H21.0875V305.423C21.0941 312.304 23.8301 318.902 28.695 323.768C33.5599 328.633 40.1563 331.37 47.0363 331.377H49.8805V335.136Z" fill="#264575"/>
<path id="Vector_26" d="M310.483 277.788L309.756 274.103L350.503 266.083C352.117 265.764 353.571 264.895 354.617 263.625C355.664 262.355 356.238 260.761 356.241 259.115V238.286C356.231 228.484 352.334 219.087 345.404 212.156C338.474 205.224 329.079 201.326 319.279 201.316H310.12V197.557H319.279C330.075 197.57 340.425 201.865 348.058 209.501C355.692 217.136 359.987 227.488 360 238.286V259.115C359.996 261.633 359.12 264.071 357.521 266.015C355.922 267.96 353.698 269.29 351.229 269.78L310.483 277.788Z" fill="#264575"/>
<path id="Vector_27" d="M312.964 335.136H310.12V331.377H312.964C319.844 331.37 326.44 328.633 331.305 323.768C336.17 318.902 338.906 312.304 338.913 305.423V269.906H342.671V305.423C342.662 313.3 339.528 320.852 333.959 326.422C328.39 331.993 320.84 335.126 312.964 335.136Z" fill="#264575"/>
<path id="Vector_28" d="M233.952 44.5011H127.802L129.205 41.7691C133.154 34.451 137.893 27.5882 143.338 21.304C155.154 7.68151 167.997 0.32511 180.426 -0.000727218C198.657 -0.502015 216.085 13.5591 232.298 41.6689L233.952 44.5011ZM134.067 40.7415H227.412C212.439 15.8024 196.714 3.37044 180.564 3.75893C157.234 4.34795 139.279 31.8436 134.067 40.7415Z" fill="#264575"/>
<path id="Vector_29" d="M218.128 44.0499C201.513 29.8258 183.772 25.4897 165.391 31.1542C156.991 33.7778 149.238 38.1418 142.637 43.9621L140.031 41.2552C140.407 40.8917 178.446 5.13737 220.571 41.18L218.128 44.0499Z" fill="#264575"/>
<path id="Vector_30" d="M314.129 153.105H46.6226V132.101C46.6304 105.457 53.7408 79.298 67.2212 56.3184L71.5439 58.8248C58.5144 81.037 51.6419 106.322 51.6344 132.076V148.067H309.117V132.101C309.101 106.365 302.229 81.0976 289.208 58.9L293.531 56.3936C307.011 79.3732 314.121 105.533 314.129 132.176V153.105Z" fill="#264575"/>
<path id="Vector_31" d="M249.414 382.231H111.338C94.3903 382.231 78.1369 375.498 66.1531 363.511C54.1694 351.525 47.437 335.268 47.437 318.317V150.975H52.4488V318.317C52.4488 333.939 58.6532 348.921 69.697 359.967C80.7409 371.013 95.7195 377.219 111.338 377.219H249.414C265.032 377.219 280.011 371.013 291.055 359.967C302.099 348.921 308.303 333.939 308.303 318.317V150.975H313.315V318.317C313.315 335.268 306.582 351.525 294.599 363.511C282.615 375.498 266.361 382.231 249.414 382.231Z" fill="#264575"/>
<path id="Vector_32" d="M321.759 249.628L349.851 215.265C350.991 213.874 349.011 211.868 347.859 213.272L319.755 247.635C318.615 249.027 320.594 251.032 321.747 249.628H321.759Z" fill="#264575"/>
<path id="Vector_33" d="M330.167 230.378L346.806 210.777C347.972 209.399 345.992 207.394 344.814 208.785L328.175 228.385C327.01 229.764 328.989 231.769 330.167 230.378Z" fill="#264575"/>
<path id="Vector_34" d="M258.109 268.678H101.49C97.5019 268.678 93.6776 270.262 90.8579 273.082C88.0382 275.903 86.4541 279.728 86.4541 283.716V286.511C87.6188 283.822 89.5438 281.532 91.9924 279.922C94.441 278.312 97.3065 277.453 100.237 277.45H256.856C260.844 277.45 264.668 279.035 267.488 281.855C270.308 284.675 271.892 288.5 271.892 292.489V349.849C272.718 347.964 273.145 345.929 273.145 343.871V283.716C273.145 279.728 271.561 275.903 268.741 273.082C265.921 270.262 262.097 268.678 258.109 268.678Z" fill="#6EF9F2"/>
<path id="Vector_35" d="M258.109 345.123H101.49C97.502 345.123 93.6776 343.538 90.8579 340.718C88.0382 337.898 86.4541 334.073 86.4541 330.084V277.574C86.0401 278.957 85.8291 280.392 85.8276 281.835V341.99C85.8276 345.978 87.4117 349.803 90.2314 352.624C93.0511 355.444 96.8755 357.028 100.863 357.028H257.483C261.471 357.028 265.295 355.444 268.115 352.624C270.934 349.803 272.518 345.978 272.518 341.99V334.345C271.6 337.455 269.7 340.185 267.104 342.128C264.507 344.07 261.352 345.121 258.109 345.123Z" fill="#0FCBC9"/>
<path id="Vector_36" opacity="0.35" d="M263.121 303.767C263.121 299.615 259.756 296.248 255.604 296.248C251.452 296.248 248.086 299.615 248.086 303.767V313.793C248.086 317.946 251.452 321.313 255.604 321.313C259.756 321.313 263.121 317.946 263.121 313.793V303.767Z" fill="white"/>
<path id="Vector_37" d="M258.109 359.536H101.49C97.0056 359.53 92.707 357.745 89.5363 354.574C86.3656 351.402 84.5813 347.103 84.5747 342.618V282.463C84.5813 277.978 86.3656 273.679 89.5363 270.508C92.707 267.336 97.0056 265.552 101.49 265.545H258.109C262.594 265.552 266.892 267.336 270.063 270.508C273.234 273.679 275.018 277.978 275.024 282.463V342.618C275.018 347.103 273.234 351.402 270.063 354.574C266.892 357.745 262.594 359.53 258.109 359.536ZM101.49 269.305C98.0015 269.308 94.6571 270.695 92.1906 273.162C89.724 275.629 88.3369 278.974 88.3336 282.463V342.618C88.3369 346.107 89.724 349.452 92.1906 351.919C94.6571 354.386 98.0015 355.773 101.49 355.777H258.109C261.598 355.773 264.942 354.386 267.409 351.919C269.875 349.452 271.262 346.107 271.266 342.618V282.463C271.262 278.974 269.875 275.629 267.409 273.162C264.942 270.695 261.598 269.308 258.109 269.305H101.49Z" fill="#264575"/>
<path id="Vector_38" d="M112.766 292.488L106.313 307.038C105.927 307.907 105.764 308.858 105.839 309.806C105.913 310.753 106.224 311.667 106.742 312.464C107.26 313.261 107.969 313.916 108.804 314.369C109.64 314.822 110.575 315.059 111.526 315.059C112.405 315.06 113.274 314.858 114.062 314.467C114.851 314.077 115.538 313.51 116.071 312.809C116.604 312.109 116.967 311.295 117.133 310.431C117.299 309.566 117.262 308.675 117.026 307.828L112.766 292.488Z" fill="white"/>
<path id="Vector_39" d="M116.913 307.439C116.527 308.562 115.801 309.536 114.835 310.225C113.869 310.915 112.712 311.286 111.526 311.287C110.349 311.294 109.199 310.937 108.234 310.264C107.27 309.59 106.537 308.634 106.138 307.527C105.85 308.383 105.77 309.296 105.904 310.189C106.038 311.083 106.382 311.932 106.908 312.666C107.434 313.4 108.127 313.999 108.93 314.413C109.733 314.827 110.623 315.044 111.526 315.046C112.406 315.048 113.274 314.845 114.062 314.455C114.851 314.065 115.538 313.497 116.071 312.797C116.604 312.097 116.967 311.282 117.133 310.418C117.299 309.554 117.262 308.663 117.026 307.815L116.913 307.439Z" fill="#E8EFEF"/>
<path id="Vector_40" d="M251.845 291.861H246.833V288.102H251.845V291.861ZM240.568 291.861H234.303V288.102H240.568V291.861ZM228.038 291.861H221.774V288.102H228.038V291.861ZM215.509 291.861H209.244V288.102H215.509V291.861ZM202.979 291.861H196.714V288.102H202.979V291.861ZM190.45 291.861H184.185V288.102H190.45V291.861ZM177.92 291.861H171.655V288.102H177.92V291.861ZM165.39 291.861H159.126V288.102H165.39V291.861ZM152.861 291.861H146.596V288.102H152.861V291.861ZM140.331 291.861H134.066V288.102H140.331V291.861ZM127.802 291.861H121.537V288.102H127.802V291.861ZM115.272 291.861H109.007V288.102H115.272V291.861Z" fill="#264575"/>
<path id="Vector_41" d="M196.614 127.689V268.05H231.797V127.689" fill="#DB9464"/>
<path id="Vector_42" d="M231.797 155.762V268.05H222.2L231.797 155.762Z" fill="#E4AE88"/>
<path id="Vector_43" d="M196.614 127.689V135.209H231.797V127.689" fill="#C68254"/>
<path id="Vector_44" d="M233.677 268.678H194.735V126.438H198.494V264.918H229.918V126.438H233.677V268.678Z" fill="#264575"/>
<path id="Vector_45" d="M236.809 122.051H190.45V124.557H236.809V122.051Z" fill="#6EF9F2"/>
<path id="Vector_46" d="M202.353 254.264H201.1V247.998H202.353V254.264ZM202.353 240.479H201.1V234.213H202.353V240.479ZM202.353 226.693H201.1V220.427H202.353V226.693ZM202.353 212.908H201.1V206.642H202.353V212.908ZM202.353 199.123H201.1V192.857H202.353V199.123ZM202.353 185.337H201.1V179.071H202.353V185.337ZM202.353 171.552H201.1V165.286H202.353V171.552ZM202.353 157.766H201.1V151.5H202.353V157.766ZM202.353 143.981H201.1V137.715H202.353V143.981Z" fill="#BC754D"/>
<path id="Vector_47" d="M226.786 253.012H225.533V246.746H226.786V253.012ZM226.786 239.227H225.533V232.961H226.786V239.227ZM226.786 225.442H225.533V219.175H226.786V225.442ZM226.786 211.656H225.533V205.39H226.786V211.656ZM226.786 197.871H225.533V191.605H226.786V197.871ZM226.786 184.085H225.533V177.819H226.786V184.085ZM226.786 170.3H225.533V164.034H226.786V170.3ZM226.786 156.514H225.533V150.248H226.786V156.514ZM226.786 142.729H225.533V136.463H226.786V142.729Z" fill="#BC754D"/>
<path id="Vector_48" d="M208.618 242.359H206.112V266.171H208.618V242.359Z" fill="#264575"/>
<path id="Vector_49" d="M214.256 234.213H211.75V258.024H214.256V234.213Z" fill="#264575"/>
<path id="Vector_50" d="M236.809 124.557H190.45V128.316H236.809V124.557Z" fill="#264575"/>
<path id="Vector_51" d="M213.316 216.668C215.219 216.668 216.762 215.125 216.762 213.222C216.762 211.318 215.219 209.775 213.316 209.775C211.413 209.775 209.871 211.318 209.871 213.222C209.871 215.125 211.413 216.668 213.316 216.668Z" fill="#264575"/>
<path id="Vector_52" d="M213.316 202.256C215.219 202.256 216.762 200.713 216.762 198.81C216.762 196.906 215.219 195.363 213.316 195.363C211.413 195.363 209.871 196.906 209.871 198.81C209.871 200.713 211.413 202.256 213.316 202.256Z" fill="#264575"/>
<path id="Vector_53" d="M213.316 187.844C215.219 187.844 216.762 186.301 216.762 184.398C216.762 182.494 215.219 180.951 213.316 180.951C211.413 180.951 209.871 182.494 209.871 184.398C209.871 186.301 211.413 187.844 213.316 187.844Z" fill="#264575"/>
<path id="Vector_54" d="M234.303 162.917V186.528C234.303 189.749 233.125 192.443 230.006 192.794C230.356 192.017 229.291 191.152 229.291 190.287V169.183C229.285 167.497 228.612 165.881 227.42 164.689C226.228 163.496 224.612 162.823 222.926 162.817H201.827C200.14 162.823 198.525 163.496 197.333 164.689C196.141 165.881 195.468 167.497 195.462 169.183V190.287C195.464 191.151 195.647 192.005 196 192.794C194.474 192.597 193.071 191.854 192.05 190.702C191.03 189.55 190.461 188.067 190.45 186.528V162.917C190.456 161.231 191.129 159.615 192.321 158.423C193.514 157.23 195.129 156.557 196.815 156.551H227.938C229.624 156.557 231.239 157.23 232.432 158.423C233.624 159.615 234.297 161.231 234.303 162.917Z" fill="white"/>
<path id="Vector_55" d="M235.556 162.919V186.529C235.545 188.068 234.976 189.551 233.955 190.703C232.935 191.855 231.532 192.598 230.006 192.795C230.358 192.007 230.542 191.153 230.544 190.289V169.185C230.541 167.942 230.176 166.728 229.493 165.69C228.809 164.653 227.838 163.838 226.698 163.345C228.004 161.228 229.048 158.96 229.805 156.59C231.377 156.745 232.836 157.478 233.898 158.647C234.961 159.817 235.551 161.339 235.556 162.919Z" fill="#E8EFEF"/>
<path id="Vector_56" d="M197.429 194.938L195.211 194.663C191.452 194.199 189.811 189.913 189.811 185.89V162.254C189.814 160.235 190.618 158.298 192.045 156.87C193.473 155.442 195.409 154.638 197.429 154.635H228.552C230.571 154.638 232.507 155.442 233.935 156.87C235.363 158.298 236.167 160.235 236.17 162.254V185.865C236.17 189.913 234.504 194.199 230.77 194.638L228.552 194.913L229.429 192.971C229.354 192.472 229.232 191.981 229.066 191.505C228.84 190.892 228.7 190.251 228.652 189.6V168.52C228.652 167.164 228.114 165.864 227.155 164.905C226.196 163.946 224.896 163.407 223.54 163.407H202.453C201.097 163.407 199.797 163.946 198.838 164.905C197.879 165.864 197.341 167.164 197.341 168.52V189.625C197.293 190.276 197.154 190.917 196.927 191.53C196.761 192.006 196.639 192.497 196.564 192.996L197.429 194.938ZM202.465 160.863H223.565C225.585 160.867 227.52 161.67 228.948 163.099C230.376 164.527 231.18 166.463 231.183 168.483V189.587C231.256 189.983 231.361 190.373 231.496 190.753C231.584 191.041 231.672 191.317 231.747 191.592C233.075 190.514 233.689 188.058 233.689 185.827V162.254C233.689 161.583 233.557 160.918 233.3 160.298C233.043 159.677 232.667 159.114 232.192 158.639C231.717 158.164 231.154 157.787 230.533 157.53C229.913 157.273 229.248 157.141 228.577 157.141H197.441C196.085 157.141 194.785 157.68 193.826 158.639C192.868 159.598 192.329 160.898 192.329 162.254V185.865C192.329 188.108 192.943 190.552 194.271 191.63C194.346 191.354 194.434 191.078 194.522 190.79C194.657 190.411 194.762 190.021 194.835 189.625V168.52C194.838 166.501 195.642 164.564 197.07 163.136C198.498 161.708 200.433 160.904 202.453 160.901L202.465 160.863Z" fill="#264575"/>
<path id="Vector_57" d="M214.882 167.794V142.729C214.882 142.231 214.684 141.753 214.332 141.4C213.979 141.048 213.501 140.85 213.003 140.85C212.505 140.85 212.026 141.048 211.674 141.4C211.322 141.753 211.124 142.231 211.124 142.729V167.794C211.124 168.292 211.322 168.771 211.674 169.123C212.026 169.476 212.505 169.674 213.003 169.674C213.501 169.674 213.979 169.476 214.332 169.123C214.684 168.771 214.882 168.292 214.882 167.794Z" fill="#264575"/>
<path id="Vector_58" d="M117.678 127.689V268.05H152.861V127.689" fill="#DB9464"/>
<path id="Vector_59" d="M152.861 155.762V268.05H143.263L152.861 155.762Z" fill="#E4AE88"/>
<path id="Vector_60" d="M117.678 127.689V135.209H152.861V127.689" fill="#C68254"/>
<path id="Vector_61" d="M154.74 268.678H115.798V126.438H119.557V264.918H150.981V126.438H154.74V268.678Z" fill="#264575"/>
<path id="Vector_62" d="M157.873 122.051H111.513V124.557H157.873V122.051Z" fill="#6EF9F2"/>
<path id="Vector_63" d="M123.417 254.264H122.164V247.998H123.417V254.264ZM123.417 240.479H122.164V234.213H123.417V240.479ZM123.417 226.693H122.164V220.427H123.417V226.693ZM123.417 212.908H122.164V206.642H123.417V212.908ZM123.417 199.123H122.164V192.857H123.417V199.123ZM123.417 185.337H122.164V179.071H123.417V185.337ZM123.417 171.552H122.164V165.286H123.417V171.552ZM123.417 157.766H122.164V151.5H123.417V157.766ZM123.417 143.981H122.164V137.715H123.417V143.981Z" fill="#BC754D"/>
<path id="Vector_64" d="M147.849 253.012H146.596V246.746H147.849V253.012ZM147.849 239.227H146.596V232.961H147.849V239.227ZM147.849 225.442H146.596V219.175H147.849V225.442ZM147.849 211.656H146.596V205.39H147.849V211.656ZM147.849 197.871H146.596V191.605H147.849V197.871ZM147.849 184.085H146.596V177.819H147.849V184.085ZM147.849 170.3H146.596V164.034H147.849V170.3ZM147.849 156.514H146.596V150.248H147.849V156.514ZM147.849 142.729H146.596V136.463H147.849V142.729Z" fill="#BC754D"/>
<path id="Vector_65" d="M129.681 242.359H127.175V266.171H129.681V242.359Z" fill="#264575"/>
<path id="Vector_66" d="M135.319 234.213H132.813V258.024H135.319V234.213Z" fill="#264575"/>
<path id="Vector_67" d="M157.873 124.557H111.513V128.316H157.873V124.557Z" fill="#264575"/>
<path id="Vector_68" d="M134.38 216.668C136.283 216.668 137.825 215.125 137.825 213.222C137.825 211.318 136.283 209.775 134.38 209.775C132.477 209.775 130.934 211.318 130.934 213.222C130.934 215.125 132.477 216.668 134.38 216.668Z" fill="#264575"/>
<path id="Vector_69" d="M134.38 202.256C136.283 202.256 137.825 200.713 137.825 198.81C137.825 196.906 136.283 195.363 134.38 195.363C132.477 195.363 130.934 196.906 130.934 198.81C130.934 200.713 132.477 202.256 134.38 202.256Z" fill="#264575"/>
<path id="Vector_70" d="M134.38 187.844C136.283 187.844 137.825 186.301 137.825 184.398C137.825 182.494 136.283 180.951 134.38 180.951C132.477 180.951 130.934 182.494 130.934 184.398C130.934 186.301 132.477 187.844 134.38 187.844Z" fill="#264575"/>
<path id="Vector_71" d="M155.367 162.917V186.528C155.367 189.749 154.189 192.443 151.069 192.794C151.42 192.017 150.355 191.152 150.355 190.287V169.183C150.348 167.497 149.676 165.881 148.483 164.689C147.291 163.496 145.676 162.823 143.99 162.817H122.89C121.204 162.823 119.589 163.496 118.397 164.689C117.204 165.881 116.532 167.497 116.525 169.183V190.287C116.527 191.151 116.711 192.005 117.064 192.794C115.538 192.597 114.134 191.854 113.114 190.702C112.093 189.55 111.525 188.067 111.513 186.528V162.917C111.52 161.231 112.192 159.615 113.385 158.423C114.577 157.23 116.192 156.557 117.878 156.551H149.002C150.688 156.557 152.303 157.23 153.495 158.423C154.687 159.615 155.36 161.231 155.367 162.917Z" fill="white"/>
<path id="Vector_72" d="M156.62 162.919V186.529C156.608 188.068 156.039 189.551 155.019 190.703C153.998 191.855 152.595 192.598 151.069 192.795C151.422 192.007 151.605 191.153 151.608 190.289V169.185C151.605 167.942 151.239 166.728 150.556 165.69C149.873 164.653 148.901 163.838 147.761 163.345C149.068 161.228 150.111 158.96 150.869 156.59C152.441 156.745 153.899 157.478 154.962 158.647C156.024 159.817 156.615 161.339 156.62 162.919Z" fill="#E8EFEF"/>
<path id="Vector_73" d="M118.493 194.938L116.275 194.663C112.516 194.199 110.875 189.913 110.875 185.89V162.254C110.878 160.235 111.681 158.298 113.109 156.87C114.537 155.442 116.473 154.638 118.493 154.635H149.616C151.635 154.638 153.571 155.442 154.999 156.87C156.427 158.298 157.231 160.235 157.234 162.254V185.865C157.234 189.913 155.568 194.199 151.834 194.638L149.616 194.913L150.493 192.971C150.418 192.472 150.296 191.981 150.13 191.505C149.903 190.892 149.764 190.251 149.716 189.6V168.52C149.716 167.164 149.178 165.864 148.219 164.905C147.26 163.946 145.96 163.407 144.604 163.407H123.517C122.161 163.407 120.861 163.946 119.902 164.905C118.943 165.864 118.405 167.164 118.405 168.52V189.625C118.357 190.276 118.218 190.917 117.991 191.53C117.825 192.006 117.703 192.497 117.628 192.996L118.493 194.938ZM123.529 160.863H144.629C146.649 160.867 148.584 161.67 150.012 163.099C151.44 164.527 152.244 166.463 152.247 168.483V189.587C152.32 189.983 152.425 190.373 152.56 190.753C152.648 191.041 152.736 191.317 152.811 191.592C154.139 190.514 154.753 188.058 154.753 185.827V162.254C154.753 160.898 154.215 159.598 153.256 158.639C152.297 157.68 150.997 157.141 149.641 157.141H118.505C117.149 157.141 115.849 157.68 114.89 158.639C113.932 159.598 113.393 160.898 113.393 162.254V185.865C113.393 188.108 114.007 190.552 115.335 191.63C115.41 191.354 115.498 191.078 115.586 190.79C115.721 190.411 115.826 190.021 115.899 189.625V168.52C115.902 166.501 116.706 164.564 118.134 163.136C119.562 161.708 121.497 160.904 123.517 160.901L123.529 160.863Z" fill="#264575"/>
<path id="Vector_74" d="M135.946 167.794V142.729C135.946 142.231 135.748 141.753 135.395 141.4C135.043 141.048 134.565 140.85 134.066 140.85C133.568 140.85 133.09 141.048 132.737 141.4C132.385 141.753 132.187 142.231 132.187 142.729V167.794C132.187 168.292 132.385 168.771 132.737 169.123C133.09 169.476 133.568 169.674 134.066 169.674C134.565 169.674 135.043 169.476 135.395 169.123C135.748 168.771 135.946 168.292 135.946 167.794Z" fill="#264575"/>
<path id="Vector_75" d="M111.513 316.299C110.353 316.301 109.21 316.013 108.19 315.461C107.169 314.908 106.303 314.109 105.67 313.136C105.037 312.163 104.658 311.047 104.567 309.89C104.476 308.733 104.676 307.572 105.148 306.512L113.029 288.791L118.216 307.477C118.493 308.507 118.529 309.587 118.322 310.633C118.115 311.68 117.67 312.665 117.023 313.512C116.375 314.36 115.541 315.047 114.586 315.522C113.631 315.996 112.58 316.245 111.513 316.249V316.299ZM112.478 296.248L107.466 307.527C107.163 308.205 107.034 308.949 107.092 309.69C107.149 310.431 107.392 311.145 107.797 311.768C108.202 312.392 108.756 312.903 109.41 313.257C110.063 313.611 110.795 313.795 111.538 313.793C112.225 313.793 112.903 313.634 113.518 313.329C114.134 313.023 114.67 312.58 115.085 312.032C115.5 311.484 115.783 310.848 115.911 310.173C116.039 309.498 116.009 308.802 115.823 308.141L112.478 296.248Z" fill="#264575"/>
<path id="Vector_76" d="M61.9681 133.116C62.9506 133.107 63.7395 132.302 63.7301 131.32C63.7207 130.337 62.9165 129.548 61.9339 129.557C60.9513 129.567 60.1624 130.371 60.1719 131.354C60.1813 132.337 60.9855 133.126 61.9681 133.116Z" fill="white"/>
<path id="Vector_77" d="M62.0193 138.468C63.0019 138.458 63.7908 137.654 63.7814 136.671C63.7719 135.688 62.9678 134.899 61.9852 134.909C61.0026 134.918 60.2137 135.722 60.2231 136.705C60.2326 137.688 61.0367 138.477 62.0193 138.468Z" fill="white"/>
<path id="Vector_78" d="M62.0706 143.817C63.0532 143.808 63.8421 143.004 63.8326 142.021C63.8232 141.038 63.019 140.249 62.0364 140.258C61.0539 140.268 60.265 141.072 60.2744 142.055C60.2838 143.038 61.088 143.827 62.0706 143.817Z" fill="white"/>
<path id="Vector_79" d="M56.9588 126.849C57.9414 126.839 58.7303 126.035 58.7208 125.052C58.7114 124.069 57.9072 123.28 56.9246 123.29C55.942 123.299 55.1532 124.103 55.1626 125.086C55.172 126.069 55.9762 126.858 56.9588 126.849Z" fill="white"/>
<path id="Vector_80" d="M57.0101 132.2C57.9926 132.191 58.7815 131.386 58.7721 130.404C58.7627 129.421 57.9585 128.632 56.9759 128.641C55.9933 128.651 55.2044 129.455 55.2139 130.438C55.2233 131.42 56.0275 132.21 57.0101 132.2Z" fill="white"/>
<path id="Vector_81" d="M57.0618 137.55C58.0444 137.54 58.8333 136.736 58.8239 135.753C58.8144 134.77 58.0102 133.981 57.0277 133.991C56.0451 134 55.2562 134.805 55.2656 135.787C55.275 136.77 56.0792 137.559 57.0618 137.55Z" fill="white"/>
<path id="Vector_82" d="M253.678 311.067C254.661 311.058 255.449 310.253 255.44 309.271C255.431 308.288 254.626 307.499 253.644 307.508C252.661 307.518 251.872 308.322 251.882 309.305C251.891 310.288 252.695 311.077 253.678 311.067Z" fill="white"/>
<path id="Vector_83" d="M253.729 316.419C254.712 316.409 255.501 315.605 255.491 314.622C255.482 313.64 254.678 312.85 253.695 312.86C252.713 312.869 251.924 313.674 251.933 314.656C251.943 315.639 252.747 316.428 253.729 316.419Z" fill="white"/>
<path id="Vector_84" d="M253.781 321.769C254.764 321.759 255.553 320.955 255.543 319.972C255.534 318.989 254.729 318.2 253.747 318.209C252.764 318.219 251.975 319.023 251.985 320.006C251.994 320.989 252.798 321.778 253.781 321.769Z" fill="white"/>
<path id="Vector_85" d="M248.657 304.8C249.639 304.79 250.428 303.986 250.419 303.003C250.409 302.02 249.605 301.231 248.622 301.241C247.64 301.25 246.851 302.055 246.86 303.037C246.87 304.02 247.674 304.809 248.657 304.8Z" fill="white"/>
<path id="Vector_86" d="M248.708 310.151C249.69 310.142 250.479 309.338 250.47 308.355C250.46 307.372 249.656 306.583 248.674 306.592C247.691 306.602 246.902 307.406 246.912 308.389C246.921 309.372 247.725 310.161 248.708 310.151Z" fill="white"/>
<path id="Vector_87" d="M248.759 315.501C249.742 315.491 250.531 314.687 250.521 313.704C250.512 312.722 249.707 311.932 248.725 311.942C247.742 311.951 246.953 312.756 246.963 313.738C246.972 314.721 247.776 315.51 248.759 315.501Z" fill="white"/>
<path id="Vector_88" d="M343.889 242.142C344.872 242.132 345.661 241.328 345.651 240.345C345.642 239.362 344.838 238.573 343.855 238.583C342.873 238.592 342.084 239.396 342.093 240.379C342.103 241.362 342.907 242.151 343.889 242.142Z" fill="white"/>
<path id="Vector_89" d="M343.941 247.493C344.923 247.484 345.712 246.679 345.703 245.697C345.693 244.714 344.889 243.925 343.907 243.934C342.924 243.944 342.135 244.748 342.145 245.731C342.154 246.713 342.958 247.503 343.941 247.493Z" fill="white"/>
<path id="Vector_90" d="M343.992 252.843C344.975 252.833 345.763 252.029 345.754 251.046C345.745 250.063 344.94 249.274 343.958 249.284C342.975 249.293 342.186 250.097 342.196 251.08C342.205 252.063 343.009 252.852 343.992 252.843Z" fill="white"/>
<path id="Vector_91" d="M88.3338 98.3642C89.3164 98.3547 90.1053 97.5504 90.0958 96.5676C90.0864 95.5848 89.2822 94.7957 88.2996 94.8052C87.3171 94.8146 86.5282 95.619 86.5376 96.6018C86.547 97.5845 87.3512 98.3736 88.3338 98.3642Z" fill="white"/>
<path id="Vector_92" d="M88.3728 103.716C89.3554 103.706 90.1443 102.902 90.1349 101.919C90.1255 100.936 89.3213 100.147 88.3387 100.157C87.3561 100.166 86.5672 100.971 86.5766 101.953C86.5861 102.936 87.3903 103.725 88.3728 103.716Z" fill="white"/>
<path id="Vector_93" d="M290.01 98.0204C290.993 98.011 291.782 97.2066 291.772 96.2239C291.763 95.2411 290.958 94.452 289.976 94.4614C288.993 94.4709 288.204 95.2752 288.214 96.258C288.223 97.2408 289.027 98.0299 290.01 98.0204Z" fill="#32ADAA"/>
<path id="Vector_94" d="M290.049 103.37C291.031 103.361 291.82 102.556 291.811 101.573C291.801 100.591 290.997 99.8016 290.014 99.811C289.032 99.8205 288.243 100.625 288.252 101.608C288.262 102.59 289.066 103.379 290.049 103.37Z" fill="#32ADAA"/>
<path id="Vector_95" d="M290.1 108.722C291.083 108.712 291.872 107.908 291.862 106.925C291.853 105.942 291.049 105.153 290.066 105.163C289.084 105.172 288.295 105.976 288.304 106.959C288.314 107.942 289.118 108.731 290.1 108.722Z" fill="#32ADAA"/>
<path id="Vector_96" d="M290.005 80.4755C290.987 80.4661 291.776 79.6617 291.767 78.6789C291.757 77.6961 290.953 76.9071 289.971 76.9165C288.988 76.9259 288.199 77.7303 288.208 78.7131C288.218 79.6959 289.022 80.4849 290.005 80.4755Z" fill="#32ADAA"/>
<path id="Vector_97" d="M290.056 85.8251C291.039 85.8157 291.827 85.0113 291.818 84.0285C291.809 83.0457 291.004 82.2567 290.022 82.2661C289.039 82.2756 288.25 83.0799 288.26 84.0627C288.269 85.0455 289.073 85.8345 290.056 85.8251Z" fill="#32ADAA"/>
<path id="Vector_98" d="M290.107 91.1767C291.09 91.1672 291.879 90.3629 291.869 89.3801C291.86 88.3973 291.056 87.6082 290.073 87.6177C289.09 87.6271 288.302 88.4315 288.311 89.4143C288.32 90.397 289.125 91.1861 290.107 91.1767Z" fill="#32ADAA"/>
<path id="Vector_99" d="M287.501 260.942C288.484 260.933 289.273 260.129 289.263 259.146C289.254 258.163 288.45 257.374 287.467 257.383C286.485 257.393 285.696 258.197 285.705 259.18C285.714 260.163 286.519 260.952 287.501 260.942Z" fill="#32ADAA"/>
<path id="Vector_100" d="M287.553 266.292C288.536 266.282 289.324 265.478 289.315 264.495C289.306 263.513 288.501 262.723 287.519 262.733C286.536 262.742 285.747 263.547 285.757 264.529C285.766 265.512 286.57 266.301 287.553 266.292Z" fill="#32ADAA"/>
<path id="Vector_101" d="M287.604 271.643C288.587 271.634 289.376 270.83 289.366 269.847C289.357 268.864 288.553 268.075 287.57 268.084C286.588 268.094 285.799 268.898 285.808 269.881C285.818 270.864 286.622 271.653 287.604 271.643Z" fill="#32ADAA"/>
<path id="Vector_102" d="M282.492 254.675C283.475 254.665 284.264 253.861 284.254 252.878C284.245 251.895 283.441 251.106 282.458 251.116C281.476 251.125 280.687 251.93 280.696 252.912C280.706 253.895 281.51 254.684 282.492 254.675Z" fill="#32ADAA"/>
<path id="Vector_103" d="M282.544 260.024C283.526 260.015 284.315 259.211 284.306 258.228C284.296 257.245 283.492 256.456 282.51 256.465C281.527 256.475 280.738 257.279 280.748 258.262C280.757 259.245 281.561 260.034 282.544 260.024Z" fill="#32ADAA"/>
<path id="Vector_104" d="M282.595 265.376C283.578 265.366 284.366 264.562 284.357 263.579C284.348 262.597 283.543 261.807 282.561 261.817C281.578 261.826 280.789 262.631 280.799 263.613C280.808 264.596 281.612 265.385 282.595 265.376Z" fill="#32ADAA"/>
<path id="Vector_105" d="M302.537 289.759C303.52 289.749 304.309 288.945 304.299 287.962C304.29 286.979 303.486 286.19 302.503 286.2C301.521 286.209 300.732 287.013 300.741 287.996C300.751 288.979 301.555 289.768 302.537 289.759Z" fill="#32ADAA"/>
<path id="Vector_106" d="M302.589 295.108C303.571 295.099 304.36 294.295 304.351 293.312C304.341 292.329 303.537 291.54 302.555 291.549C301.572 291.559 300.783 292.363 300.792 293.346C300.802 294.329 301.606 295.118 302.589 295.108Z" fill="#32ADAA"/>
<path id="Vector_107" d="M302.64 300.46C303.622 300.45 304.411 299.646 304.402 298.663C304.392 297.681 303.588 296.891 302.606 296.901C301.623 296.91 300.834 297.715 300.844 298.697C300.853 299.68 301.657 300.469 302.64 300.46Z" fill="#32ADAA"/>
<path id="Vector_108" d="M297.528 283.491C298.511 283.482 299.3 282.677 299.29 281.695C299.281 280.712 298.477 279.923 297.494 279.932C296.511 279.942 295.722 280.746 295.732 281.729C295.741 282.711 296.546 283.501 297.528 283.491Z" fill="#32ADAA"/>
<path id="Vector_109" d="M297.579 288.841C298.562 288.831 299.351 288.027 299.341 287.044C299.332 286.061 298.528 285.272 297.545 285.282C296.563 285.291 295.774 286.096 295.783 287.078C295.793 288.061 296.597 288.85 297.579 288.841Z" fill="#32ADAA"/>
<path id="Vector_110" d="M297.631 294.192C298.614 294.183 299.403 293.378 299.393 292.396C299.384 291.413 298.58 290.624 297.597 290.633C296.614 290.643 295.826 291.447 295.835 292.43C295.844 293.413 296.649 294.202 297.631 294.192Z" fill="#32ADAA"/>
<path id="Vector_111" d="M266.209 337.39C267.192 337.38 267.981 336.576 267.971 335.593C267.962 334.61 267.158 333.821 266.175 333.831C265.193 333.84 264.404 334.644 264.413 335.627C264.423 336.61 265.227 337.399 266.209 337.39Z" fill="#32ADAA"/>
<path id="Vector_112" d="M266.261 342.739C267.243 342.73 268.032 341.925 268.023 340.943C268.013 339.96 267.209 339.171 266.226 339.18C265.244 339.19 264.455 339.994 264.464 340.977C264.474 341.96 265.278 342.749 266.261 342.739Z" fill="#32ADAA"/>
<path id="Vector_113" d="M266.3 348.091C267.282 348.081 268.071 347.277 268.062 346.294C268.052 345.311 267.248 344.522 266.265 344.532C265.283 344.541 264.494 345.346 264.503 346.328C264.513 347.311 265.317 348.1 266.3 348.091Z" fill="#32ADAA"/>
<path id="Vector_114" d="M261.187 331.122C262.17 331.113 262.959 330.308 262.949 329.325C262.94 328.343 262.136 327.554 261.153 327.563C260.171 327.572 259.382 328.377 259.391 329.36C259.401 330.342 260.205 331.131 261.187 331.122Z" fill="#32ADAA"/>
<path id="Vector_115" d="M261.239 336.472C262.222 336.462 263.011 335.658 263.001 334.675C262.992 333.692 262.187 332.903 261.205 332.913C260.222 332.922 259.433 333.726 259.443 334.709C259.452 335.692 260.256 336.481 261.239 336.472Z" fill="#32ADAA"/>
<path id="Vector_116" d="M261.29 341.823C262.273 341.814 263.062 341.009 263.052 340.027C263.043 339.044 262.239 338.255 261.256 338.264C260.274 338.274 259.485 339.078 259.494 340.061C259.504 341.044 260.308 341.833 261.29 341.823Z" fill="#32ADAA"/>
<path id="Vector_117" d="M298.781 126.847C299.764 126.837 300.553 126.033 300.543 125.05C300.534 124.067 299.729 123.278 298.747 123.288C297.764 123.297 296.975 124.101 296.985 125.084C296.994 126.067 297.798 126.856 298.781 126.847Z" fill="#32ADAA"/>
<path id="Vector_118" d="M298.82 132.196C299.803 132.187 300.592 131.382 300.582 130.4C300.573 129.417 299.769 128.628 298.786 128.637C297.803 128.647 297.014 129.451 297.024 130.434C297.033 131.417 297.838 132.206 298.82 132.196Z" fill="#32ADAA"/>
<path id="Vector_119" d="M298.871 137.548C299.854 137.538 300.643 136.734 300.633 135.751C300.624 134.768 299.82 133.979 298.837 133.989C297.855 133.998 297.066 134.803 297.075 135.785C297.085 136.768 297.889 137.557 298.871 137.548Z" fill="#32ADAA"/>
<path id="Vector_120" d="M293.76 120.577C294.742 120.568 295.531 119.763 295.522 118.78C295.512 117.798 294.708 117.009 293.725 117.018C292.743 117.028 291.954 117.832 291.963 118.815C291.973 119.797 292.777 120.586 293.76 120.577Z" fill="#32ADAA"/>
<path id="Vector_121" d="M293.811 125.929C294.793 125.919 295.582 125.115 295.573 124.132C295.563 123.149 294.759 122.36 293.777 122.37C292.794 122.379 292.005 123.183 292.015 124.166C292.024 125.149 292.828 125.938 293.811 125.929Z" fill="#32ADAA"/>
<path id="Vector_122" d="M293.862 131.278C294.845 131.269 295.634 130.464 295.624 129.482C295.615 128.499 294.811 127.71 293.828 127.719C292.845 127.729 292.056 128.533 292.066 129.516C292.075 130.499 292.88 131.288 293.862 131.278Z" fill="#32ADAA"/>
<path id="Vector_123" d="M321.331 258.425C322.313 258.415 323.102 257.611 323.093 256.628C323.083 255.645 322.279 254.856 321.297 254.866C320.314 254.875 319.525 255.68 319.535 256.662C319.544 257.645 320.348 258.434 321.331 258.425Z" fill="#32ADAA"/>
<path id="Vector_124" d="M321.382 263.774C322.365 263.765 323.154 262.961 323.144 261.978C323.135 260.995 322.331 260.206 321.348 260.215C320.365 260.225 319.576 261.029 319.586 262.012C319.595 262.995 320.4 263.784 321.382 263.774Z" fill="#32ADAA"/>
<path id="Vector_125" d="M321.433 269.138C322.416 269.128 323.205 268.324 323.195 267.341C323.186 266.358 322.382 265.569 321.399 265.579C320.417 265.588 319.628 266.392 319.637 267.375C319.647 268.358 320.451 269.147 321.433 269.138Z" fill="#32ADAA"/>
<path id="Vector_126" d="M316.322 252.169C317.304 252.159 318.093 251.355 318.084 250.372C318.074 249.389 317.27 248.6 316.287 248.61C315.305 248.619 314.516 249.424 314.525 250.406C314.535 251.389 315.339 252.178 316.322 252.169Z" fill="#32ADAA"/>
<path id="Vector_127" d="M316.373 257.52C317.355 257.511 318.144 256.707 318.135 255.724C318.126 254.741 317.321 253.952 316.339 253.961C315.356 253.971 314.567 254.775 314.577 255.758C314.586 256.741 315.39 257.53 316.373 257.52Z" fill="#32ADAA"/>
<path id="Vector_128" d="M316.425 262.87C317.407 262.861 318.196 262.056 318.187 261.073C318.177 260.091 317.373 259.302 316.39 259.311C315.408 259.32 314.619 260.125 314.628 261.108C314.638 262.09 315.442 262.879 316.425 262.87Z" fill="#32ADAA"/>
<path id="Vector_129" d="M67.66 33.836H292.278C294.359 33.8325 296.396 34.4339 298.142 35.5672C299.887 36.7004 301.266 38.3166 302.11 40.2192C302.955 42.1217 303.228 44.2287 302.897 46.2837C302.566 48.3387 301.645 50.2533 300.247 51.7946L290.398 62.66C276.437 78.0829 259.4 90.4095 240.386 98.8455C221.372 107.282 200.801 111.64 180 111.64C159.199 111.64 138.629 107.282 119.614 98.8455C100.6 90.4095 83.5634 78.0829 69.6021 62.66L59.7538 51.7821C58.3627 50.2443 57.4464 48.3367 57.1156 46.2894C56.7848 44.2422 57.0536 42.1429 57.8897 40.2452C58.7257 38.3474 60.0932 36.7324 61.827 35.595C63.5607 34.4577 65.5866 33.8467 67.66 33.836Z" fill="#0FDAD7"/>
<path id="Vector_130" d="M300.234 46.0178L290.386 56.8958C276.424 72.3186 259.388 84.6452 240.373 93.0812C221.359 101.517 200.789 105.876 179.988 105.876C159.187 105.876 138.616 101.517 119.602 93.0812C100.587 84.6452 83.5507 72.3186 69.5894 56.8958L59.7412 46.0178C58.6829 44.8583 57.8917 43.4808 57.4232 41.9824C56.8709 43.7519 56.7944 45.6356 57.2013 47.444C57.6082 49.2524 58.4842 50.9217 59.7412 52.2839L69.5894 63.1619C83.5507 78.5847 100.587 90.9113 119.602 99.3473C138.616 107.783 159.187 112.142 179.988 112.142C200.789 112.142 221.359 107.783 240.373 99.3473C259.388 90.9113 276.424 78.5847 290.386 63.1619L300.234 52.2839C301.491 50.9217 302.367 49.2524 302.774 47.444C303.181 45.6356 303.104 43.7519 302.552 41.9824C302.083 43.4808 301.292 44.8583 300.234 46.0178Z" fill="#0FCBC9"/>
<path id="Vector_131" d="M70.1655 43.0968H294.783C296.864 43.0795 298.904 43.6752 300.648 44.8095C302.393 45.9438 303.765 47.5666 304.594 49.4757C305.325 47.8379 305.634 46.0436 305.496 44.2556C305.357 42.4676 304.773 40.7427 303.799 39.2375C302.824 37.7322 301.489 36.4944 299.915 35.6363C298.34 34.7783 296.576 34.3273 294.783 34.3242H70.1655C68.3725 34.3273 66.6087 34.7783 65.0343 35.6363C63.4598 36.4944 62.1247 37.7322 61.15 39.2375C60.1753 40.7427 59.5921 42.4676 59.4532 44.2556C59.3144 46.0436 59.6243 47.8379 60.3548 49.4757C61.1836 47.5666 62.5558 45.9438 64.3004 44.8095C66.045 43.6752 68.0848 43.0795 70.1655 43.0968Z" fill="#6EF9F2"/>
<path id="Vector_132" d="M180 115.407C158.852 115.391 137.941 110.952 118.61 102.375C99.2784 93.7982 81.9536 81.2734 67.7473 65.6044L57.899 54.7264C56.1794 52.8296 55.0463 50.4749 54.6368 47.9474C54.2274 45.4199 54.559 42.8278 55.5917 40.4849C56.6244 38.1419 58.3138 36.1486 60.4556 34.746C62.5974 33.3434 65.0996 32.5918 67.6596 32.582H292.277C294.843 32.5797 297.353 33.3226 299.505 34.7204C301.656 36.1183 303.355 38.1109 304.395 40.4563C305.436 42.8016 305.773 45.3987 305.365 47.932C304.958 50.4652 303.824 52.8256 302.101 54.7264L292.252 65.6044C278.046 81.2734 260.721 93.7982 241.39 102.375C222.058 110.952 201.148 115.391 180 115.407ZM67.6596 37.5949C66.0613 37.5905 64.4964 38.0515 63.1557 38.9217C61.815 39.7919 60.7565 41.0336 60.1095 42.4953C59.4625 43.9571 59.2549 45.5756 59.5121 47.1533C59.7692 48.7311 60.48 50.1998 61.5577 51.3803L71.4184 62.2458C85.1562 77.3954 101.909 89.5048 120.602 97.7966C139.294 106.088 159.514 110.38 179.962 110.394C200.411 110.38 220.63 106.088 239.323 97.7966C258.015 89.5048 274.768 77.3954 288.506 62.2458L298.379 51.3803C299.457 50.1998 300.168 48.7311 300.425 47.1533C300.682 45.5756 300.474 43.9571 299.827 42.4953C299.18 41.0336 298.122 39.7919 296.781 38.9217C295.441 38.0515 293.876 37.5905 292.277 37.5949H67.6596Z" fill="#264575"/>
<path id="Vector_133" d="M286.903 48.6387L283.96 51.8906L286.747 54.4136L289.69 51.1617L286.903 48.6387Z" fill="#264575"/>
<path id="Vector_134" d="M184.185 105.483L184.072 101.723C187.004 101.635 189.973 101.46 192.843 101.172L193.206 104.931C190.287 105.27 187.229 105.395 184.185 105.483ZM176.391 105.483C173.372 105.395 170.327 105.207 167.32 104.919L167.683 101.159C170.603 101.435 173.585 101.623 176.454 101.711L176.391 105.483ZM201.024 104.016L200.473 100.257C203.38 99.8182 206.299 99.2667 209.169 98.6276L209.983 102.3C207.014 102.939 204.007 103.503 201.024 104.016ZM159.602 104.016C156.62 103.553 153.613 102.989 150.668 102.337L151.483 98.6652C154.352 99.3043 157.271 99.8558 160.178 100.294L159.602 104.016ZM143.113 100.42C140.206 99.5926 137.286 98.6652 134.455 97.6376L135.708 94.1035C138.464 95.0935 141.296 95.9958 144.128 96.7979L143.113 100.42ZM217.526 100.42L216.498 96.7979C219.33 95.9958 222.162 95.081 224.918 94.091L226.171 97.625C223.352 98.6151 220.433 99.5424 217.526 100.37V100.42ZM127.188 94.8053C124.406 93.6273 121.637 92.2988 118.943 90.9704L120.647 87.6118C123.253 88.9402 125.96 90.1934 128.666 91.3715L127.188 94.8053ZM233.451 94.8053L231.985 91.3464C234.679 90.206 237.385 88.9402 240.004 87.5867L241.708 90.9454C239.002 92.2863 236.22 93.5771 233.451 94.7552V94.8053ZM112.102 87.286C109.496 85.7696 106.902 84.1404 104.409 82.4485L106.501 79.2403C108.932 80.882 111.513 82.4736 114.019 83.9649L112.102 87.286ZM248.549 87.286L246.657 83.9649C249.163 82.4861 251.669 80.9071 254.175 79.2528L256.28 82.3608C253.749 84.0276 251.155 85.6568 248.549 87.1857V87.286ZM98.0814 77.7991C95.6883 75.9694 93.3202 74.0394 91.0523 72.0343L93.5582 69.202C95.7635 71.1445 98.0689 73.0243 100.399 74.8039L98.0814 77.7991ZM262.582 77.7991L260.302 74.8164C262.632 73.0368 264.938 71.1445 267.143 69.202L269.649 72.0217C267.344 73.9392 264.975 75.9443 262.582 77.774V77.7991ZM85.3263 66.7331C83.4343 64.8658 81.5674 62.9735 79.7757 60.9433L79.0615 60.1537L81.8431 57.6473L82.5447 58.4243C84.2864 60.3543 86.1032 62.184 87.945 64.0513L85.3263 66.7331ZM275.325 66.7331L272.694 64.0513C274.523 62.2466 276.327 60.3668 278.069 58.4494L278.808 57.6348L281.59 60.1412L280.85 60.9558C279.059 62.9108 277.204 64.8533 275.325 66.6955V66.7331Z" fill="#264575"/>
<path id="Vector_135" d="M73.7195 48.6381L70.9336 51.1621L73.8776 54.413L76.6635 51.889L73.7195 48.6381Z" fill="#264575"/>
<path id="Vector_136" d="M199.596 51.8691H164.526C161.543 51.8691 159.125 54.2874 159.125 57.2705V72.1588C159.125 75.1419 161.543 77.5602 164.526 77.5602H199.596C202.579 77.5602 204.996 75.1419 204.996 72.1588V57.2705C204.996 54.2874 202.579 51.8691 199.596 51.8691Z" fill="white"/>
<path id="Vector_137" d="M204.734 56.8827H159.376C159.732 55.7947 160.42 54.846 161.344 54.1712C162.269 53.4964 163.382 53.1297 164.526 53.123H199.609C200.75 53.1311 201.859 53.4988 202.779 54.1738C203.699 54.8488 204.383 55.7967 204.734 56.8827Z" fill="#E8EFEF"/>
<path id="Vector_138" d="M199.584 79.4409H164.501C162.571 79.4376 160.722 78.6694 159.357 77.3046C157.993 75.9399 157.225 74.0898 157.221 72.1597V57.2714C157.225 55.3414 157.993 53.4913 159.357 52.1265C160.722 50.7617 162.571 49.9935 164.501 49.9902H199.584C201.513 49.9935 203.363 50.7617 204.728 52.1265C206.092 53.4913 206.86 55.3414 206.863 57.2714V72.1597C206.86 74.0898 206.092 75.9399 204.728 77.3046C203.363 78.6694 201.513 79.4376 199.584 79.4409ZM164.501 53.7499C163.568 53.7532 162.674 54.1253 162.015 54.785C161.355 55.4447 160.983 56.3385 160.98 57.2714V72.1597C160.983 73.0927 161.355 73.9865 162.015 74.6462C162.674 75.3059 163.568 75.678 164.501 75.6813H199.584C200.516 75.678 201.41 75.3059 202.07 74.6462C202.729 73.9865 203.101 73.0927 203.105 72.1597V57.2714C203.101 56.3385 202.729 55.4447 202.07 54.785C201.41 54.1253 200.516 53.7532 199.584 53.7499H164.501Z" fill="#264575"/>
<path id="Vector_139" opacity="0.35" d="M127.802 54.3767C127.802 50.2239 124.436 46.8574 120.284 46.8574C116.132 46.8574 112.766 50.2239 112.766 54.3767V64.4025C112.766 68.5553 116.132 71.9218 120.284 71.9218C124.436 71.9218 127.802 68.5553 127.802 64.4025V54.3767Z" fill="white"/>
<path id="Vector_140" d="M98.5276 53.3458C98.5369 52.3631 97.7479 51.5588 96.7653 51.5496C95.7827 51.5403 94.9787 52.3295 94.9694 53.3123C94.9601 54.2951 95.7492 55.0993 96.7318 55.1086C97.7143 55.1178 98.5184 54.3286 98.5276 53.3458Z" fill="white"/>
<path id="Vector_141" d="M93.1771 53.2951C93.1863 52.3123 92.3973 51.5081 91.4147 51.4988C90.4321 51.4895 89.6281 52.2787 89.6188 53.2615C89.6096 54.2443 90.3986 55.0485 91.3812 55.0578C92.3638 55.0671 93.1678 54.2779 93.1771 53.2951Z" fill="white"/>
<path id="Vector_142" d="M87.8265 53.258C87.8357 52.2752 87.0467 51.471 86.0641 51.4617C85.0815 51.4524 84.2775 52.2416 84.2682 53.2244C84.259 54.2072 85.048 55.0114 86.0306 55.0207C87.0132 55.0299 87.8172 54.2407 87.8265 53.258Z" fill="white"/>
<path id="Vector_143" d="M104.89 48.463C104.899 47.4802 104.11 46.676 103.128 46.6668C102.145 46.6575 101.341 47.4467 101.332 48.4295C101.322 49.4123 102.111 50.2165 103.094 50.2258C104.077 50.235 104.881 49.4458 104.89 48.463Z" fill="white"/>
<path id="Vector_144" d="M99.5394 48.4123C99.5486 47.4295 98.7596 46.6252 97.777 46.616C96.7944 46.6067 95.9904 47.3959 95.9811 48.3787C95.9719 49.3615 96.7609 50.1657 97.7435 50.175C98.7261 50.1842 99.5301 49.395 99.5394 48.4123Z" fill="white"/>
<path id="Vector_145" d="M94.1766 48.3615C94.1858 47.3787 93.3968 46.5745 92.4142 46.5652C91.4316 46.5559 90.6276 47.3451 90.6183 48.3279C90.6091 49.3107 91.3981 50.1149 92.3807 50.1242C93.3633 50.1335 94.1673 49.3443 94.1766 48.3615Z" fill="white"/>
<path id="Vector_146" d="M147.389 54.6017C147.399 53.6189 146.61 52.8147 145.627 52.8054C144.645 52.7962 143.84 53.5854 143.831 54.5682C143.822 55.551 144.611 56.3552 145.594 56.3644C146.576 56.3737 147.38 55.5845 147.389 54.6017Z" fill="white"/>
<path id="Vector_147" d="M142.039 54.5509C142.049 53.5681 141.26 52.7639 140.277 52.7546C139.294 52.7454 138.49 53.5346 138.481 54.5174C138.472 55.5002 139.261 56.3044 140.243 56.3136C141.226 56.3229 142.03 55.5337 142.039 54.5509Z" fill="white"/>
<path id="Vector_148" d="M136.689 54.5119C136.698 53.5291 135.909 52.7249 134.926 52.7156C133.944 52.7063 133.14 53.4955 133.131 54.4783C133.121 55.4611 133.91 56.2653 134.893 56.2746C135.875 56.2838 136.68 55.4947 136.689 54.5119Z" fill="white"/>
<path id="Vector_149" d="M153.752 49.7169C153.762 48.7342 152.972 47.9299 151.99 47.9207C151.007 47.9114 150.203 48.7006 150.194 49.6834C150.185 50.6662 150.974 51.4704 151.956 51.4797C152.939 51.4889 153.743 50.6997 153.752 49.7169Z" fill="white"/>
<path id="Vector_150" d="M148.402 49.6662C148.411 48.6834 147.622 47.8792 146.639 47.8699C145.657 47.8606 144.853 48.6498 144.843 49.6326C144.834 50.6154 145.623 51.4196 146.606 51.4289C147.588 51.4381 148.392 50.6489 148.402 49.6662Z" fill="white"/>
<path id="Vector_151" d="M143.039 49.6037C143.048 48.6209 142.259 47.8167 141.277 47.8074C140.294 47.7981 139.49 48.5873 139.481 49.5701C139.471 50.5529 140.26 51.3571 141.243 51.3664C142.226 51.3756 143.03 50.5864 143.039 49.6037Z" fill="white"/>
</g>
</g>
</g>
<defs>
<clipPath id="clip0">
<rect width="360" height="394" fill="white"/>
</clipPath>
</defs>
</svg>
