<svg width="342" height="583" viewBox="0 0 342 583" fill="none" xmlns="http://www.w3.org/2000/svg">
<g id="Calendar_SVG" clip-path="url(#clip0)">
<g id="&#208;&#161;&#208;&#187;&#208;&#190;&#208;&#185; 2">
<g id="&#208;&#161;&#208;&#187;&#208;&#190;&#208;&#185; 1">
<g id="Group" opacity="0.4">
<path id="Vector" opacity="0.4" d="M307.434 365.04C307.431 367.168 306.868 369.258 305.802 371.101C304.735 372.943 303.203 374.472 301.358 375.534L42.0999 525.236C40.2666 526.288 38.19 526.841 36.0765 526.841C33.963 526.841 31.8863 526.288 30.053 525.236C28.1917 524.184 26.6418 522.658 25.5602 520.814C24.4787 518.97 23.9041 516.872 23.8947 514.735C23.8852 512.597 24.4412 510.494 25.5063 508.64C26.5714 506.787 28.1078 505.247 29.9597 504.178L289.218 354.569C291.06 353.504 293.151 352.942 295.279 352.939C297.408 352.937 299.499 353.494 301.345 354.555C303.19 355.615 304.724 357.142 305.792 358.983C306.861 360.823 307.427 362.912 307.434 365.04Z" fill="#D6D8E5"/>
</g>
<path id="Vector_2" d="M324.449 10.4949C324.705 10.4249 324.95 10.3433 325.207 10.285L325.906 10.1334L326.816 9.9935H327.329C327.702 9.9935 328.064 9.9935 328.414 9.9935H328.67C329.097 10.0177 329.522 10.0722 329.941 10.1567L330.233 10.2267C330.553 10.2968 330.869 10.3863 331.178 10.4949L331.469 10.5998C331.869 10.7491 332.259 10.9244 332.635 11.1245L315.597 1.16688H315.504C315.227 1.00599 314.938 0.865691 314.641 0.747121H314.466L314.186 0.642181C314.034 0.642181 313.895 0.525581 313.743 0.490601L313.241 0.374001L312.938 0.304041C312.884 0.29745 312.829 0.29745 312.775 0.304041C312.435 0.243378 312.093 0.200566 311.749 0.175781H311.376C311.107 0.175781 310.839 0.175781 310.571 0.175781H310.279H309.766H309.288L308.868 0.269061L308.168 0.420641L307.877 0.455621L307.492 0.583881L306.326 1.00364C306.186 1.06194 306.046 1.08526 305.894 1.15522L305.649 1.27182C304.914 1.58709 304.197 1.94528 303.504 2.34454L17.0498 167.648L34.0413 177.524L320.414 12.2206C321.111 11.8212 321.832 11.463 322.571 11.1478L323.236 10.8797L324.449 10.4949Z" fill="#E9EAF4"/>
<path id="Vector_3" d="M17.6213 426.28L16.9915 207.072C17.0003 206.066 17.0665 205.062 17.1898 204.063C17.1898 203.819 17.1898 203.585 17.2831 203.341C17.2831 202.886 17.423 202.431 17.5163 201.976C17.6096 201.522 17.633 201.347 17.7029 201.032C17.7729 200.717 17.8429 200.461 17.9128 200.169C17.9828 199.878 18.1228 199.353 18.2394 199.003L18.4493 198.303C18.6009 197.837 18.7525 197.382 18.9158 196.928C18.9741 196.741 19.0441 196.554 19.114 196.368C19.3473 195.738 19.6038 195.109 19.8721 194.491C19.8983 194.419 19.9294 194.348 19.9654 194.281C20.2103 193.721 20.4785 193.115 20.7467 192.613C20.8283 192.45 20.9216 192.275 21.0033 192.1C21.2676 191.587 21.5475 191.074 21.8429 190.561L22.0062 190.27C22.3444 189.675 22.7059 189.104 23.0791 188.521L23.4173 188.031C23.6855 187.611 23.9771 187.203 24.257 186.865L24.7351 186.224L25.5048 185.233L26.1695 184.428C26.3795 184.171 26.601 183.927 26.8226 183.682C27.0442 183.437 27.569 182.866 27.9888 182.516L28.5486 181.944C29.3166 181.196 30.1223 180.488 30.9626 179.822L31.4058 179.496C32.2512 178.835 33.1395 178.232 34.0647 177.689L17.0732 167.812C16.146 168.358 15.254 168.962 14.4026 169.62L13.9594 169.946C13.1431 170.599 12.3384 171.311 11.557 172.068L11.3471 172.243C11.2305 172.372 11.1139 172.511 10.9856 172.64C10.6008 173.025 10.2159 173.433 9.81941 173.806C9.69113 173.946 9.56285 174.062 9.44623 174.202L9.16634 174.552C8.9331 174.808 8.72318 175.088 8.5016 175.357C8.28002 175.625 8.19839 175.706 8.05845 175.893C7.9185 176.079 7.83687 176.196 7.72025 176.348C7.60363 176.499 7.40537 176.767 7.25377 176.989L6.92723 177.432C6.74064 177.689 6.57737 177.945 6.40244 178.213L6.07591 178.703L5.93596 178.913C5.63275 179.379 5.3412 179.869 5.04965 180.359V180.452L4.88638 180.743C4.68813 181.093 4.48987 181.443 4.30328 181.793L4.05838 182.283L3.80181 182.796C3.72018 182.947 3.63855 183.099 3.56857 183.25C3.38198 183.647 3.19539 184.055 3.02046 184.416L2.9155 184.626C2.69392 185.128 2.48401 185.641 2.28575 186.154C2.28575 186.247 2.28575 186.352 2.19246 186.445C2.09916 186.538 2.05251 186.818 1.98254 187.005C1.91257 187.191 1.79595 187.518 1.71431 187.774C1.63268 188.031 1.58603 188.171 1.52772 188.381C1.46941 188.591 1.37612 188.847 1.30614 189.08C1.23617 189.314 1.21285 189.372 1.17786 189.512C1.14288 189.652 1.04958 190.036 0.979608 190.305L0.769692 191.179L0.69972 191.471C0.69972 191.681 0.629748 191.89 0.5831 192.1C0.501466 192.567 0.419832 193.021 0.34986 193.476C0.34986 193.593 0.34986 193.721 0.34986 193.849C0.34986 193.978 0.34986 194.082 0.34986 194.199C0.176665 195.187 0.0598563 196.183 0 197.184L0.618086 416.392C0.618086 421.791 2.54232 425.58 5.60943 427.364L22.601 437.252C19.5339 435.468 17.633 431.678 17.6213 426.28Z" fill="#D5D7E2"/>
<path id="Vector_4" d="M320.414 12.2201C329.872 6.76319 337.545 11.1357 337.58 22.0028L338.198 241.211C338.198 252.066 330.606 265.277 321.148 270.734L34.7763 436.084C25.33 441.541 17.6448 437.169 17.6214 426.313L16.9917 207.105C16.9917 196.238 24.5953 183.027 34.0416 177.571L320.414 12.2201Z" fill="#F4F6F9"/>
<path id="Vector_5" d="M312.028 96.1387V98.1209C311.112 100.138 310.404 102.244 309.918 104.406C309.287 106.687 308.931 109.036 308.856 111.402L310.629 110.376V112.941L303.9 116.824V114.27L305.661 113.256C305.82 111.128 306.211 109.025 306.827 106.982C307.428 104.69 308.208 102.448 309.16 100.278L305.544 102.377V104.627L303.317 105.91V101.152L312.028 96.1387Z" fill="#E26D6D"/>
<path id="Vector_6" d="M303.096 137.52L303.131 150.964L304.95 149.926V152.491L298.128 156.42V153.855L300.052 152.747L300.017 141.869L297.988 143.046L297.976 140.481L303.096 137.52Z" fill="#E26D6D"/>
<path id="Vector_7" d="M317.626 140.76L316.273 141.542V143.594L317.44 142.917V145.249L311.854 148.468V146.136L313.405 145.238V143.186L308.273 146.147C308.09 145.581 307.843 145.038 307.539 144.527L313.498 131.234L316.25 129.637V139.338L317.615 138.557L317.626 140.76ZM313.393 141.005V135.42L309.894 143.011L313.393 141.005Z" fill="#E26D6D"/>
<path id="Vector_8" d="M302.804 174.096C304.133 173.338 305.136 173.151 305.941 173.571C306.354 173.829 306.683 174.201 306.89 174.641C307.097 175.082 307.172 175.572 307.107 176.055C307.107 176.759 306.997 177.459 306.781 178.13C306.563 178.806 306.269 179.455 305.906 180.066C305.545 180.66 304.938 181.581 304.04 182.829C303.078 184.097 302.242 185.456 301.545 186.887C301.24 187.525 301.016 188.199 300.88 188.892L304.938 186.56V184.485L307.166 183.19L307.072 187.913L298.128 193.078C298.101 191.905 298.203 190.732 298.431 189.58C298.644 188.618 298.965 187.684 299.387 186.793C299.942 185.588 300.573 184.42 301.276 183.295C302.338 181.546 303.026 180.334 303.364 179.611C303.682 178.965 303.854 178.256 303.865 177.535C303.888 177.353 303.865 177.168 303.798 176.996C303.731 176.825 303.622 176.674 303.48 176.556C303.333 176.469 303.162 176.429 302.991 176.441C302.82 176.454 302.657 176.518 302.524 176.626C301.947 176.96 301.509 177.49 301.288 178.118C300.988 179.032 300.842 179.99 300.856 180.952L298.302 182.293C298.255 180.989 298.453 179.687 298.886 178.457C299.254 177.474 299.808 176.571 300.518 175.798C301.189 175.118 301.96 174.544 302.804 174.096Z" fill="#E26D6D"/>
<path id="Vector_9" d="M315.807 166.879L315.842 180.323L317.673 179.262L317.685 181.85L310.862 185.791L310.851 183.203L312.775 182.095L312.752 171.216L310.699 172.394V169.829L315.807 166.879Z" fill="#E26D6D"/>
<path id="Vector_10" d="M302.209 211.164C303.527 210.394 304.542 210.219 305.335 210.616C305.749 210.877 306.08 211.253 306.286 211.697C306.493 212.142 306.568 212.637 306.501 213.122C306.503 213.823 306.393 214.52 306.174 215.186C305.952 215.864 305.659 216.517 305.3 217.133C304.95 217.728 304.332 218.626 303.445 219.885C302.479 221.149 301.64 222.504 300.938 223.931C300.653 224.591 300.453 225.285 300.343 225.995L304.402 223.663V221.541L306.629 220.247L306.536 224.969L297.614 230.123C297.581 228.973 297.675 227.824 297.894 226.695C298.119 225.736 298.439 224.802 298.851 223.908C299.415 222.708 300.045 221.54 300.74 220.41C301.497 219.217 302.193 217.988 302.827 216.725C303.151 216.085 303.323 215.379 303.329 214.662C303.35 214.476 303.326 214.288 303.259 214.113C303.192 213.939 303.084 213.783 302.944 213.659C302.794 213.576 302.624 213.54 302.453 213.554C302.283 213.569 302.121 213.634 301.988 213.74C301.437 214.087 301.025 214.615 300.821 215.233C300.513 216.145 300.359 217.103 300.367 218.066L297.813 219.407C297.764 218.103 297.962 216.802 298.396 215.571C298.777 214.598 299.33 213.701 300.028 212.924C300.663 212.232 301.398 211.638 302.209 211.164Z" fill="#E26D6D"/>
<path id="Vector_11" d="M316.04 211.047C317.661 210.826 318.478 211.677 318.478 213.601C318.477 215.064 318.048 216.495 317.241 217.717C316.322 219.135 315.064 220.301 313.58 221.11C311.97 222.043 310.746 222.276 309.941 221.868C309.517 221.573 309.184 221.165 308.978 220.692C308.772 220.218 308.702 219.697 308.775 219.186C308.807 218.178 309.042 217.187 309.465 216.272C309.887 215.357 310.489 214.536 311.235 213.857C309.859 213.764 309.171 212.936 309.171 211.362C309.19 210.028 309.595 208.728 310.337 207.619C311.171 206.365 312.29 205.326 313.603 204.587C315.037 203.76 316.145 203.515 316.915 203.83C317.685 204.144 318.081 204.926 318.081 206.162C317.982 207.976 317.261 209.701 316.04 211.047ZM314.991 217.122C315.345 216.475 315.53 215.749 315.527 215.012C315.56 214.734 315.528 214.452 315.433 214.189C315.337 213.925 315.182 213.688 314.979 213.496C314.641 213.216 314.174 213.251 313.603 213.589C313.023 213.942 312.554 214.451 312.25 215.058C311.898 215.718 311.717 216.456 311.725 217.204C311.685 217.478 311.712 217.758 311.804 218.02C311.895 218.282 312.048 218.518 312.25 218.708C312.468 218.82 312.715 218.866 312.959 218.841C313.203 218.816 313.435 218.721 313.626 218.568C314.209 218.225 314.682 217.723 314.991 217.122ZM312.39 208.319C312.076 208.894 311.919 209.541 311.935 210.196C311.912 210.424 311.939 210.654 312.016 210.87C312.092 211.086 312.216 211.282 312.378 211.444C312.681 211.677 313.078 211.642 313.544 211.35C314.045 211.039 314.449 210.595 314.711 210.068C315 209.509 315.148 208.889 315.142 208.26C315.17 208.027 315.147 207.791 315.075 207.567C315.002 207.344 314.882 207.139 314.722 206.966C314.431 206.745 314.023 206.768 313.556 207.059C313.062 207.368 312.659 207.802 312.39 208.319Z" fill="#E26D6D"/>
<g id="Group_2" opacity="0.8">
<path id="Vector_12" opacity="0.8" d="M48.6773 248.15L48.7123 261.618L50.5316 260.568L50.5432 263.133L43.7209 267.063L43.7093 264.498L45.6335 263.39L45.5985 252.511L43.5693 253.689V251.1L48.6773 248.15Z" fill="#3A4151"/>
<path id="Vector_13" opacity="0.8" d="M89.3892 224.387C90.707 223.629 91.7216 223.443 92.5146 223.839C92.9241 224.106 93.2505 224.483 93.4567 224.926C93.6629 225.369 93.7405 225.861 93.6808 226.346C93.6701 227.055 93.5399 227.756 93.296 228.422C93.0734 229.096 92.7802 229.745 92.4213 230.357C92.0715 230.948 91.4534 231.869 90.5671 233.121C89.5907 234.381 88.7502 235.741 88.0598 237.178C87.7724 237.833 87.5724 238.523 87.465 239.231L91.535 236.899V234.811L93.7625 233.529L93.6575 238.251L84.7244 243.405C84.7057 242.255 84.8034 241.107 85.016 239.977C85.2401 239.015 85.5686 238.081 85.9956 237.19C86.5504 235.989 87.1734 234.822 87.8615 233.692C88.6242 232.497 89.3249 231.263 89.9607 229.996C90.2854 229.36 90.4571 228.657 90.4621 227.944C90.4831 227.758 90.459 227.57 90.3921 227.395C90.3251 227.221 90.2171 227.065 90.0773 226.941C89.9284 226.858 89.7586 226.821 89.5887 226.833C89.4188 226.846 89.2563 226.907 89.121 227.011C88.5736 227.366 88.1626 227.896 87.9548 228.515C87.644 229.427 87.4941 230.385 87.5116 231.348L84.9577 232.678C84.9074 231.373 85.1093 230.07 85.5524 228.841C85.9171 227.874 86.4545 226.981 87.1385 226.206C87.7911 225.488 88.5502 224.875 89.3892 224.387Z" fill="#3A4151"/>
<path id="Vector_14" opacity="0.8" d="M132.679 199.387C134.055 198.594 135.116 198.35 135.886 198.664C136.656 198.979 137.052 199.83 137.052 201.09C136.999 202.913 136.252 204.648 134.965 205.94C136.691 205.579 137.554 206.36 137.565 208.272C137.555 209.808 137.097 211.307 136.248 212.586C135.393 213.916 134.234 215.024 132.866 215.816C129.88 217.542 128.263 216.765 128.014 213.484L130.708 211.677C130.708 213.542 131.361 214.137 132.562 213.449C133.132 213.096 133.592 212.591 133.892 211.992C134.216 211.372 134.388 210.685 134.393 209.986C134.422 209.726 134.391 209.462 134.302 209.215C134.213 208.969 134.069 208.746 133.88 208.564C133.554 208.284 133.04 208.342 132.376 208.727C132.212 208.832 132.014 208.96 131.746 209.112V206.418C132.455 206.037 133.054 205.479 133.484 204.797C133.819 204.253 134.004 203.629 134.02 202.99C134.043 202.796 134.016 202.599 133.943 202.418C133.87 202.236 133.752 202.076 133.6 201.952C133.428 201.865 133.235 201.828 133.043 201.847C132.851 201.866 132.668 201.939 132.516 202.057C132.015 202.367 131.612 202.811 131.353 203.339C131.093 203.867 130.987 204.457 131.046 205.042L128.411 206.383C128.455 204.94 128.895 203.536 129.682 202.326C130.427 201.117 131.456 200.109 132.679 199.387Z" fill="#3A4151"/>
<path id="Vector_15" opacity="0.8" d="M181.858 182.911L180.505 183.692V185.744L181.671 185.068V187.4L176.073 190.63V188.298L177.613 187.412V185.395L172.505 188.345C172.317 187.776 172.062 187.232 171.747 186.724L177.718 173.42L180.458 171.846V181.535L181.811 180.754L181.858 182.911ZM177.624 183.168V177.571L174.184 185.161L177.683 183.168" fill="#3A4151"/>
<path id="Vector_16" opacity="0.8" d="M224.925 146.416V150.182L222.873 151.348L222.686 150.275L219.106 152.339L218.931 156.292C219.529 155.354 220.325 154.558 221.263 153.96C222.616 153.179 223.677 153.062 224.435 153.645C224.856 154.029 225.181 154.507 225.384 155.04C225.586 155.572 225.661 156.145 225.602 156.712C225.609 158.321 225.207 159.906 224.435 161.318C223.596 162.873 222.33 164.155 220.785 165.014C219.397 165.807 218.301 166.028 217.532 165.667C217.098 165.414 216.737 165.054 216.484 164.621C216.231 164.187 216.093 163.696 216.085 163.195L218.733 161.294C218.908 162.74 219.526 163.16 220.575 162.553C221.184 162.2 221.671 161.672 221.975 161.038C222.3 160.337 222.46 159.571 222.441 158.799C222.441 156.898 221.835 156.304 220.622 157.003C219.837 157.538 219.25 158.316 218.954 159.219H216.704L217.1 150.858L224.925 146.416Z" fill="#3A4151"/>
<path id="Vector_17" opacity="0.8" d="M268.028 128.588C268.763 129.008 269.136 130.034 269.194 131.643C269.231 133.315 268.829 134.967 268.028 136.435C267.307 137.757 266.238 138.858 264.938 139.618C263.235 140.598 261.964 140.679 261.147 139.84C260.331 139 259.888 137.216 259.876 134.441C259.779 131.949 260.253 129.468 261.264 127.189C262.086 125.442 263.415 123.983 265.078 123.003C267.41 121.673 268.704 122.326 268.996 125.008L266.594 126.641C266.314 125.475 265.777 125.078 264.973 125.545C264.225 126.054 263.687 126.816 263.457 127.69C263.087 128.875 262.899 130.11 262.897 131.351C263.486 130.323 264.335 129.467 265.357 128.868C265.736 128.584 266.184 128.408 266.654 128.358C267.124 128.309 267.599 128.388 268.028 128.588ZM265.894 135.759C266.192 135.019 266.331 134.224 266.302 133.427C266.341 133.135 266.317 132.837 266.23 132.556C266.144 132.274 265.997 132.014 265.801 131.794C265.62 131.694 265.414 131.647 265.207 131.659C265.001 131.671 264.802 131.743 264.634 131.864C263.933 132.301 263.333 132.881 262.873 133.567C262.792 134.701 262.988 135.837 263.445 136.878C263.771 137.345 264.25 137.38 264.844 137.041C265.344 136.729 265.729 136.262 265.94 135.712" fill="#3A4151"/>
<path id="Vector_18" opacity="0.8" d="M49.5986 291.502C51.2196 291.269 52.0359 292.12 52.0476 294.067C52.0355 295.529 51.6066 296.957 50.8114 298.183C49.8818 299.587 48.6252 300.743 47.1495 301.553C45.5285 302.486 44.3273 302.719 43.511 302.311C43.0725 302.027 42.7242 301.624 42.5073 301.149C42.2903 300.674 42.2137 300.146 42.2865 299.629C42.3126 298.622 42.5444 297.631 42.9675 296.717C43.3907 295.802 43.9963 294.984 44.7472 294.312C43.3827 294.196 42.683 293.379 42.683 291.805C42.689 290.476 43.0954 289.18 43.8492 288.086C44.6706 286.819 45.7871 285.771 47.1029 285.031C48.5373 284.203 49.6452 283.958 50.4266 284.273C51.2079 284.588 51.5928 285.369 51.5928 286.605C51.5166 288.419 50.8116 290.151 49.5986 291.502ZM48.549 297.565C48.9083 296.92 49.0932 296.193 49.0854 295.455C49.1162 295.179 49.0851 294.9 48.9943 294.638C48.9035 294.375 48.7554 294.137 48.5606 293.939C48.1991 293.659 47.7443 293.694 47.1729 294.021C46.5925 294.378 46.1238 294.891 45.8201 295.501C45.4683 296.162 45.2841 296.899 45.2836 297.647C45.2445 297.922 45.2741 298.202 45.3698 298.462C45.4654 298.723 45.6241 298.955 45.8317 299.139C46.04 299.265 46.2824 299.323 46.525 299.304C46.7675 299.285 46.9982 299.191 47.1845 299.034C47.7684 298.683 48.2413 298.174 48.549 297.565ZM45.96 288.762C45.6503 289.338 45.4975 289.986 45.5169 290.639C45.4892 290.865 45.5138 291.093 45.5886 291.308C45.6634 291.522 45.7865 291.716 45.9484 291.875C46.2399 292.12 46.6364 292.085 47.1146 291.794C47.6165 291.485 48.0208 291.04 48.2808 290.511C48.5732 289.958 48.7253 289.341 48.7239 288.715C48.7506 288.479 48.7248 288.239 48.6482 288.013C48.5716 287.787 48.4461 287.581 48.2808 287.409C48.0125 287.176 47.6044 287.211 47.1146 287.526C46.6206 287.824 46.2174 288.252 45.9484 288.762" fill="#3A4151"/>
<path id="Vector_19" opacity="0.8" d="M92.7599 260.567C93.5879 261.349 94.031 263.226 94.0427 266.153C94.0427 271.679 92.3361 275.43 88.9231 277.405C88.5351 277.697 88.0837 277.893 87.6055 277.978C87.1273 278.063 86.6358 278.035 86.1708 277.894C85.4478 277.579 85.0046 276.728 84.9347 275.376L87.2671 273.743C87.5469 274.909 88.0834 275.317 88.8647 274.909C90.1126 274.198 90.824 272.262 90.9756 269.079C90.3142 270.101 89.4288 270.958 88.3866 271.586C88.0094 271.872 87.5571 272.042 87.0849 272.075C86.6127 272.108 86.1411 272.003 85.7277 271.773C85.0046 271.306 84.6314 270.292 84.6314 268.741C84.6241 267.147 85.0256 265.577 85.7976 264.182C86.5367 262.748 87.6747 261.557 89.0747 260.754C90.7073 259.845 91.9085 259.786 92.7599 260.567ZM91.0339 266.771V266.596C91.0814 265.628 90.9058 264.663 90.5208 263.774C90.1709 263.121 89.6694 262.993 88.958 263.401C88.4752 263.715 88.107 264.178 87.9085 264.718C87.6172 265.409 87.4665 266.15 87.4653 266.899C87.4234 267.481 87.5795 268.061 87.9085 268.543C88.2 268.893 88.6432 268.881 89.2263 268.543C89.9298 268.077 90.5325 267.474 90.9989 266.771" fill="#3A4151"/>
<path id="Vector_20" opacity="0.8" d="M128.177 238.693L128.224 252.149L130.032 251.1L130.043 253.665L123.233 257.594V255.029L125.157 253.921L125.122 243.019L123.081 244.209L123.069 241.643L128.177 238.693Z" fill="#3A4151"/>
<path id="Vector_21" opacity="0.8" d="M141.449 232.91C142.253 233.878 142.615 235.685 142.615 238.32C142.702 240.657 142.305 242.988 141.449 245.164C140.756 246.91 139.506 248.378 137.892 249.339C136.337 250.248 135.147 250.225 134.323 249.269C133.495 248.324 133.075 246.529 133.075 243.859C133.007 241.541 133.404 239.234 134.242 237.072C134.926 235.296 136.192 233.804 137.834 232.84C139.431 231.919 140.621 231.942 141.449 232.91ZM139.21 244.01C139.377 242.734 139.466 241.449 139.478 240.162C139.522 238.81 139.392 237.459 139.093 236.14C138.848 235.335 138.428 235.09 137.857 235.417C137.512 235.678 137.224 236.007 137.011 236.384C136.798 236.761 136.666 237.178 136.621 237.609C136.343 239.061 136.222 240.538 136.259 242.016C136.203 243.365 136.333 244.714 136.644 246.027C136.889 246.843 137.309 247.065 137.81 246.739C138.231 246.419 138.573 246.007 138.807 245.533C139.042 245.06 139.164 244.539 139.163 244.01" fill="#3A4151"/>
<path id="Vector_22" opacity="0.8" d="M172.866 212.412L172.901 225.856L174.732 224.807L174.744 227.384L167.922 231.325L167.91 228.736L169.834 227.628L169.811 216.75L167.758 217.939L167.747 215.374L172.866 212.412Z" fill="#3A4151"/>
<path id="Vector_23" opacity="0.8" d="M184.19 205.871L184.237 219.315L186.044 218.266L186.056 220.854L179.257 224.784L179.245 222.195L181.17 221.087L181.135 210.209L179.094 211.386L179.082 208.821L184.19 205.871Z" fill="#3A4151"/>
<path id="Vector_24" opacity="0.8" d="M216.47 187.727L216.505 201.182L218.324 200.133L218.336 202.698L211.514 206.639L211.502 204.074L213.426 202.966L213.391 192.064L211.351 193.253L211.339 190.677L216.47 187.727Z" fill="#3A4151"/>
<path id="Vector_25" opacity="0.8" d="M226.103 181.897C227.444 181.116 228.494 180.941 229.252 181.338C229.665 181.602 229.993 181.978 230.2 182.422C230.406 182.865 230.482 183.359 230.418 183.845C230.42 184.547 230.301 185.245 230.068 185.908C229.858 186.587 229.572 187.24 229.217 187.856C228.867 188.45 228.249 189.348 227.363 190.607C226.392 191.871 225.551 193.231 224.855 194.665C224.563 195.323 224.359 196.017 224.249 196.729L228.319 194.397V192.31L230.547 191.027L230.442 195.749L221.508 200.903C221.481 199.754 221.575 198.605 221.788 197.475C222.015 196.529 222.336 195.607 222.745 194.723C223.311 193.524 223.941 192.356 224.634 191.225C225.695 189.476 226.395 188.264 226.733 187.529C227.042 186.888 227.21 186.188 227.223 185.477C227.245 185.292 227.223 185.105 227.158 184.93C227.093 184.756 226.987 184.599 226.85 184.474C226.702 184.389 226.531 184.349 226.361 184.362C226.19 184.374 226.027 184.438 225.893 184.544C225.324 184.89 224.892 185.421 224.669 186.048C224.359 186.961 224.205 187.918 224.214 188.882L221.648 190.223C221.609 188.913 221.814 187.608 222.255 186.375C222.636 185.405 223.189 184.513 223.888 183.74C224.525 183.014 225.273 182.392 226.103 181.897Z" fill="#3A4151"/>
<path id="Vector_26" opacity="0.8" d="M259.981 162.611L260.016 176.067L261.835 175.018L261.847 177.583L255.036 181.512L255.025 178.947L256.949 177.839L256.926 166.937L254.873 168.127V165.561L259.981 162.611Z" fill="#3A4151"/>
<path id="Vector_27" opacity="0.8" d="M269.392 156.899C269.842 156.552 270.361 156.306 270.915 156.179C271.469 156.052 272.044 156.047 272.599 156.165C273.358 156.479 273.766 157.331 273.766 158.602C273.722 160.423 272.984 162.158 271.702 163.452C273.427 163.091 274.29 163.872 274.302 165.784C274.293 167.322 273.831 168.822 272.973 170.098C272.115 171.436 270.952 172.55 269.579 173.351C266.594 175.077 264.996 174.284 264.751 171.019L267.445 169.212C267.445 171.066 268.098 171.649 269.287 170.973C269.859 170.631 270.318 170.128 270.605 169.527C270.947 168.905 271.128 168.208 271.13 167.498C271.156 167.239 271.124 166.978 271.035 166.734C270.946 166.49 270.803 166.269 270.617 166.087C270.267 165.831 269.777 165.877 269.101 166.274C268.949 166.367 268.751 166.472 268.483 166.647V163.942C269.192 163.561 269.791 163.002 270.22 162.321C270.559 161.774 270.741 161.145 270.745 160.502C270.77 160.306 270.744 160.107 270.671 159.923C270.598 159.74 270.479 159.578 270.325 159.453C270.151 159.376 269.96 159.348 269.771 159.37C269.583 159.393 269.403 159.465 269.253 159.581C268.751 159.891 268.345 160.334 268.082 160.861C267.818 161.389 267.707 161.979 267.76 162.566L265.159 163.837C265.204 162.393 265.643 160.99 266.43 159.779C267.167 158.591 268.184 157.602 269.392 156.899Z" fill="#3A4151"/>
<path id="Vector_28" opacity="0.8" d="M42.648 324.488L42.683 337.932L44.5139 336.883L44.5256 339.46L37.7033 343.401L37.6916 340.812L39.6275 339.705L39.5926 328.826L37.54 330.003V327.438L42.648 324.488Z" fill="#3A4151"/>
<path id="Vector_29" opacity="0.8" d="M56.2578 316.629V320.407L54.2286 321.573L54.0187 320.488L50.4384 322.564L50.2752 326.482C50.8738 325.544 51.6697 324.748 52.6076 324.15C53.972 323.357 55.0216 323.263 55.7796 323.846C56.1999 324.231 56.5243 324.709 56.7268 325.241C56.9293 325.774 57.0043 326.346 56.9458 326.913C56.954 328.519 56.5526 330.1 55.7796 331.507C54.9511 333.063 53.6866 334.343 52.1411 335.192C50.7416 335.996 49.6454 336.229 48.8757 335.856C48.4532 335.613 48.0984 335.268 47.8438 334.853C47.5891 334.437 47.4427 333.964 47.418 333.478L50.0536 331.6C50.2402 333.035 50.8466 333.443 51.9078 332.836C52.5083 332.488 52.9914 331.968 53.2956 331.344C53.6201 330.639 53.7796 329.869 53.7621 329.093C53.7621 327.193 53.1557 326.587 51.9428 327.286C51.163 327.826 50.5782 328.603 50.2752 329.502H48.0477L48.4209 321.141L56.2578 316.629Z" fill="#3A4151"/>
<path id="Vector_30" opacity="0.8" d="M84.7944 300.445L84.8294 313.889L86.6603 312.84L86.672 315.405L79.8497 319.334L79.8381 316.769L81.7623 315.662L81.7273 304.783L79.6865 305.96L79.6748 303.395L84.7944 300.445Z" fill="#3A4151"/>
<path id="Vector_31" opacity="0.8" d="M98.1124 299.792C98.8588 300.212 99.2786 301.238 99.2786 302.847C99.3159 304.515 98.9137 306.164 98.1124 307.628C97.386 308.957 96.3091 310.062 94.9987 310.822C93.3077 311.802 92.0482 311.872 91.2085 311.056C90.3689 310.239 89.9724 308.409 89.9607 305.634C89.8498 303.142 90.321 300.659 91.3368 298.381C92.1616 296.643 93.485 295.19 95.1386 294.207C97.471 292.862 98.7772 293.531 99.0571 296.212L96.7247 297.845C96.4215 296.679 95.885 296.282 95.0803 296.749C94.3389 297.262 93.8053 298.023 93.5759 298.894C93.1966 300.073 93.0077 301.305 93.0162 302.544C93.6095 301.524 94.4574 300.677 95.4768 300.084C95.8496 299.803 96.291 299.628 96.7547 299.577C97.2184 299.525 97.6874 299.6 98.1124 299.792ZM95.99 306.975C96.2911 306.235 96.4303 305.44 96.3981 304.643C96.3981 303.815 96.2465 303.267 95.8967 303.022C95.7235 302.908 95.5208 302.847 95.3136 302.847C95.1063 302.847 94.9036 302.908 94.7305 303.022C94.0402 303.459 93.4485 304.035 92.9928 304.713C92.9059 305.848 93.0939 306.988 93.5409 308.036C93.8791 308.49 94.3456 308.549 94.9637 308.187C95.4506 307.876 95.8262 307.419 96.0366 306.881" fill="#3A4151"/>
<path id="Vector_32" opacity="0.8" d="M128.457 275.166L128.492 288.61L130.323 287.561L130.335 290.126L123.512 294.055L123.501 291.49L125.425 290.382L125.402 279.504L123.349 280.681V278.128L128.457 275.166Z" fill="#3A4151"/>
<path id="Vector_33" opacity="0.8" d="M142.556 267.016V268.986C141.633 271.001 140.925 273.107 140.445 275.271C139.805 277.55 139.449 279.9 139.384 282.267L141.157 281.241V283.806L134.428 287.689V285.124L136.177 284.109C136.339 281.982 136.73 279.879 137.343 277.836C137.937 275.542 138.717 273.299 139.676 271.132L136.096 273.195V275.446L133.856 276.728V271.994L142.556 267.016Z" fill="#3A4151"/>
<path id="Vector_34" opacity="0.8" d="M172.26 249.455L172.295 262.922L174.126 261.861L174.137 264.427L167.315 268.368L167.303 265.802L169.228 264.695L169.204 253.793L167.152 254.97V252.405L172.26 249.455Z" fill="#3A4151"/>
<path id="Vector_35" opacity="0.8" d="M184.423 250.05C186.044 249.828 186.849 250.691 186.86 252.615C186.855 254.078 186.425 255.507 185.624 256.731C184.699 258.144 183.442 259.309 181.962 260.124C180.353 261.045 179.14 261.29 178.324 260.882C177.901 260.586 177.568 260.179 177.362 259.705C177.157 259.232 177.086 258.711 177.158 258.2C177.187 257.19 177.421 256.197 177.843 255.279C178.266 254.362 178.87 253.539 179.618 252.86C178.254 252.767 177.554 251.95 177.542 250.376C177.557 249.041 177.962 247.74 178.709 246.633C179.543 245.373 180.667 244.329 181.986 243.59C183.408 242.774 184.505 242.506 185.274 242.844C185.69 243.059 186.027 243.401 186.237 243.82C186.446 244.239 186.518 244.714 186.441 245.176C186.356 246.986 185.643 248.71 184.423 250.05ZM183.362 256.136C183.725 255.493 183.91 254.765 183.898 254.026C183.933 253.75 183.903 253.47 183.812 253.207C183.721 252.944 183.571 252.706 183.373 252.51C183.165 252.376 182.92 252.311 182.672 252.326C182.425 252.34 182.188 252.434 181.997 252.592C181.411 252.946 180.938 253.459 180.633 254.072C180.281 254.733 180.097 255.47 180.096 256.218C180.055 256.493 180.084 256.773 180.18 257.034C180.275 257.295 180.435 257.528 180.645 257.71C180.994 257.955 181.438 257.909 182.009 257.582C182.59 257.241 183.06 256.738 183.362 256.136ZM180.761 247.321C180.44 247.894 180.278 248.542 180.295 249.199C180.274 249.427 180.304 249.657 180.383 249.873C180.462 250.089 180.587 250.284 180.75 250.446C181.041 250.679 181.449 250.644 181.916 250.353C182.418 250.05 182.823 249.608 183.082 249.082C183.373 248.524 183.525 247.904 183.525 247.275C183.558 247.039 183.535 246.8 183.458 246.575C183.381 246.35 183.252 246.146 183.082 245.98C182.802 245.736 182.406 245.771 181.916 246.074C181.419 246.373 181.015 246.805 180.75 247.321" fill="#3A4151"/>
<path id="Vector_36" opacity="0.8" d="M216.447 224.445L216.482 237.889L218.324 236.84V239.393L211.502 243.335V240.769L213.426 239.662L213.391 228.783L211.339 229.96V227.395L216.447 224.445Z" fill="#3A4151"/>
<path id="Vector_37" opacity="0.8" d="M229.45 218.569C230.301 219.362 230.721 221.227 230.733 224.154C230.733 229.681 229.03 233.428 225.625 235.394C225.235 235.688 224.782 235.886 224.302 235.973C223.822 236.06 223.329 236.033 222.861 235.896C222.138 235.581 221.695 234.73 221.695 233.377L224.027 231.756C224.319 232.922 224.843 233.319 225.625 232.922C226.873 232.211 227.584 230.275 227.747 227.092C227.088 228.109 226.202 228.96 225.158 229.576C224.785 229.865 224.334 230.037 223.863 230.07C223.392 230.103 222.921 229.996 222.511 229.762C221.765 229.308 221.345 228.293 221.345 226.742C221.341 225.149 221.742 223.58 222.511 222.183C223.245 220.723 224.387 219.508 225.8 218.685C227.409 217.846 228.575 217.788 229.45 218.569ZM227.724 224.784V224.62C227.777 223.646 227.605 222.673 227.222 221.775C226.884 221.122 226.359 220.994 225.66 221.402C225.169 221.716 224.796 222.183 224.598 222.731C224.328 223.418 224.193 224.151 224.202 224.889C224.156 225.471 224.313 226.052 224.645 226.533C224.937 226.882 225.368 226.882 225.975 226.533C226.668 226.071 227.262 225.477 227.724 224.784Z" fill="#3A4151"/>
<path id="Vector_38" opacity="0.8" d="M258.896 199.854C260.238 199.084 261.287 198.898 262.034 199.294C262.442 199.562 262.768 199.938 262.974 200.381C263.18 200.824 263.258 201.316 263.2 201.801C263.194 202.511 263.075 203.215 262.85 203.888C262.628 204.557 262.339 205.202 261.987 205.812C261.637 206.407 261.019 207.316 260.133 208.575C259.161 209.841 258.317 211.2 257.614 212.633C257.327 213.292 257.127 213.986 257.019 214.697L261.101 212.365V210.278L263.34 208.983L263.223 213.647L254.302 218.801C254.268 217.656 254.362 216.51 254.581 215.385C254.805 214.421 255.129 213.483 255.549 212.586C256.113 211.388 256.74 210.221 257.427 209.088C258.193 207.901 258.89 206.671 259.515 205.404C259.839 204.763 260.014 204.058 260.028 203.34C260.05 203.155 260.028 202.968 259.963 202.793C259.898 202.619 259.792 202.462 259.654 202.337C259.505 202.257 259.335 202.222 259.166 202.234C258.997 202.246 258.835 202.306 258.698 202.407C258.119 202.75 257.681 203.287 257.462 203.923C257.164 204.834 257.011 205.786 257.007 206.745L254.453 208.086C254.409 206.781 254.611 205.48 255.048 204.249C255.427 203.276 255.981 202.379 256.681 201.603C257.326 200.911 258.073 200.321 258.896 199.854Z" fill="#3A4151"/>
<path id="Vector_39" opacity="0.8" d="M273.871 193.371C274.675 194.338 275.037 196.146 275.037 198.781C275.122 201.122 274.725 203.456 273.871 205.637C273.184 207.369 271.957 208.833 270.372 209.811C268.809 210.709 267.608 210.686 266.792 209.741C265.975 208.797 265.556 206.989 265.544 204.319C265.475 202.006 265.871 199.702 266.71 197.545C267.405 195.769 268.674 194.275 270.314 193.301C271.865 192.391 273.066 192.391 273.871 193.371ZM271.631 204.483C271.814 203.2 271.907 201.907 271.911 200.611C271.965 199.266 271.832 197.92 271.515 196.612C271.27 195.796 270.85 195.563 270.279 195.889C269.935 196.149 269.649 196.477 269.436 196.852C269.223 197.227 269.09 197.641 269.042 198.07C268.771 199.53 268.65 201.015 268.681 202.5C268.638 203.844 268.767 205.189 269.066 206.5C269.334 207.304 269.731 207.549 270.29 207.223C270.706 206.897 271.043 206.481 271.275 206.006C271.508 205.532 271.629 205.011 271.631 204.483Z" fill="#3A4151"/>
<path id="Vector_40" opacity="0.8" d="M41.8084 361.613C43.1495 360.843 44.1408 360.645 44.9571 361.053C45.3686 361.318 45.6966 361.694 45.903 362.138C46.1094 362.581 46.1858 363.075 46.1233 363.56C46.1247 364.263 46.0064 364.961 45.7735 365.624C45.5648 366.303 45.2792 366.956 44.9222 367.571C44.5723 368.166 43.9542 369.075 43.0679 370.311C42.0967 371.586 41.253 372.953 40.5489 374.392C40.2626 375.052 40.0627 375.745 39.9541 376.456L44.0242 374.124V372.037L46.2516 370.743L46.1233 375.453L37.1902 380.607C37.1656 379.461 37.2634 378.316 37.4818 377.19C37.7024 376.227 38.0229 375.289 38.4381 374.392C38.9046 373.405 39.5343 372.239 40.3273 370.894C41.0839 369.729 41.7806 368.527 42.4148 367.291C42.7345 366.645 42.9058 365.936 42.9163 365.216C42.9367 365.033 42.9136 364.848 42.8487 364.675C42.7839 364.503 42.6791 364.349 42.5431 364.225C42.3942 364.142 42.2244 364.104 42.0545 364.117C41.8846 364.129 41.7221 364.191 41.5868 364.295C41.0422 364.648 40.6316 365.173 40.4206 365.787C40.1131 366.708 39.9595 367.673 39.9658 368.644L37.3185 369.915C37.2799 368.61 37.4815 367.31 37.9133 366.079C38.294 365.099 38.8514 364.198 39.5576 363.42C40.2144 362.71 40.9729 362.101 41.8084 361.613Z" fill="#3A4151"/>
<path id="Vector_41" opacity="0.8" d="M53.1438 355.072C54.4732 354.314 55.4762 354.116 56.2925 354.512C56.703 354.781 57.0298 355.159 57.236 355.604C57.4421 356.05 57.5193 356.544 57.4587 357.031C57.4711 357.743 57.3646 358.452 57.1438 359.129C56.9357 359.816 56.6419 360.475 56.2692 361.088C55.931 361.671 55.3012 362.592 54.4266 363.817C53.4554 365.091 52.6117 366.458 51.9076 367.898C51.6267 368.559 51.427 369.252 51.3128 369.962L55.3829 367.63V365.542L57.6336 364.248L57.5287 368.97L48.5956 374.124C48.5678 372.979 48.6616 371.833 48.8755 370.708C49.1039 369.745 49.4282 368.808 49.8434 367.909C50.4004 366.706 51.0314 365.537 51.7327 364.411C52.7822 362.674 53.482 361.461 53.8202 360.727C54.1398 360.081 54.3111 359.372 54.3216 358.651C54.3457 358.468 54.3218 358.281 54.2523 358.109C54.1829 357.938 54.0701 357.787 53.9251 357.672C53.7771 357.586 53.6068 357.547 53.4362 357.559C53.2656 357.572 53.1028 357.635 52.9688 357.742C52.4268 358.093 52.0166 358.614 51.8026 359.223C51.5065 360.146 51.3531 361.11 51.3478 362.079L48.7938 363.409C48.7553 362.104 48.9569 360.804 49.3886 359.572C49.7655 358.597 50.3146 357.696 51.0096 356.914C51.6319 356.204 52.3502 355.584 53.1438 355.072Z" fill="#3A4151"/>
<path id="Vector_42" opacity="0.8" d="M83.9666 337.582C85.2961 336.813 86.299 336.638 87.092 337.046C87.5046 337.307 87.8338 337.68 88.0405 338.123C88.2471 338.565 88.3227 339.057 88.2582 339.541C88.258 340.247 88.1438 340.947 87.92 341.617C87.7024 342.293 87.409 342.942 87.0454 343.552C86.6955 344.147 86.0774 345.068 85.1911 346.304C84.2226 347.574 83.3827 348.937 82.6838 350.373C82.3967 351.024 82.1967 351.71 82.089 352.414L86.1591 350.082V347.995L88.4098 346.7L88.3049 351.423L79.3018 356.565C79.2735 355.423 79.3673 354.282 79.5817 353.16C79.8082 352.193 80.1325 351.251 80.5496 350.35C81.1117 349.149 81.7425 347.981 82.4389 346.852C83.4885 345.126 84.1882 343.89 84.5264 343.191C84.8426 342.539 85.0137 341.827 85.0279 341.103C85.054 340.918 85.0312 340.729 84.9617 340.555C84.8921 340.381 84.7782 340.229 84.6313 340.112C84.4834 340.027 84.313 339.987 84.1424 340C83.9718 340.012 83.809 340.076 83.6751 340.182C83.1273 340.532 82.7157 341.059 82.5089 341.675C82.206 342.597 82.0524 343.561 82.054 344.532L79.5001 345.861C79.4616 344.553 79.6632 343.248 80.0948 342.013C80.4467 341.06 80.9682 340.179 81.6342 339.413C82.31 338.683 83.0973 338.065 83.9666 337.582Z" fill="#3A4151"/>
<path id="Vector_43" opacity="0.8" d="M95.0223 331.145C96.3984 330.364 97.4596 330.119 98.2177 330.445C98.9757 330.772 99.3839 331.611 99.3839 332.859C99.3474 334.682 98.6078 336.42 97.3197 337.71C99.0457 337.371 99.9087 338.141 99.9203 340.042C99.9146 341.587 99.4521 343.096 98.5909 344.379C97.7351 345.712 96.5711 346.82 95.1972 347.609C92.2117 349.323 90.614 348.553 90.3691 345.277L93.0631 343.458C93.0631 345.335 93.7161 345.918 94.9057 345.23C95.4752 344.88 95.9325 344.375 96.2235 343.773C96.5538 343.156 96.7261 342.467 96.7249 341.767C96.757 341.507 96.7295 341.242 96.6447 340.994C96.5598 340.746 96.4198 340.52 96.2351 340.333C95.8853 340.077 95.3955 340.123 94.7191 340.52C94.5675 340.601 94.3459 340.753 94.101 340.904V338.199C94.8064 337.832 95.3989 337.28 95.8153 336.602C96.1623 336.058 96.352 335.428 96.3634 334.783C96.3895 334.588 96.3658 334.389 96.2944 334.206C96.223 334.022 96.1064 333.86 95.9552 333.734C95.7807 333.651 95.5863 333.619 95.3945 333.641C95.2026 333.664 95.021 333.741 94.8707 333.862C94.369 334.166 93.9629 334.605 93.6989 335.128C93.4349 335.652 93.3237 336.239 93.3779 336.823L90.754 338.141C90.798 336.699 91.2334 335.297 92.0135 334.083C92.7707 332.88 93.8017 331.874 95.0223 331.145Z" fill="#3A4151"/>
<path id="Vector_44" opacity="0.8" d="M127.314 312.256C128.632 311.498 129.647 311.3 130.44 311.708C130.849 311.975 131.176 312.351 131.382 312.794C131.588 313.238 131.666 313.73 131.606 314.215C131.596 314.917 131.478 315.613 131.256 316.279C131.042 316.958 130.752 317.611 130.393 318.226C130.043 318.82 129.425 319.73 128.539 320.966C127.569 322.235 126.729 323.598 126.031 325.035C125.741 325.693 125.541 326.387 125.437 327.099L129.507 324.767V322.68L131.746 321.386L131.629 326.108L122.696 331.262C122.677 330.116 122.775 328.971 122.988 327.845C123.21 326.879 123.538 325.941 123.967 325.047C124.52 323.845 125.143 322.677 125.833 321.549C126.894 319.812 127.594 318.587 127.932 317.864C128.256 317.216 128.428 316.502 128.434 315.777C128.451 315.595 128.425 315.412 128.358 315.242C128.291 315.071 128.185 314.919 128.049 314.798C127.9 314.715 127.73 314.678 127.56 314.69C127.391 314.702 127.228 314.764 127.093 314.868C126.548 315.221 126.137 315.746 125.927 316.36C125.619 317.277 125.469 318.239 125.483 319.205L122.929 320.534C122.884 319.233 123.086 317.936 123.524 316.71C123.894 315.73 124.444 314.829 125.145 314.051C125.778 313.351 126.508 312.746 127.314 312.256Z" fill="#3A4151"/>
<path id="Vector_45" opacity="0.8" d="M143.513 314.821L142.16 315.602V317.666L143.326 316.99V319.322L137.729 322.552V320.22L139.291 319.322V317.258L134.172 320.22C133.97 319.655 133.72 319.109 133.425 318.587L139.385 305.318L142.125 303.732V313.422L143.478 312.641L143.513 314.821ZM139.291 315.078V309.492L135.793 317.083L139.291 315.078Z" fill="#3A4151"/>
<path id="Vector_46" opacity="0.8" d="M171.431 286.57C172.749 285.8 173.764 285.625 174.557 286.022C174.968 286.287 175.296 286.663 175.503 287.106C175.709 287.55 175.785 288.043 175.723 288.529C175.721 289.23 175.607 289.927 175.385 290.592C175.162 291.27 174.869 291.923 174.51 292.54C174.172 293.123 173.542 294.032 172.668 295.28C171.701 296.549 170.857 297.908 170.149 299.337C169.864 299.997 169.664 300.691 169.554 301.401L173.624 299.069V296.982L175.875 295.688L175.77 300.352L166.837 305.506C166.804 304.356 166.897 303.206 167.116 302.078C167.345 301.119 167.669 300.185 168.084 299.291C168.644 298.088 169.275 296.92 169.974 295.793C171.023 294.067 171.723 292.831 172.061 292.108C172.374 291.464 172.545 290.76 172.563 290.044C172.582 289.858 172.556 289.669 172.487 289.494C172.418 289.32 172.308 289.165 172.166 289.042C172.016 288.959 171.846 288.923 171.676 288.937C171.505 288.952 171.343 289.017 171.21 289.123C170.662 289.473 170.25 290 170.044 290.616C169.745 291.531 169.592 292.487 169.589 293.449L167.035 294.79C166.995 293.486 167.197 292.185 167.63 290.954C168.004 289.98 168.553 289.083 169.251 288.307C169.889 287.625 170.624 287.04 171.431 286.57Z" fill="#3A4151"/>
<path id="Vector_47" opacity="0.8" d="M186.732 278.01V281.776L184.691 282.942L184.505 281.869L180.924 283.933L180.726 287.886C181.351 286.989 182.158 286.235 183.094 285.67C184.446 284.889 185.508 284.773 186.266 285.356C186.684 285.741 187.008 286.219 187.21 286.751C187.413 287.284 187.488 287.856 187.432 288.422C187.45 290.051 187.049 291.658 186.266 293.086C185.429 294.637 184.161 295.913 182.615 296.759C181.216 297.575 180.143 297.785 179.373 297.412C178.937 297.166 178.573 296.808 178.319 296.376C178.066 295.944 177.93 295.453 177.927 294.952L180.563 293.063C180.749 294.497 181.368 294.917 182.417 294.31C183.015 293.957 183.494 293.433 183.793 292.806C184.131 292.105 184.299 291.334 184.283 290.556C184.283 288.644 183.677 288.061 182.464 288.76C181.672 289.295 181.081 290.079 180.784 290.987H178.545L178.942 282.639L186.732 278.01Z" fill="#3A4151"/>
<path id="Vector_48" opacity="0.8" d="M215.432 261.664C216.75 260.895 217.765 260.72 218.558 261.128C218.968 261.391 219.296 261.765 219.502 262.207C219.709 262.648 219.785 263.139 219.724 263.623C219.733 264.325 219.622 265.022 219.397 265.687C219.175 266.365 218.882 267.017 218.523 267.634C218.173 268.229 217.555 269.15 216.668 270.386C215.691 271.65 214.851 273.014 214.161 274.455C213.874 275.106 213.674 275.792 213.566 276.496L217.636 274.164V272.077L219.864 270.782L219.759 275.505L210.826 280.67C210.804 279.524 210.905 278.378 211.129 277.254C211.342 276.283 211.666 275.34 212.097 274.444C212.657 273.245 213.28 272.078 213.963 270.946C215.024 269.22 215.724 267.972 216.062 267.261C216.385 266.616 216.556 265.906 216.563 265.185C216.584 265 216.56 264.812 216.493 264.637C216.426 264.463 216.318 264.307 216.179 264.183C216.029 264.1 215.858 264.064 215.688 264.078C215.518 264.093 215.356 264.158 215.222 264.264C214.651 264.607 214.217 265.139 213.998 265.768C213.687 266.684 213.537 267.647 213.555 268.614L211.001 269.943C210.949 268.634 211.151 267.327 211.595 266.095C211.965 265.148 212.502 264.275 213.181 263.518C213.831 262.787 214.59 262.161 215.432 261.664Z" fill="#3A4151"/>
<path id="Vector_49" opacity="0.8" d="M230.418 260.323C231.149 260.743 231.538 261.769 231.584 263.401C231.623 265.062 231.221 266.704 230.418 268.158C229.7 269.49 228.626 270.596 227.316 271.353C225.625 272.333 224.354 272.403 223.526 271.598C222.698 270.794 222.278 268.963 222.278 266.165C222.167 263.677 222.638 261.197 223.654 258.924C224.472 257.181 225.797 255.727 227.456 254.749C229.788 253.397 231.071 254.073 231.374 256.755L229.042 258.376C228.762 257.21 228.202 256.825 227.398 257.28C226.653 257.789 226.119 258.552 225.893 259.425C225.518 260.613 225.329 261.852 225.333 263.098C225.923 262.07 226.771 261.214 227.794 260.614C228.167 260.338 228.606 260.166 229.067 260.115C229.528 260.063 229.994 260.135 230.418 260.323ZM228.296 267.505C228.585 266.783 228.724 266.01 228.704 265.232C228.704 264.381 228.541 263.833 228.202 263.599C228.025 263.491 227.818 263.439 227.61 263.449C227.402 263.459 227.202 263.532 227.036 263.658C226.341 264.088 225.748 264.665 225.299 265.348C225.215 266.488 225.403 267.63 225.847 268.683C226.185 269.126 226.651 269.184 227.258 268.835C227.757 268.524 228.138 268.057 228.342 267.505" fill="#3A4151"/>
<path id="Vector_50" opacity="0.8" d="M259.223 236.595C260.541 235.826 261.555 235.651 262.348 236.047C262.76 236.312 263.088 236.688 263.294 237.132C263.501 237.576 263.577 238.069 263.515 238.554C263.517 239.259 263.407 239.959 263.188 240.63C262.965 241.304 262.672 241.952 262.313 242.565C261.964 243.16 261.346 244.081 260.459 245.317C259.485 246.583 258.644 247.946 257.952 249.386C257.665 250.041 257.465 250.731 257.357 251.438L261.415 249.106V247.019L263.643 245.737L263.538 250.459L254.605 255.613C254.583 254.462 254.685 253.313 254.908 252.185C255.118 251.218 255.439 250.279 255.864 249.386C256.426 248.187 257.053 247.019 257.742 245.888C258.505 244.693 259.205 243.459 259.841 242.192C260.162 241.551 260.334 240.845 260.343 240.128C260.362 239.944 260.337 239.759 260.27 239.586C260.203 239.414 260.096 239.26 259.958 239.137C259.81 239.051 259.639 239.012 259.469 239.025C259.298 239.037 259.135 239.101 259.001 239.207C258.454 239.562 258.043 240.093 257.835 240.711C257.525 241.619 257.375 242.574 257.392 243.533L254.756 244.862C254.709 243.558 254.907 242.257 255.34 241.026C255.721 240.056 256.274 239.164 256.972 238.391C257.623 237.678 258.383 237.072 259.223 236.595Z" fill="#3A4151"/>
<path id="Vector_51" opacity="0.8" d="M274.99 227.756V229.703C274.075 231.721 273.368 233.827 272.879 235.988C272.249 238.269 271.893 240.618 271.818 242.984L273.591 241.969V244.535L266.862 248.417V245.852L268.623 244.838C268.781 242.71 269.172 240.607 269.789 238.565C270.379 236.269 271.159 234.026 272.121 231.86L268.553 233.924V236.163L266.325 237.457V232.7L274.99 227.756Z" fill="#3A4151"/>
<path id="Vector_52" opacity="0.8" d="M41.8082 398.098C43.1494 397.328 44.1406 397.153 44.957 397.561C45.3646 397.825 45.6901 398.197 45.8963 398.636C46.1025 399.075 46.1811 399.563 46.1232 400.045C46.1188 400.755 46.0007 401.46 45.7733 402.132C45.5507 402.806 45.2575 403.455 44.8987 404.068C44.5605 404.651 43.9307 405.583 43.0561 406.819C42.0807 408.087 41.2367 409.451 40.5371 410.889C40.2497 411.544 40.0498 412.234 39.9423 412.941L44.024 410.609V408.522L46.2515 407.228L46.1465 411.892L37.2134 417.045C37.1792 415.904 37.2731 414.761 37.4933 413.641C37.7183 412.681 38.0427 411.747 38.4612 410.854C39.023 409.652 39.6538 408.484 40.3505 407.356C41.4001 405.63 42.0998 404.406 42.438 403.695C42.7512 403.046 42.9222 402.339 42.9395 401.619C42.959 401.432 42.9331 401.244 42.8641 401.069C42.7951 400.895 42.6849 400.739 42.5429 400.616C42.3992 400.532 42.2337 400.493 42.0676 400.504C41.9015 400.514 41.7422 400.574 41.61 400.675C41.0105 401.037 40.563 401.605 40.3505 402.272C40.0524 403.191 39.899 404.151 39.8957 405.117L37.3184 406.411C37.2777 405.111 37.4794 403.814 37.9131 402.587C38.2927 401.61 38.8503 400.713 39.5575 399.94C40.2103 399.216 40.9691 398.595 41.8082 398.098Z" fill="#3A4151"/>
<path id="Vector_53" opacity="0.8" d="M56.4908 391.544C57.3188 392.337 57.7619 394.191 57.7619 397.129C57.7619 402.648 56.0554 406.395 52.6423 408.37C52.2571 408.663 51.8082 408.861 51.332 408.948C50.8558 409.035 50.3658 409.009 49.9017 408.871C49.1787 408.568 48.7355 407.705 48.7355 406.352L51.0679 404.72C51.3478 405.886 51.8959 406.306 52.6773 405.886C53.9251 405.163 54.6249 403.239 54.7881 400.056C54.132 401.083 53.2405 401.938 52.1875 402.551C51.8119 402.834 51.3634 403.005 50.8944 403.042C50.4255 403.079 49.9557 402.982 49.5402 402.761C48.8172 402.271 48.444 401.269 48.374 399.706C48.3822 398.114 48.7827 396.548 49.5402 395.147C50.3009 393.728 51.4549 392.558 52.8639 391.777C54.4383 390.81 55.6395 390.751 56.4908 391.544ZM54.8115 397.759V397.607C54.8571 396.635 54.6775 395.666 54.2867 394.774C54.2333 394.627 54.1445 394.495 54.0282 394.39C53.9118 394.285 53.7715 394.21 53.6194 394.172C53.4674 394.134 53.3083 394.134 53.1562 394.172C53.0041 394.21 52.8637 394.284 52.7473 394.389C52.2609 394.708 51.8891 395.174 51.686 395.719C51.4041 396.406 51.269 397.145 51.2895 397.887C51.2326 398.471 51.3901 399.055 51.7327 399.531C52.0126 399.881 52.4557 399.87 53.0388 399.531C53.7397 399.071 54.3422 398.477 54.8115 397.782" fill="#3A4151"/>
<path id="Vector_54" opacity="0.8" d="M83.8382 374.288C85.2143 373.495 86.2756 373.25 87.0336 373.554C87.7916 373.857 88.1998 374.72 88.1998 375.99C88.1596 377.818 87.416 379.559 86.124 380.853C87.8499 380.491 88.7129 381.261 88.7129 383.185C88.7178 384.717 88.2628 386.216 87.4068 387.487C86.5491 388.815 85.3904 389.921 84.0248 390.717C81.0277 392.443 79.36 391.673 79.1851 388.385L81.8673 386.589C81.8673 388.439 82.4854 389.022 83.7216 388.338C84.285 387.991 84.7411 387.495 85.0394 386.904C85.3731 386.28 85.5454 385.583 85.5409 384.875C85.5735 384.616 85.544 384.353 85.4548 384.108C85.3655 383.863 85.2191 383.642 85.0277 383.464C84.7129 383.196 84.1997 383.255 83.535 383.639L82.9052 384.024V381.331C83.6185 380.955 84.2184 380.395 84.6429 379.71C84.9858 379.165 85.1714 378.535 85.1793 377.891C85.2041 377.695 85.1785 377.496 85.1051 377.312C85.0317 377.129 84.9127 376.967 84.7595 376.842C84.5029 376.655 84.1297 376.713 83.6983 376.958C83.1949 377.265 82.7887 377.709 82.5266 378.237C82.2645 378.765 82.1572 379.357 82.2172 379.943L79.5699 381.284C79.6107 379.845 80.0464 378.446 80.8294 377.238C81.572 376.02 82.606 375.007 83.8382 374.288Z" fill="#3A4151"/>
<path id="Vector_55" opacity="0.8" d="M98.987 367.734C99.7917 368.702 100.153 370.509 100.153 373.144C100.239 375.482 99.8416 377.812 98.987 379.989C98.3066 381.721 97.0779 383.183 95.4884 384.151C93.9141 385.061 92.7245 385.038 91.9082 384.151C91.0919 383.265 90.6604 381.411 90.6604 378.741C90.5921 376.424 90.9886 374.117 91.8266 371.955C92.5114 370.176 93.7825 368.683 95.4301 367.722C96.9812 366.743 98.1824 366.766 98.987 367.734ZM96.7946 378.834C96.9677 377.559 97.0573 376.274 97.0628 374.987C97.1125 373.635 96.9831 372.282 96.678 370.964C96.4331 370.159 96.0132 369.915 95.4418 370.241C95.0955 370.501 94.8069 370.83 94.5942 371.208C94.3814 371.585 94.2491 372.002 94.2056 372.433C93.9275 373.885 93.8063 375.363 93.8441 376.841C93.789 378.189 93.9185 379.538 94.229 380.852C94.4739 381.645 94.8937 381.889 95.3952 381.563C95.8203 381.244 96.1673 380.833 96.4098 380.36C96.6523 379.887 96.7839 379.366 96.7946 378.834Z" fill="#3A4151"/>
</g>
<path id="Vector_56" d="M312.157 25.71C321.067 20.568 328.297 24.6956 328.332 34.9331L328.425 70.2279L26.3794 244.603L26.2861 209.308C26.2861 199.071 33.4466 186.618 42.3447 181.476L312.157 25.71Z" fill="#97A6FF"/>
<path id="Vector_57" d="M175.991 115.516L176.085 146.24L170.137 149.668V131.292C170.137 129.309 170.137 127.071 170.347 124.587L170.195 124.669C169.892 126.733 169.612 128.248 169.367 129.228L163.163 153.714L158.242 156.559L151.804 139.57C151.44 138.323 151.156 137.053 150.953 135.769L150.79 135.862C150.953 138.801 151.046 141.412 151.046 143.698V160.686L145.624 163.811L145.542 133.087L154.358 128.003L159.875 143.057C160.324 144.303 160.645 145.592 160.831 146.904L160.947 146.834C161.286 144.945 161.624 143.266 161.997 141.786L167.408 120.471L175.991 115.516Z" fill="#F4F6F9"/>
<path id="Vector_58" d="M226.243 86.5293L217.555 111.353V122.279L211.537 125.777V114.98L202.989 99.9616L209.916 95.9622L214.254 104.94C214.336 105.115 214.546 105.827 214.884 107.086C215.117 105.92 215.304 104.999 215.525 104.287L219.875 90.2139L226.243 86.5293Z" fill="#F4F6F9"/>
<path id="Vector_59" d="M196.073 103.926L205.671 129.158L199.105 132.924L197.181 127.187L187.676 132.668L185.822 140.596L179.28 144.363L188.924 108.042L196.073 103.926ZM188.924 126.639L195.77 122.687L192.866 114.023C192.625 113.211 192.472 112.374 192.411 111.528L192.26 111.61C192.192 112.604 192.039 113.591 191.805 114.56L188.924 126.639Z" fill="#F4F6F9"/>
<path id="Vector_60" opacity="0.4" d="M295.573 517.599C321.214 517.599 342 505.597 342 490.793C342 475.988 321.214 463.986 295.573 463.986C269.933 463.986 249.147 475.988 249.147 490.793C249.147 505.597 269.933 517.599 295.573 517.599Z" fill="#D6D8E5"/>
<g id="Men 3">
<path id="Vector_61" d="M331.201 315.195C331.201 315.195 329.895 334.889 327.317 337.711C324.74 340.532 315.994 342.491 315.994 342.491L309.265 353.557C309.265 353.557 315.411 318.355 316.74 317.516C318.069 316.676 331.201 315.195 331.201 315.195Z" fill="#FFCEA9"/>
<path id="Vector_62" d="M318.209 293.332C319.843 292.584 321.693 292.46 323.411 292.982C325.129 293.504 326.598 294.636 327.539 296.165C330.011 300.258 332.589 314.331 332.822 316.733C332.822 316.733 329.323 321.525 324.134 320.733L318.209 293.332Z" fill="#EDEDED"/>
<path id="Vector_63" d="M298.267 489.838C294.605 490.846 290.692 490.373 287.375 488.52C284.751 488.602 270.512 482.504 268.564 487.622C266.873 492.1 273.043 496.251 276.331 497.055C283.527 498.793 288.856 502.384 291.748 502.99C293.894 503.445 296.681 503.748 298.396 502.046C300.46 500.017 300.273 492.508 298.267 489.838Z" fill="#38226D"/>
<path id="Vector_64" d="M291.748 501.754C288.856 501.136 283.585 497.556 276.331 495.807C273.579 495.142 268.821 492.122 268.331 488.52C267.701 492.647 273.264 496.308 276.331 497.055C283.527 498.792 288.856 502.383 291.748 502.99C293.894 503.444 296.681 503.748 298.396 502.045C298.841 501.556 299.165 500.969 299.34 500.331C298.271 501.14 297.029 501.689 295.712 501.936C294.394 502.183 293.038 502.121 291.748 501.754Z" fill="#9C73FF"/>
<path id="Vector_65" d="M320.449 482.924C316.786 483.939 312.871 483.465 309.556 481.606C306.932 481.688 292.681 475.59 290.745 480.708C289.054 485.198 295.224 489.337 298.512 490.141C305.708 491.879 311.037 495.47 313.918 496.076C316.075 496.531 318.863 496.834 320.577 495.144C322.641 493.103 322.454 485.594 320.449 482.924Z" fill="#38226D"/>
<path id="Vector_66" d="M313.918 494.84C311.037 494.222 305.755 490.642 298.512 488.893C295.749 488.228 290.99 485.208 290.512 481.605C289.871 485.733 295.445 489.394 298.512 490.141C305.708 491.878 311.037 495.469 313.918 496.076C316.075 496.53 318.863 496.833 320.577 495.143C321.022 494.649 321.346 494.058 321.522 493.417C320.451 494.226 319.206 494.776 317.887 495.022C316.568 495.269 315.209 495.207 313.918 494.84Z" fill="#9C73FF"/>
<path id="Vector_67" d="M322.023 442.871C321.405 437.585 320.304 432.367 318.734 427.282C318.734 427.282 319.714 413.815 320.204 401.058C320.764 386.577 325.79 373.832 321.825 362.277L277.708 372.083C277.708 372.083 279.83 429.94 280.425 436.936C280.762 442.375 281.432 447.787 282.431 453.144C284.471 464.349 286.699 489.441 286.699 489.441C291.364 492.181 298.361 489.931 298.361 489.931C298.361 489.931 298.361 458.519 298.093 450.45C297.72 440.586 297.416 441.344 297.416 441.344L298.897 416.776L299.854 404.556C299.854 404.556 301.101 413.523 301.906 421.533C302.606 428.529 304.239 434.838 306.174 447.838C307.807 459.114 309.498 482.107 309.498 482.107C314.221 484.847 320.577 482.958 320.577 482.958C320.577 482.958 323.294 452.654 322.023 442.871Z" fill="#8C50FF"/>
<path id="Vector_68" d="M315.83 293.577C312.437 293.741 309.894 294.615 309.474 293.577C309.109 291.822 308.848 290.047 308.693 288.261C309.09 287.269 309.428 286.208 309.428 286.208C313.696 283.585 315.049 278.967 315.609 273.581C316.577 264.392 311.609 256.347 302.407 255.391C293.766 254.481 287.41 260.556 285.707 268.893C284.798 273.021 282.978 280.798 285.439 287.549C286.804 291.327 288.588 294.335 290.349 294.918C292.063 294.88 293.773 294.732 295.468 294.475C295.468 294.475 295.923 297.029 296.238 298.673C296.553 300.317 296.425 301.18 293.171 303.185C289.917 305.191 298.104 309.33 303.457 308.922C308.81 308.514 314.839 305.284 316.495 301.821C318.373 298.008 318.174 293.461 315.83 293.577Z" fill="#FFCEA9"/>
<path id="Vector_69" d="M310.909 294.079C311.854 296.411 309.463 299.303 303.061 301.32C296.658 303.337 296.063 300.737 296.063 300.737C296.063 300.737 286.734 305.004 283.643 307.138C279.807 309.82 278.104 317.574 277.591 330.68C276.984 345.838 276.938 368.33 277.439 372.213C277.439 372.213 284.611 379.36 293.766 378.602C302.921 377.844 318.373 369.729 322.116 363.444C322.011 350.152 320.46 347.995 322.618 340.334C327.539 322.844 330.14 315.627 327.737 303.978C325.767 294.382 323.003 293.181 319.212 293.274C316.432 293.395 313.661 293.663 310.909 294.079Z" fill="#F4F4F4"/>
<path id="Vector_70" d="M285.532 383.884L290.197 331.099L280.366 325.875L276.518 329.093L277.684 376.503V377.797L277.754 379.464C277.754 379.464 277.52 383.464 285.054 388.233C285.054 388.233 285.171 386.985 285.287 385.807L285.462 383.837L285.532 383.884Z" fill="#FFCEA9"/>
<path id="Vector_71" d="M286.71 303.871C281.637 303.778 278.395 306.472 277.159 314.307C275.923 322.143 275.223 328.544 275.223 328.544C277.56 331.139 280.803 332.741 284.285 333.021C290.442 333.709 292.226 330.585 292.226 330.585C292.226 330.585 292.868 322.423 293.206 316.931C293.544 311.439 292.996 304 286.71 303.871Z" fill="#EDEDED"/>
<path id="Vector_72" d="M285.999 267.715C285.999 267.715 278.057 255.635 295.27 253.175C307.69 251.402 315.667 259.378 316.589 268.03C317.463 276.297 312.379 284.89 308.693 288.295C306.897 288.936 303.037 289.309 297.964 287C297.764 284.748 297.686 282.487 297.731 280.226C297.731 280.226 303.784 267.493 285.999 267.715Z" fill="#3A2C6D"/>
</g>
<path id="Vector_73" opacity="0.4" d="M166.848 583.001C192.489 583.001 213.275 571 213.275 556.195C213.275 541.39 192.489 529.389 166.848 529.389C141.208 529.389 120.422 541.39 120.422 556.195C120.422 571 141.208 583.001 166.848 583.001Z" fill="#D6D8E5"/>
<g id="Men 2">
<path id="Vector_74" d="M136.562 382.869C136.096 386.938 131.256 404.452 132.294 410.457C133.332 416.462 149.88 426.501 149.88 426.501L152.213 416.217L143.046 407.239L145.53 390.227L136.562 382.869Z" fill="#FFCEA9"/>
<path id="Vector_75" d="M149.367 365.612C147.758 364.864 145.931 364.733 144.232 365.245C142.533 365.757 141.082 366.875 140.154 368.387C137.717 372.421 135.186 386.262 134.964 388.617C134.964 388.617 138.37 393.281 143.501 392.558L149.367 365.612Z" fill="#EDEDED"/>
<path id="Vector_76" d="M168.283 560.953C171.882 561.952 175.731 561.487 178.989 559.659C181.578 559.74 195.584 553.735 197.485 558.773C199.152 563.18 193.088 567.273 189.846 568.101C182.767 569.815 177.531 573.336 174.685 573.931C172.563 574.374 169.822 574.665 168.131 572.998C166.125 570.969 166.3 563.588 168.283 560.953Z" fill="#2B2A30"/>
<path id="Vector_77" d="M174.697 572.671C177.531 572.076 182.767 568.543 189.858 566.841C192.575 566.188 197.251 563.215 197.729 559.67C198.359 563.728 192.878 567.331 189.858 568.065C182.779 569.779 177.543 573.3 174.697 573.895C172.575 574.338 169.834 574.63 168.143 572.962C167.705 572.48 167.39 571.901 167.222 571.272C168.272 572.072 169.495 572.615 170.793 572.858C172.091 573.101 173.428 573.037 174.697 572.671Z" fill="#BF4B4B"/>
<path id="Vector_78" d="M145.554 550.75C149.157 551.748 153.009 551.283 156.271 549.456C158.848 549.537 172.854 543.532 174.767 548.569C176.435 552.989 170.37 557.07 167.128 557.897C160.049 559.612 154.813 563.144 151.968 563.727C149.857 564.171 147.116 564.462 145.425 562.806C143.443 560.766 143.571 553.385 145.554 550.75Z" fill="#2B2A30"/>
<path id="Vector_79" d="M151.968 562.468C154.813 561.873 160.049 558.34 167.128 556.638C169.845 555.985 174.522 553.011 174.988 549.467C175.618 553.524 170.149 557.127 167.128 557.862C160.049 559.576 154.813 563.109 151.968 563.692C149.857 564.135 147.116 564.427 145.425 562.771C144.988 562.286 144.669 561.708 144.492 561.08C145.545 561.876 146.769 562.415 148.066 562.656C149.364 562.897 150.699 562.832 151.968 562.468Z" fill="#BF4B4B"/>
<path id="Vector_80" d="M145.274 512.692C145.882 507.489 146.967 502.352 148.516 497.348C148.516 497.348 147.548 484.114 147.07 471.568C146.51 457.319 141.577 444.75 145.472 433.416L189.426 443.187C189.426 443.187 186.767 499.983 186.184 506.851C185.879 512.203 185.237 517.53 184.26 522.802C182.254 533.82 178.989 560.044 178.989 560.044C174.324 562.749 168.236 561.21 168.236 561.21C168.236 561.21 168.575 528.037 168.878 520.096C169.239 510.395 169.543 511.142 169.543 511.142L168.085 486.982L167.129 474.961C167.129 474.961 165.962 483.787 165.123 491.658C164.435 498.525 162.79 504.74 160.924 517.531C159.315 528.62 156.714 550.914 156.714 550.914C152.05 553.619 145.752 551.369 145.752 551.369C145.752 551.369 144.026 522.37 145.274 512.692Z" fill="#E26D6D"/>
<path id="Vector_81" d="M151.699 365.845C155.046 366.008 157.53 366.871 157.95 365.845C158.318 364.122 158.575 362.377 158.72 360.622C158.335 359.642 158.009 358.604 158.009 358.604C153.799 356.016 152.469 351.468 151.921 346.186C150.976 337.138 155.863 329.233 164.901 328.288C173.402 327.402 179.665 333.372 181.333 341.569C182.231 345.627 184.015 353.229 181.601 359.934C180.248 363.665 178.499 366.615 176.761 367.198C175.078 367.147 173.4 367 171.735 366.755C171.735 366.755 171.28 369.262 170.977 370.882C170.673 372.503 170.79 373.343 173.997 375.325C177.204 377.307 169.146 381.365 163.875 380.957C158.603 380.549 152.679 377.377 151.046 373.961C149.274 370.206 149.402 365.74 151.699 365.845Z" fill="#FFCEA9"/>
<path id="Vector_82" d="M156.539 366.347C155.618 368.679 157.974 371.477 164.259 373.459C170.545 375.441 171.105 372.888 171.105 372.888C171.105 372.888 180.33 377.097 183.327 379.184C187.105 381.819 188.773 389.457 189.286 402.341C189.869 417.254 189.927 439.373 189.426 443.151C189.426 443.151 182.429 450.147 173.356 449.436C164.283 448.725 149.145 440.714 145.46 434.546C145.565 421.475 147.093 419.388 144.97 411.821C140.131 394.575 137.577 387.51 139.932 376.059C141.868 366.615 144.597 365.437 148.329 365.565C151.078 365.679 153.818 365.94 156.539 366.347Z" fill="#F4F4F4"/>
<path id="Vector_83" d="M203.479 414.665C196.062 416.531 194.324 411.867 193.356 407.996C191.024 398.668 189.729 390.191 187.969 384.874C185.904 378.601 183.735 377.61 180.691 376.385C177.111 374.951 174.032 377.971 175.234 385.947C176.633 395.379 178.487 402.014 182.009 413.173C182.931 416.088 185.006 421.265 188.097 423.772C191.922 426.861 197.671 426.722 206.383 424.564C210.091 423.632 214.161 421.416 221.194 418.14C223.083 417.265 224.541 416.682 228.191 414.992C231.84 413.367 235.041 410.882 237.52 407.751C239.421 404.999 239.666 403.716 239.281 403.087C238.896 402.457 237.929 402.469 236.949 403.623C235.485 405.575 233.679 407.246 231.619 408.555C231.619 408.555 233.952 406.142 235.223 404.568C236.361 403.179 237.302 401.641 238.022 399.997C238.698 398.399 237.31 396.219 236.261 397.362C235.211 398.504 234.722 399.694 232.762 401.956C231.758 403.184 230.606 404.284 229.334 405.232C230.521 403.624 231.578 401.924 232.494 400.148C233.324 398.764 233.729 397.167 233.66 395.554C233.66 394.715 232.424 393.724 231.328 395.309C230.232 396.895 229.684 398.959 227.351 401.384C225.66 403.133 224.226 404.148 224.179 403.658C224.132 403.168 225.205 402.212 225.812 400.16C226.418 398.108 225.812 395.951 224.646 395.718C223.479 395.484 223.724 395.543 222.826 397.455C221.928 399.367 220.494 400.778 219.456 403.565C218.883 405.535 217.838 407.336 216.412 408.812C214.581 410.759 210.511 412.893 203.479 414.665Z" fill="#FFCEA9"/>
<path id="Vector_84" d="M177.951 375.104C182.895 374.381 186.382 376.608 188.575 384.093C190.767 391.579 192.283 397.736 192.283 397.736C190.326 400.559 187.364 402.527 184.003 403.239C178.079 404.673 175.956 401.852 175.956 401.852C175.956 401.852 174.312 393.993 173.286 388.652C172.26 383.312 171.828 376.013 177.951 375.104Z" fill="#EDEDED"/>
<path id="Vector_85" d="M181.041 340.473C181.041 340.473 188.855 328.592 171.921 326.178C159.711 324.429 151.863 332.265 150.93 340.788C150.055 348.95 155.07 357.357 158.685 360.715C160.446 361.345 164.248 361.706 169.239 359.433C169.439 357.219 169.517 354.997 169.472 352.775C169.472 352.775 163.56 340.194 181.041 340.473Z" fill="#2B2A30"/>
</g>
</g>
</g>
</g>
<defs>
<clipPath id="clip0">
<rect width="342" height="583" fill="white"/>
</clipPath>
</defs>
</svg>
